G04 #@! TF.GenerationSoftware,KiCad,Pcbnew,(5.1.9)-1*
G04 #@! TF.CreationDate,2022-09-08T13:28:09+09:00*
G04 #@! TF.ProjectId,PC-8001mk2_SD,50432d38-3030-4316-9d6b-325f53442e6b,rev?*
G04 #@! TF.SameCoordinates,PX53920b0PY93c3260*
G04 #@! TF.FileFunction,Copper,L1,Top*
G04 #@! TF.FilePolarity,Positive*
%FSLAX46Y46*%
G04 Gerber Fmt 4.6, Leading zero omitted, Abs format (unit mm)*
G04 Created by KiCad (PCBNEW (5.1.9)-1) date 2022-09-08 13:28:09*
%MOMM*%
%LPD*%
G01*
G04 APERTURE LIST*
G04 #@! TA.AperFunction,ComponentPad*
%ADD10C,1.600000*%
G04 #@! TD*
G04 #@! TA.AperFunction,ComponentPad*
%ADD11R,1.600000X2.400000*%
G04 #@! TD*
G04 #@! TA.AperFunction,ComponentPad*
%ADD12O,1.600000X2.400000*%
G04 #@! TD*
G04 #@! TA.AperFunction,ComponentPad*
%ADD13R,1.600000X1.600000*%
G04 #@! TD*
G04 #@! TA.AperFunction,ConnectorPad*
%ADD14R,1.780000X10.000000*%
G04 #@! TD*
G04 #@! TA.AperFunction,ComponentPad*
%ADD15R,1.700000X1.700000*%
G04 #@! TD*
G04 #@! TA.AperFunction,ComponentPad*
%ADD16O,1.700000X1.700000*%
G04 #@! TD*
G04 #@! TA.AperFunction,ComponentPad*
%ADD17O,1.600000X1.600000*%
G04 #@! TD*
G04 #@! TA.AperFunction,ViaPad*
%ADD18C,0.500000*%
G04 #@! TD*
G04 #@! TA.AperFunction,Conductor*
%ADD19C,0.400000*%
G04 #@! TD*
G04 #@! TA.AperFunction,Conductor*
%ADD20C,0.200000*%
G04 #@! TD*
G04 #@! TA.AperFunction,Conductor*
%ADD21C,0.254000*%
G04 #@! TD*
G04 #@! TA.AperFunction,Conductor*
%ADD22C,0.100000*%
G04 #@! TD*
G04 APERTURE END LIST*
D10*
X18059000Y55377000D03*
X18059000Y57877000D03*
D11*
X70739000Y64357000D03*
D12*
X22479000Y49117000D03*
X68199000Y64357000D03*
X25019000Y49117000D03*
X65659000Y64357000D03*
X27559000Y49117000D03*
X63119000Y64357000D03*
X30099000Y49117000D03*
X60579000Y64357000D03*
X32639000Y49117000D03*
X58039000Y64357000D03*
X35179000Y49117000D03*
X55499000Y64357000D03*
X37719000Y49117000D03*
X52959000Y64357000D03*
X40259000Y49117000D03*
X50419000Y64357000D03*
X42799000Y49117000D03*
X47879000Y64357000D03*
X45339000Y49117000D03*
X45339000Y64357000D03*
X47879000Y49117000D03*
X42799000Y64357000D03*
X50419000Y49117000D03*
X40259000Y64357000D03*
X52959000Y49117000D03*
X37719000Y64357000D03*
X55499000Y49117000D03*
X35179000Y64357000D03*
X58039000Y49117000D03*
X32639000Y64357000D03*
X60579000Y49117000D03*
X30099000Y64357000D03*
X63119000Y49117000D03*
X27559000Y64357000D03*
X65659000Y49117000D03*
X25019000Y64357000D03*
X68199000Y49117000D03*
X22479000Y64357000D03*
X70739000Y49117000D03*
D13*
X81280000Y75565000D03*
D10*
X83780000Y75565000D03*
X41402000Y75660000D03*
X41402000Y73160000D03*
X66167000Y73160000D03*
X66167000Y75660000D03*
D11*
X62357000Y78200000D03*
D12*
X47117000Y70580000D03*
X59817000Y78200000D03*
X49657000Y70580000D03*
X57277000Y78200000D03*
X52197000Y70580000D03*
X54737000Y78200000D03*
X54737000Y70580000D03*
X52197000Y78200000D03*
X57277000Y70580000D03*
X49657000Y78200000D03*
X59817000Y70580000D03*
X47117000Y78200000D03*
X62357000Y70580000D03*
D14*
X94488000Y89662000D03*
X91948000Y89662000D03*
X89408000Y89662000D03*
X86868000Y89662000D03*
X84328000Y89662000D03*
X81788000Y89662000D03*
X79248000Y89662000D03*
X76708000Y89662000D03*
X74168000Y89662000D03*
X71628000Y89662000D03*
X69088000Y89662000D03*
X66548000Y89662000D03*
X64008000Y89662000D03*
X61468000Y89662000D03*
X58928000Y89662000D03*
X56388000Y89662000D03*
X53848000Y89662000D03*
X51308000Y89662000D03*
X48768000Y89662000D03*
X46228000Y89662000D03*
X43688000Y89662000D03*
X41148000Y89662000D03*
X38608000Y89662000D03*
X36068000Y89662000D03*
X33528000Y89662000D03*
X30988000Y89662000D03*
X28448000Y89662000D03*
X25908000Y89662000D03*
X23368000Y89662000D03*
X20828000Y89662000D03*
X18288000Y89662000D03*
X15748000Y89662000D03*
X13208000Y89662000D03*
X10668000Y89662000D03*
X8128000Y89662000D03*
X5588000Y89662000D03*
D15*
X77470000Y30480000D03*
D16*
X74930000Y30480000D03*
X72390000Y30480000D03*
X69850000Y30480000D03*
X67310000Y30480000D03*
X64770000Y30480000D03*
X62230000Y30480000D03*
X59690000Y30480000D03*
X57150000Y30480000D03*
X57150000Y2540000D03*
X57150000Y5080000D03*
X77470000Y2540000D03*
X77470000Y5080000D03*
D12*
X37592000Y70580000D03*
X22352000Y78200000D03*
X35052000Y70580000D03*
X24892000Y78200000D03*
X32512000Y70580000D03*
X27432000Y78200000D03*
X29972000Y70580000D03*
X29972000Y78200000D03*
X27432000Y70580000D03*
X32512000Y78200000D03*
X24892000Y70580000D03*
X35052000Y78200000D03*
X22352000Y70580000D03*
D11*
X37592000Y78200000D03*
D13*
X33655000Y4445000D03*
D17*
X33655000Y6985000D03*
X33655000Y9525000D03*
X18415000Y32385000D03*
X33655000Y12065000D03*
X18415000Y29845000D03*
X33655000Y14605000D03*
X18415000Y27305000D03*
X33655000Y17145000D03*
X18415000Y24765000D03*
X33655000Y19685000D03*
X18415000Y22225000D03*
X33655000Y22225000D03*
X18415000Y19685000D03*
X33655000Y24765000D03*
X18415000Y17145000D03*
X33655000Y27305000D03*
X18415000Y14605000D03*
X33655000Y29845000D03*
X18415000Y12065000D03*
X33655000Y32385000D03*
X18415000Y9525000D03*
X18415000Y6985000D03*
X18415000Y4445000D03*
X20955000Y13335000D03*
X20955000Y15875000D03*
X20955000Y23495000D03*
X20955000Y26035000D03*
D15*
X73660000Y41148000D03*
D16*
X71120000Y41148000D03*
X68580000Y41148000D03*
X66040000Y41148000D03*
X63500000Y41148000D03*
X60960000Y41148000D03*
D18*
X67520800Y73995300D03*
X65099200Y74268400D03*
X49833400Y80361600D03*
X52641500Y82296000D03*
X52451000Y82994500D03*
X50038000Y82804000D03*
X43865100Y82937000D03*
X71367400Y72092700D03*
X50751200Y76088900D03*
X44665600Y72685700D03*
X41415800Y70401300D03*
X35700600Y25187300D03*
X47397600Y54487000D03*
D19*
X72017700Y73160000D02*
X77674700Y73160000D01*
X77674700Y73160000D02*
X80079700Y75565000D01*
X66167000Y73160000D02*
X72017700Y73160000D01*
X71120000Y42398300D02*
X72017700Y43296000D01*
X72017700Y43296000D02*
X72017700Y73160000D01*
X71120000Y41148000D02*
X71120000Y42398300D01*
X81280000Y75565000D02*
X80079700Y75565000D01*
X66167000Y73160000D02*
X64937000Y73160000D01*
X64937000Y73160000D02*
X62357000Y70580000D01*
X57277000Y72180300D02*
X56121300Y73336000D01*
X56121300Y73336000D02*
X41578000Y73336000D01*
X41578000Y73336000D02*
X41402000Y73160000D01*
X57277000Y70580000D02*
X57277000Y72180300D01*
X41402000Y73160000D02*
X40172000Y73160000D01*
X40172000Y73160000D02*
X37592000Y70580000D01*
X18059000Y55377000D02*
X28919000Y55377000D01*
X28919000Y55377000D02*
X35179000Y49117000D01*
X62357000Y70580000D02*
X60757000Y72180000D01*
X60757000Y72180000D02*
X58877000Y72180000D01*
X58877000Y72180000D02*
X57277000Y70580000D01*
X81280000Y75565000D02*
X86678000Y80962500D01*
X86678000Y80962500D02*
X86868000Y81153000D01*
X86868000Y81153000D02*
X86868000Y89662000D01*
X89408000Y89662000D02*
X89408000Y83693000D01*
X89408000Y83693000D02*
X86678000Y80962500D01*
X66167000Y75660000D02*
X52099800Y75660000D01*
X52099800Y75660000D02*
X51020600Y76739200D01*
X51020600Y76739200D02*
X50481900Y76739200D01*
X50481900Y76739200D02*
X50342400Y76599700D01*
X50342400Y76599700D02*
X47117000Y76599700D01*
X22352000Y76599700D02*
X27432000Y76599700D01*
X18059000Y57877000D02*
X18059000Y72306700D01*
X18059000Y72306700D02*
X22352000Y76599700D01*
X27432000Y78200000D02*
X27432000Y76599700D01*
X32512000Y78200000D02*
X32512000Y76599700D01*
X32512000Y76599700D02*
X27432000Y76599700D01*
X47117000Y76599700D02*
X42341700Y76599700D01*
X42341700Y76599700D02*
X41402000Y75660000D01*
X91948000Y89662000D02*
X91948000Y83733000D01*
X91948000Y83733000D02*
X83780000Y75565000D01*
X91948000Y89662000D02*
X94488000Y89662000D01*
X69850000Y30480000D02*
X69850000Y31730300D01*
X73660000Y41148000D02*
X73660000Y35540300D01*
X73660000Y35540300D02*
X69850000Y31730300D01*
X22352000Y78200000D02*
X22352000Y76599700D01*
X37592000Y76599700D02*
X40462300Y76599700D01*
X40462300Y76599700D02*
X41402000Y75660000D01*
X47117000Y78200000D02*
X47117000Y76599700D01*
X37592000Y78200000D02*
X37592000Y76599700D01*
D20*
X58039000Y50617300D02*
X53619000Y55037300D01*
X53619000Y55037300D02*
X47602400Y55037300D01*
X47602400Y55037300D02*
X38989000Y63650700D01*
X38989000Y63650700D02*
X38989000Y65071900D01*
X38989000Y65071900D02*
X37830600Y66230300D01*
X37830600Y66230300D02*
X35361400Y66230300D01*
X35361400Y66230300D02*
X32512000Y69079700D01*
X58039000Y49117000D02*
X58039000Y50617300D01*
X32512000Y70580000D02*
X32512000Y69079700D01*
X67520800Y73995300D02*
X67719800Y74194300D01*
X67719800Y74194300D02*
X67719800Y79474500D01*
X67719800Y79474500D02*
X64008000Y83186300D01*
X64008000Y83186300D02*
X64008000Y89662000D01*
X61468000Y89662000D02*
X61468000Y82920600D01*
X61468000Y82920600D02*
X67319400Y77069200D01*
X67319400Y77069200D02*
X67319400Y75249800D01*
X67319400Y75249800D02*
X66338000Y74268400D01*
X66338000Y74268400D02*
X65099200Y74268400D01*
X58928000Y89662000D02*
X58928000Y84361700D01*
X58928000Y84361700D02*
X54927900Y80361600D01*
X54927900Y80361600D02*
X49833400Y80361600D01*
X56388000Y89662000D02*
X56388000Y84361700D01*
X56388000Y84361700D02*
X54702500Y84361700D01*
X54702500Y84357000D02*
X52641500Y82296000D01*
X54702500Y84361700D02*
X54702500Y84357000D01*
X53848000Y89662000D02*
X53848000Y84361700D01*
X53848000Y84361700D02*
X53818200Y84361700D01*
X53818200Y84361700D02*
X52451000Y82994500D01*
X52451000Y82994500D02*
X52451000Y82994500D01*
X51308000Y89662000D02*
X51308000Y84361700D01*
X51308000Y84361700D02*
X51308000Y84074000D01*
X51308000Y84074000D02*
X50038000Y82804000D01*
X50038000Y82804000D02*
X50038000Y82804000D01*
X48768000Y84361700D02*
X46149900Y81743600D01*
X46149900Y81743600D02*
X36611200Y81743600D01*
X36611200Y81743600D02*
X33836000Y78968400D01*
X33836000Y78968400D02*
X33836000Y77183200D01*
X33836000Y77183200D02*
X32449600Y75796800D01*
X32449600Y75796800D02*
X25599900Y75796800D01*
X25599900Y75796800D02*
X21196900Y71393800D01*
X21196900Y71393800D02*
X21196900Y69772300D01*
X21196900Y69772300D02*
X24334200Y66635000D01*
X24334200Y66635000D02*
X32337400Y66635000D01*
X32337400Y66635000D02*
X33822600Y65149800D01*
X33822600Y65149800D02*
X33822600Y57053700D01*
X33822600Y57053700D02*
X40259000Y50617300D01*
X40259000Y49117000D02*
X40259000Y50617300D01*
X48768000Y89662000D02*
X48768000Y84361700D01*
X46228000Y89662000D02*
X46228000Y84361700D01*
X46228000Y84361700D02*
X45289800Y84361700D01*
X43865100Y82937000D02*
X45289800Y84361700D01*
X50419000Y64357000D02*
X50419000Y62856700D01*
X71367400Y72092700D02*
X68898100Y72092700D01*
X68898100Y72092700D02*
X61849000Y65043600D01*
X61849000Y65043600D02*
X61849000Y63634000D01*
X61849000Y63634000D02*
X61071700Y62856700D01*
X61071700Y62856700D02*
X50419000Y62856700D01*
X29972000Y72080300D02*
X32253300Y74361600D01*
X32253300Y74361600D02*
X49024000Y74361600D01*
X49024000Y74361600D02*
X49024000Y74361700D01*
X49024000Y74361700D02*
X50751200Y76088900D01*
X29972000Y70580000D02*
X29972000Y72080300D01*
X60579000Y65857300D02*
X59992500Y65857300D01*
X59992500Y65857300D02*
X56007000Y69842800D01*
X56007000Y69842800D02*
X56007000Y71294000D01*
X56007000Y71294000D02*
X54615300Y72685700D01*
X54615300Y72685700D02*
X44665600Y72685700D01*
X60579000Y64357000D02*
X60579000Y65857300D01*
X41415800Y70401300D02*
X46666200Y65150900D01*
X46666200Y65150900D02*
X46666200Y63552000D01*
X46666200Y63552000D02*
X59600900Y50617300D01*
X59600900Y50617300D02*
X60579000Y50617300D01*
X60579000Y49117000D02*
X60579000Y50617300D01*
X22352000Y70580000D02*
X23852400Y69079600D01*
X23852400Y69079600D02*
X30470500Y69079600D01*
X30470500Y69079600D02*
X31242000Y69851100D01*
X31242000Y69851100D02*
X31242000Y71287600D01*
X31242000Y71287600D02*
X32036100Y72081700D01*
X32036100Y72081700D02*
X33049300Y72081700D01*
X33049300Y72081700D02*
X33782000Y71349000D01*
X33782000Y71349000D02*
X33782000Y69892400D01*
X33782000Y69892400D02*
X34594700Y69079700D01*
X34594700Y69079700D02*
X38293700Y69079700D01*
X38293700Y69079700D02*
X40904800Y71690800D01*
X40904800Y71690800D02*
X44489300Y71690800D01*
X44489300Y71690800D02*
X44879500Y72081000D01*
X44879500Y72081000D02*
X53236000Y72081000D01*
X53236000Y72081000D02*
X54737000Y70580000D01*
X47117000Y70580000D02*
X47117000Y69079700D01*
X58039000Y64357000D02*
X58039000Y65857300D01*
X47117000Y69079700D02*
X54816600Y69079700D01*
X54816600Y69079700D02*
X58039000Y65857300D01*
X27432000Y72080300D02*
X30726900Y75375200D01*
X30726900Y75375200D02*
X34187800Y75375200D01*
X34187800Y75375200D02*
X36463700Y77651100D01*
X36463700Y77651100D02*
X36463700Y79572300D01*
X36463700Y79572300D02*
X36591700Y79700300D01*
X36591700Y79700300D02*
X62357000Y79700300D01*
X62357000Y78200000D02*
X62357000Y79700300D01*
X27432000Y70580000D02*
X27432000Y72080300D01*
X65659000Y64357000D02*
X65659000Y62856700D01*
X18415000Y14605000D02*
X27701000Y14605000D01*
X27701000Y14605000D02*
X31511000Y18415000D01*
X31511000Y18415000D02*
X56901700Y18415000D01*
X56901700Y18415000D02*
X68580000Y30093300D01*
X68580000Y30093300D02*
X68580000Y31630400D01*
X68580000Y31630400D02*
X69744300Y32794700D01*
X69744300Y32794700D02*
X69744300Y47911500D01*
X69744300Y47911500D02*
X69469000Y48186800D01*
X69469000Y48186800D02*
X69469000Y59046700D01*
X69469000Y59046700D02*
X65659000Y62856700D01*
X18415000Y17145000D02*
X19515300Y17145000D01*
X19515300Y17145000D02*
X25865300Y23495000D01*
X25865300Y23495000D02*
X34008300Y23495000D01*
X34008300Y23495000D02*
X35700600Y25187300D01*
X18415000Y22225000D02*
X18415000Y23325300D01*
X18415000Y23325300D02*
X18277500Y23325300D01*
X18277500Y23325300D02*
X16835300Y24767500D01*
X16835300Y24767500D02*
X16835300Y32982800D01*
X16835300Y32982800D02*
X30386700Y46534200D01*
X30386700Y46534200D02*
X39693500Y46534200D01*
X39693500Y46534200D02*
X41529000Y48369700D01*
X41529000Y48369700D02*
X41529000Y49823600D01*
X41529000Y49823600D02*
X46192400Y54487000D01*
X46192400Y54487000D02*
X47397600Y54487000D01*
X32639000Y62856700D02*
X26409300Y56627000D01*
X26409300Y56627000D02*
X17743600Y56627000D01*
X17743600Y56627000D02*
X16434900Y55318300D01*
X16434900Y55318300D02*
X16434900Y22627900D01*
X16434900Y22627900D02*
X18277500Y20785300D01*
X18277500Y20785300D02*
X18415000Y20785300D01*
X32639000Y64357000D02*
X32639000Y62856700D01*
X18415000Y19685000D02*
X18415000Y20785300D01*
X67310000Y30480000D02*
X66159700Y30480000D01*
X66159700Y30480000D02*
X66159700Y30192400D01*
X66159700Y30192400D02*
X62131800Y26164500D01*
X62131800Y26164500D02*
X26231900Y26164500D01*
X26231900Y26164500D02*
X24832400Y24765000D01*
X24832400Y24765000D02*
X18415000Y24765000D01*
X64770000Y30480000D02*
X63619700Y30480000D01*
X63619700Y30480000D02*
X63619700Y30192400D01*
X63619700Y30192400D02*
X61929900Y28502600D01*
X61929900Y28502600D02*
X20712900Y28502600D01*
X20712900Y28502600D02*
X19515300Y27305000D01*
X68580000Y39997700D02*
X64770000Y36187700D01*
X64770000Y36187700D02*
X64770000Y30480000D01*
X18415000Y27305000D02*
X19515300Y27305000D01*
X68580000Y41148000D02*
X68580000Y39997700D01*
X62230000Y33509500D02*
X62230000Y30480000D01*
X66040000Y39997700D02*
X62230000Y36187700D01*
X62230000Y36187700D02*
X62230000Y33509500D01*
X18415000Y30945300D02*
X18277500Y30945300D01*
X18277500Y30945300D02*
X17304300Y31918500D01*
X17304300Y31918500D02*
X17304300Y32865200D01*
X17304300Y32865200D02*
X17948600Y33509500D01*
X17948600Y33509500D02*
X62230000Y33509500D01*
X18415000Y29845000D02*
X18415000Y30945300D01*
X66040000Y41148000D02*
X66040000Y39997700D01*
X59690000Y30480000D02*
X58539700Y30480000D01*
X18415000Y32385000D02*
X19515300Y32385000D01*
X19515300Y32385000D02*
X20629200Y31271100D01*
X20629200Y31271100D02*
X34396100Y31271100D01*
X34396100Y31271100D02*
X34755400Y31630400D01*
X34755400Y31630400D02*
X57627600Y31630400D01*
X57627600Y31630400D02*
X58539700Y30718300D01*
X58539700Y30718300D02*
X58539700Y30480000D01*
D21*
X43080823Y83356205D02*
X43014110Y83195145D01*
X42980100Y83024165D01*
X42980100Y82849835D01*
X43014110Y82678855D01*
X43080823Y82517795D01*
X43107012Y82478600D01*
X36647294Y82478600D01*
X36611199Y82482155D01*
X36575104Y82478600D01*
X36575095Y82478600D01*
X36467115Y82467965D01*
X36328567Y82425937D01*
X36200880Y82357687D01*
X36088962Y82265838D01*
X36065946Y82237793D01*
X33484300Y79656146D01*
X33436895Y79704500D01*
X33203646Y79863715D01*
X32943818Y79974367D01*
X32861039Y79991904D01*
X32639000Y79869915D01*
X32639000Y78327000D01*
X32659000Y78327000D01*
X32659000Y78073000D01*
X32639000Y78073000D01*
X32639000Y78053000D01*
X32385000Y78053000D01*
X32385000Y78073000D01*
X32365000Y78073000D01*
X32365000Y78327000D01*
X32385000Y78327000D01*
X32385000Y79869915D01*
X32162961Y79991904D01*
X32080182Y79974367D01*
X31820354Y79863715D01*
X31587105Y79704500D01*
X31389399Y79502839D01*
X31239265Y79273259D01*
X31170932Y79401101D01*
X30991608Y79619608D01*
X30773101Y79798932D01*
X30523808Y79932182D01*
X30253309Y80014236D01*
X29972000Y80041943D01*
X29690692Y80014236D01*
X29420193Y79932182D01*
X29170900Y79798932D01*
X28952393Y79619608D01*
X28773068Y79401101D01*
X28704735Y79273259D01*
X28554601Y79502839D01*
X28356895Y79704500D01*
X28123646Y79863715D01*
X27863818Y79974367D01*
X27781039Y79991904D01*
X27559000Y79869915D01*
X27559000Y78327000D01*
X27579000Y78327000D01*
X27579000Y78073000D01*
X27559000Y78073000D01*
X27559000Y78053000D01*
X27305000Y78053000D01*
X27305000Y78073000D01*
X27285000Y78073000D01*
X27285000Y78327000D01*
X27305000Y78327000D01*
X27305000Y79869915D01*
X27082961Y79991904D01*
X27000182Y79974367D01*
X26740354Y79863715D01*
X26507105Y79704500D01*
X26309399Y79502839D01*
X26159265Y79273259D01*
X26090932Y79401101D01*
X25911608Y79619608D01*
X25693101Y79798932D01*
X25443808Y79932182D01*
X25173309Y80014236D01*
X24892000Y80041943D01*
X24610692Y80014236D01*
X24340193Y79932182D01*
X24090900Y79798932D01*
X23872393Y79619608D01*
X23693068Y79401101D01*
X23624735Y79273259D01*
X23474601Y79502839D01*
X23276895Y79704500D01*
X23043646Y79863715D01*
X22783818Y79974367D01*
X22701039Y79991904D01*
X22479000Y79869915D01*
X22479000Y78327000D01*
X22499000Y78327000D01*
X22499000Y78073000D01*
X22479000Y78073000D01*
X22479000Y76530085D01*
X22701039Y76408096D01*
X22783818Y76425633D01*
X23043646Y76536285D01*
X23276895Y76695500D01*
X23474601Y76897161D01*
X23624735Y77126742D01*
X23693068Y76998900D01*
X23872392Y76780393D01*
X24090899Y76601068D01*
X24340192Y76467818D01*
X24610691Y76385764D01*
X24892000Y76358057D01*
X25157012Y76384159D01*
X25077662Y76319038D01*
X25054646Y76290993D01*
X20702708Y71939054D01*
X20674662Y71916037D01*
X20582813Y71804119D01*
X20514563Y71676432D01*
X20487588Y71587507D01*
X20472535Y71537885D01*
X20458344Y71393800D01*
X20461900Y71357700D01*
X20461901Y69808415D01*
X20458344Y69772300D01*
X20472535Y69628215D01*
X20493178Y69560167D01*
X20514564Y69489667D01*
X20582814Y69361980D01*
X20674663Y69250062D01*
X20702708Y69227046D01*
X23788946Y66140807D01*
X23811962Y66112762D01*
X23923880Y66020913D01*
X24051567Y65952663D01*
X24170103Y65916706D01*
X23999393Y65776608D01*
X23820068Y65558101D01*
X23749000Y65425142D01*
X23677932Y65558101D01*
X23498608Y65776608D01*
X23280101Y65955932D01*
X23030808Y66089182D01*
X22760309Y66171236D01*
X22479000Y66198943D01*
X22197692Y66171236D01*
X21927193Y66089182D01*
X21677900Y65955932D01*
X21459393Y65776608D01*
X21280068Y65558101D01*
X21146818Y65308808D01*
X21064764Y65038309D01*
X21044000Y64827492D01*
X21044000Y63886509D01*
X21064764Y63675692D01*
X21146818Y63405193D01*
X21280068Y63155900D01*
X21459392Y62937393D01*
X21677899Y62758068D01*
X21927192Y62624818D01*
X22197691Y62542764D01*
X22479000Y62515057D01*
X22760308Y62542764D01*
X23030807Y62624818D01*
X23280100Y62758068D01*
X23498607Y62937392D01*
X23677932Y63155899D01*
X23749000Y63288858D01*
X23820068Y63155900D01*
X23999392Y62937393D01*
X24217899Y62758068D01*
X24467192Y62624818D01*
X24737691Y62542764D01*
X25019000Y62515057D01*
X25300308Y62542764D01*
X25570807Y62624818D01*
X25820100Y62758068D01*
X26038607Y62937392D01*
X26217932Y63155899D01*
X26289000Y63288858D01*
X26360068Y63155900D01*
X26539392Y62937393D01*
X26757899Y62758068D01*
X27007192Y62624818D01*
X27277691Y62542764D01*
X27559000Y62515057D01*
X27840308Y62542764D01*
X28110807Y62624818D01*
X28360100Y62758068D01*
X28578607Y62937392D01*
X28757932Y63155899D01*
X28829000Y63288858D01*
X28900068Y63155900D01*
X29079392Y62937393D01*
X29297899Y62758068D01*
X29547192Y62624818D01*
X29817691Y62542764D01*
X30099000Y62515057D01*
X30380308Y62542764D01*
X30650807Y62624818D01*
X30900100Y62758068D01*
X31118607Y62937392D01*
X31297932Y63155899D01*
X31369000Y63288858D01*
X31440068Y63155900D01*
X31619392Y62937393D01*
X31652816Y62909963D01*
X26104854Y57362000D01*
X19402851Y57362000D01*
X19416571Y57390996D01*
X19485300Y57665184D01*
X19499217Y57947512D01*
X19457787Y58227130D01*
X19362603Y58493292D01*
X19295671Y58618514D01*
X19051702Y58690097D01*
X18238605Y57877000D01*
X18252748Y57862857D01*
X18073143Y57683252D01*
X18059000Y57697395D01*
X18044858Y57683252D01*
X17865253Y57862857D01*
X17879395Y57877000D01*
X17066298Y58690097D01*
X16822329Y58618514D01*
X16701429Y58363004D01*
X16632700Y58088816D01*
X16618783Y57806488D01*
X16660213Y57526870D01*
X16755397Y57260708D01*
X16822329Y57135486D01*
X17066296Y57063903D01*
X16950023Y56947630D01*
X16987403Y56910250D01*
X15940708Y55863554D01*
X15912662Y55840537D01*
X15820813Y55728619D01*
X15752563Y55600932D01*
X15740006Y55559537D01*
X15710535Y55462385D01*
X15696344Y55318300D01*
X15699900Y55282195D01*
X15699901Y22664015D01*
X15696344Y22627900D01*
X15710535Y22483815D01*
X15741918Y22380363D01*
X15752564Y22345267D01*
X15820814Y22217580D01*
X15912663Y22105662D01*
X15940708Y22082646D01*
X17361979Y20661375D01*
X17300363Y20599759D01*
X17143320Y20364727D01*
X17035147Y20103574D01*
X16980000Y19826335D01*
X16980000Y19543665D01*
X17035147Y19266426D01*
X17143320Y19005273D01*
X17300363Y18770241D01*
X17500241Y18570363D01*
X17732759Y18415000D01*
X17500241Y18259637D01*
X17300363Y18059759D01*
X17143320Y17824727D01*
X17035147Y17563574D01*
X16980000Y17286335D01*
X16980000Y17003665D01*
X17035147Y16726426D01*
X17143320Y16465273D01*
X17300363Y16230241D01*
X17500241Y16030363D01*
X17732759Y15875000D01*
X17500241Y15719637D01*
X17300363Y15519759D01*
X17143320Y15284727D01*
X17035147Y15023574D01*
X16980000Y14746335D01*
X16980000Y14463665D01*
X17035147Y14186426D01*
X17143320Y13925273D01*
X17300363Y13690241D01*
X17500241Y13490363D01*
X17732759Y13335000D01*
X17500241Y13179637D01*
X17300363Y12979759D01*
X17143320Y12744727D01*
X17035147Y12483574D01*
X16980000Y12206335D01*
X16980000Y11923665D01*
X17035147Y11646426D01*
X17143320Y11385273D01*
X17300363Y11150241D01*
X17500241Y10950363D01*
X17732759Y10795000D01*
X17500241Y10639637D01*
X17300363Y10439759D01*
X17143320Y10204727D01*
X17035147Y9943574D01*
X16980000Y9666335D01*
X16980000Y9383665D01*
X17035147Y9106426D01*
X17143320Y8845273D01*
X17300363Y8610241D01*
X17500241Y8410363D01*
X17735273Y8253320D01*
X17745865Y8248933D01*
X17559869Y8137385D01*
X17351481Y7948414D01*
X17183963Y7722420D01*
X17063754Y7468087D01*
X17023096Y7334039D01*
X17145085Y7112000D01*
X18288000Y7112000D01*
X18288000Y7132000D01*
X18542000Y7132000D01*
X18542000Y7112000D01*
X19684915Y7112000D01*
X19806904Y7334039D01*
X19766246Y7468087D01*
X19646037Y7722420D01*
X19478519Y7948414D01*
X19270131Y8137385D01*
X19084135Y8248933D01*
X19094727Y8253320D01*
X19329759Y8410363D01*
X19529637Y8610241D01*
X19686680Y8845273D01*
X19794853Y9106426D01*
X19850000Y9383665D01*
X19850000Y9666335D01*
X19794853Y9943574D01*
X19686680Y10204727D01*
X19529637Y10439759D01*
X19329759Y10639637D01*
X19097241Y10795000D01*
X19329759Y10950363D01*
X19529637Y11150241D01*
X19686680Y11385273D01*
X19794853Y11646426D01*
X19850000Y11923665D01*
X19850000Y12206335D01*
X19794853Y12483574D01*
X19789646Y12496144D01*
X19840363Y12420241D01*
X20040241Y12220363D01*
X20275273Y12063320D01*
X20536426Y11955147D01*
X20813665Y11900000D01*
X21096335Y11900000D01*
X21373574Y11955147D01*
X21634727Y12063320D01*
X21869759Y12220363D01*
X22069637Y12420241D01*
X22226680Y12655273D01*
X22334853Y12916426D01*
X22390000Y13193665D01*
X22390000Y13476335D01*
X22334853Y13753574D01*
X22286628Y13870000D01*
X27664895Y13870000D01*
X27701000Y13866444D01*
X27737105Y13870000D01*
X27845085Y13880635D01*
X27983633Y13922663D01*
X28111320Y13990913D01*
X28223238Y14082762D01*
X28246259Y14110813D01*
X31815447Y17680000D01*
X32323372Y17680000D01*
X32275147Y17563574D01*
X32220000Y17286335D01*
X32220000Y17003665D01*
X32275147Y16726426D01*
X32383320Y16465273D01*
X32540363Y16230241D01*
X32740241Y16030363D01*
X32972759Y15875000D01*
X32740241Y15719637D01*
X32540363Y15519759D01*
X32383320Y15284727D01*
X32275147Y15023574D01*
X32220000Y14746335D01*
X32220000Y14463665D01*
X32275147Y14186426D01*
X32383320Y13925273D01*
X32540363Y13690241D01*
X32740241Y13490363D01*
X32972759Y13335000D01*
X32740241Y13179637D01*
X32540363Y12979759D01*
X32383320Y12744727D01*
X32275147Y12483574D01*
X32220000Y12206335D01*
X32220000Y11923665D01*
X32275147Y11646426D01*
X32383320Y11385273D01*
X32540363Y11150241D01*
X32740241Y10950363D01*
X32972759Y10795000D01*
X32740241Y10639637D01*
X32540363Y10439759D01*
X32383320Y10204727D01*
X32275147Y9943574D01*
X32220000Y9666335D01*
X32220000Y9383665D01*
X32275147Y9106426D01*
X32383320Y8845273D01*
X32540363Y8610241D01*
X32740241Y8410363D01*
X32972759Y8255000D01*
X32740241Y8099637D01*
X32540363Y7899759D01*
X32383320Y7664727D01*
X32275147Y7403574D01*
X32220000Y7126335D01*
X32220000Y6843665D01*
X32275147Y6566426D01*
X32383320Y6305273D01*
X32540363Y6070241D01*
X32738961Y5871643D01*
X32730518Y5870812D01*
X32610820Y5834502D01*
X32500506Y5775537D01*
X32403815Y5696185D01*
X32324463Y5599494D01*
X32265498Y5489180D01*
X32229188Y5369482D01*
X32216928Y5245000D01*
X32216928Y3645000D01*
X32229188Y3520518D01*
X32265498Y3400820D01*
X32324463Y3290506D01*
X32403815Y3193815D01*
X32500506Y3114463D01*
X32610820Y3055498D01*
X32730518Y3019188D01*
X32855000Y3006928D01*
X34455000Y3006928D01*
X34579482Y3019188D01*
X34699180Y3055498D01*
X34809494Y3114463D01*
X34906185Y3193815D01*
X34985537Y3290506D01*
X35044502Y3400820D01*
X35080812Y3520518D01*
X35093072Y3645000D01*
X35093072Y5226260D01*
X55665000Y5226260D01*
X55665000Y4933740D01*
X55722068Y4646842D01*
X55834010Y4376589D01*
X55996525Y4133368D01*
X56203368Y3926525D01*
X56377760Y3810000D01*
X56203368Y3693475D01*
X55996525Y3486632D01*
X55834010Y3243411D01*
X55722068Y2973158D01*
X55665000Y2686260D01*
X55665000Y2393740D01*
X55722068Y2106842D01*
X55834010Y1836589D01*
X55996525Y1593368D01*
X56203368Y1386525D01*
X56446589Y1224010D01*
X56716842Y1112068D01*
X57003740Y1055000D01*
X57296260Y1055000D01*
X57583158Y1112068D01*
X57853411Y1224010D01*
X58096632Y1386525D01*
X58303475Y1593368D01*
X58465990Y1836589D01*
X58577932Y2106842D01*
X58635000Y2393740D01*
X58635000Y2686260D01*
X58577932Y2973158D01*
X58465990Y3243411D01*
X58303475Y3486632D01*
X58096632Y3693475D01*
X57922240Y3810000D01*
X58096632Y3926525D01*
X58303475Y4133368D01*
X58465990Y4376589D01*
X58577932Y4646842D01*
X58635000Y4933740D01*
X58635000Y5226260D01*
X75985000Y5226260D01*
X75985000Y4933740D01*
X76042068Y4646842D01*
X76154010Y4376589D01*
X76316525Y4133368D01*
X76523368Y3926525D01*
X76697760Y3810000D01*
X76523368Y3693475D01*
X76316525Y3486632D01*
X76154010Y3243411D01*
X76042068Y2973158D01*
X75985000Y2686260D01*
X75985000Y2393740D01*
X76042068Y2106842D01*
X76154010Y1836589D01*
X76316525Y1593368D01*
X76523368Y1386525D01*
X76766589Y1224010D01*
X77036842Y1112068D01*
X77323740Y1055000D01*
X77616260Y1055000D01*
X77903158Y1112068D01*
X78173411Y1224010D01*
X78416632Y1386525D01*
X78623475Y1593368D01*
X78785990Y1836589D01*
X78897932Y2106842D01*
X78955000Y2393740D01*
X78955000Y2686260D01*
X78897932Y2973158D01*
X78785990Y3243411D01*
X78623475Y3486632D01*
X78416632Y3693475D01*
X78242240Y3810000D01*
X78416632Y3926525D01*
X78623475Y4133368D01*
X78785990Y4376589D01*
X78897932Y4646842D01*
X78955000Y4933740D01*
X78955000Y5220128D01*
X92765000Y5220128D01*
X92765000Y4779872D01*
X92850890Y4348075D01*
X93019369Y3941331D01*
X93263962Y3575271D01*
X93575271Y3263962D01*
X93941331Y3019369D01*
X94348075Y2850890D01*
X94779872Y2765000D01*
X95220128Y2765000D01*
X95651925Y2850890D01*
X96058669Y3019369D01*
X96424729Y3263962D01*
X96736038Y3575271D01*
X96980631Y3941331D01*
X97149110Y4348075D01*
X97235000Y4779872D01*
X97235000Y5220128D01*
X97149110Y5651925D01*
X96980631Y6058669D01*
X96736038Y6424729D01*
X96424729Y6736038D01*
X96058669Y6980631D01*
X95651925Y7149110D01*
X95220128Y7235000D01*
X94779872Y7235000D01*
X94348075Y7149110D01*
X93941331Y6980631D01*
X93575271Y6736038D01*
X93263962Y6424729D01*
X93019369Y6058669D01*
X92850890Y5651925D01*
X92765000Y5220128D01*
X78955000Y5220128D01*
X78955000Y5226260D01*
X78897932Y5513158D01*
X78785990Y5783411D01*
X78623475Y6026632D01*
X78416632Y6233475D01*
X78173411Y6395990D01*
X77903158Y6507932D01*
X77616260Y6565000D01*
X77323740Y6565000D01*
X77036842Y6507932D01*
X76766589Y6395990D01*
X76523368Y6233475D01*
X76316525Y6026632D01*
X76154010Y5783411D01*
X76042068Y5513158D01*
X75985000Y5226260D01*
X58635000Y5226260D01*
X58577932Y5513158D01*
X58465990Y5783411D01*
X58303475Y6026632D01*
X58096632Y6233475D01*
X57853411Y6395990D01*
X57583158Y6507932D01*
X57296260Y6565000D01*
X57003740Y6565000D01*
X56716842Y6507932D01*
X56446589Y6395990D01*
X56203368Y6233475D01*
X55996525Y6026632D01*
X55834010Y5783411D01*
X55722068Y5513158D01*
X55665000Y5226260D01*
X35093072Y5226260D01*
X35093072Y5245000D01*
X35080812Y5369482D01*
X35044502Y5489180D01*
X34985537Y5599494D01*
X34906185Y5696185D01*
X34809494Y5775537D01*
X34699180Y5834502D01*
X34579482Y5870812D01*
X34571039Y5871643D01*
X34769637Y6070241D01*
X34926680Y6305273D01*
X35034853Y6566426D01*
X35090000Y6843665D01*
X35090000Y7126335D01*
X35034853Y7403574D01*
X34926680Y7664727D01*
X34769637Y7899759D01*
X34569759Y8099637D01*
X34337241Y8255000D01*
X34569759Y8410363D01*
X34769637Y8610241D01*
X34926680Y8845273D01*
X35034853Y9106426D01*
X35090000Y9383665D01*
X35090000Y9666335D01*
X35034853Y9943574D01*
X34926680Y10204727D01*
X34769637Y10439759D01*
X34569759Y10639637D01*
X34337241Y10795000D01*
X34569759Y10950363D01*
X34769637Y11150241D01*
X34926680Y11385273D01*
X35034853Y11646426D01*
X35090000Y11923665D01*
X35090000Y12206335D01*
X35034853Y12483574D01*
X34926680Y12744727D01*
X34769637Y12979759D01*
X34569759Y13179637D01*
X34337241Y13335000D01*
X34569759Y13490363D01*
X34769637Y13690241D01*
X34926680Y13925273D01*
X35034853Y14186426D01*
X35090000Y14463665D01*
X35090000Y14746335D01*
X35034853Y15023574D01*
X34926680Y15284727D01*
X34769637Y15519759D01*
X34569759Y15719637D01*
X34337241Y15875000D01*
X34569759Y16030363D01*
X34769637Y16230241D01*
X34926680Y16465273D01*
X35034853Y16726426D01*
X35090000Y17003665D01*
X35090000Y17286335D01*
X35034853Y17563574D01*
X34986628Y17680000D01*
X56865595Y17680000D01*
X56901700Y17676444D01*
X56937805Y17680000D01*
X57045785Y17690635D01*
X57184333Y17732663D01*
X57312020Y17800913D01*
X57423938Y17892762D01*
X57446959Y17920813D01*
X68883426Y29357279D01*
X69083080Y29208359D01*
X69345901Y29083175D01*
X69493110Y29038524D01*
X69723000Y29159845D01*
X69723000Y30353000D01*
X69703000Y30353000D01*
X69703000Y30607000D01*
X69723000Y30607000D01*
X69723000Y30627000D01*
X69977000Y30627000D01*
X69977000Y30607000D01*
X69997000Y30607000D01*
X69997000Y30353000D01*
X69977000Y30353000D01*
X69977000Y29159845D01*
X70206890Y29038524D01*
X70354099Y29083175D01*
X70616920Y29208359D01*
X70850269Y29382412D01*
X71045178Y29598645D01*
X71114805Y29715534D01*
X71236525Y29533368D01*
X71443368Y29326525D01*
X71686589Y29164010D01*
X71956842Y29052068D01*
X72243740Y28995000D01*
X72536260Y28995000D01*
X72823158Y29052068D01*
X73093411Y29164010D01*
X73336632Y29326525D01*
X73543475Y29533368D01*
X73660000Y29707760D01*
X73776525Y29533368D01*
X73983368Y29326525D01*
X74226589Y29164010D01*
X74496842Y29052068D01*
X74783740Y28995000D01*
X75076260Y28995000D01*
X75363158Y29052068D01*
X75633411Y29164010D01*
X75876632Y29326525D01*
X76008487Y29458380D01*
X76030498Y29385820D01*
X76089463Y29275506D01*
X76168815Y29178815D01*
X76265506Y29099463D01*
X76375820Y29040498D01*
X76495518Y29004188D01*
X76620000Y28991928D01*
X78320000Y28991928D01*
X78444482Y29004188D01*
X78564180Y29040498D01*
X78674494Y29099463D01*
X78771185Y29178815D01*
X78850537Y29275506D01*
X78909502Y29385820D01*
X78945812Y29505518D01*
X78958072Y29630000D01*
X78958072Y31330000D01*
X78945812Y31454482D01*
X78909502Y31574180D01*
X78850537Y31684494D01*
X78771185Y31781185D01*
X78674494Y31860537D01*
X78564180Y31919502D01*
X78444482Y31955812D01*
X78320000Y31968072D01*
X76620000Y31968072D01*
X76495518Y31955812D01*
X76375820Y31919502D01*
X76265506Y31860537D01*
X76168815Y31781185D01*
X76089463Y31684494D01*
X76030498Y31574180D01*
X76008487Y31501620D01*
X75876632Y31633475D01*
X75633411Y31795990D01*
X75363158Y31907932D01*
X75076260Y31965000D01*
X74783740Y31965000D01*
X74496842Y31907932D01*
X74226589Y31795990D01*
X73983368Y31633475D01*
X73776525Y31426632D01*
X73660000Y31252240D01*
X73543475Y31426632D01*
X73336632Y31633475D01*
X73093411Y31795990D01*
X72823158Y31907932D01*
X72536260Y31965000D01*
X72243740Y31965000D01*
X71956842Y31907932D01*
X71686589Y31795990D01*
X71443368Y31633475D01*
X71236525Y31426632D01*
X71114805Y31244466D01*
X71045178Y31361355D01*
X70850269Y31577588D01*
X70616920Y31751641D01*
X70354099Y31876825D01*
X70206890Y31921476D01*
X69977002Y31800156D01*
X69977002Y31965000D01*
X69954047Y31965000D01*
X70238497Y32249450D01*
X70266537Y32272462D01*
X70289550Y32300503D01*
X70289553Y32300506D01*
X70342810Y32365400D01*
X70358387Y32384380D01*
X70426637Y32512067D01*
X70468665Y32650615D01*
X70479300Y32758595D01*
X70479300Y32758596D01*
X70482856Y32794700D01*
X70479300Y32830805D01*
X70479300Y39806034D01*
X70686842Y39720068D01*
X70973740Y39663000D01*
X71266260Y39663000D01*
X71553158Y39720068D01*
X71823411Y39832010D01*
X72066632Y39994525D01*
X72198487Y40126380D01*
X72220498Y40053820D01*
X72279463Y39943506D01*
X72358815Y39846815D01*
X72455506Y39767463D01*
X72565820Y39708498D01*
X72685518Y39672188D01*
X72810000Y39659928D01*
X73374250Y39663000D01*
X73533000Y39821750D01*
X73533000Y41021000D01*
X73787000Y41021000D01*
X73787000Y39821750D01*
X73945750Y39663000D01*
X74510000Y39659928D01*
X74634482Y39672188D01*
X74754180Y39708498D01*
X74864494Y39767463D01*
X74961185Y39846815D01*
X75040537Y39943506D01*
X75099502Y40053820D01*
X75135812Y40173518D01*
X75148072Y40298000D01*
X75145000Y40862250D01*
X74986250Y41021000D01*
X73787000Y41021000D01*
X73533000Y41021000D01*
X73513000Y41021000D01*
X73513000Y41275000D01*
X73533000Y41275000D01*
X73533000Y42474250D01*
X73787000Y42474250D01*
X73787000Y41275000D01*
X74986250Y41275000D01*
X75145000Y41433750D01*
X75148072Y41998000D01*
X75135812Y42122482D01*
X75099502Y42242180D01*
X75040537Y42352494D01*
X74961185Y42449185D01*
X74864494Y42528537D01*
X74754180Y42587502D01*
X74634482Y42623812D01*
X74510000Y42636072D01*
X73945750Y42633000D01*
X73787000Y42474250D01*
X73533000Y42474250D01*
X73374250Y42633000D01*
X72810000Y42636072D01*
X72685518Y42623812D01*
X72565820Y42587502D01*
X72455506Y42528537D01*
X72358815Y42449185D01*
X72279463Y42352494D01*
X72220498Y42242180D01*
X72198487Y42169620D01*
X72135337Y42232770D01*
X72579133Y42676564D01*
X72610991Y42702709D01*
X72715336Y42829854D01*
X72792872Y42974913D01*
X72840618Y43132311D01*
X72852700Y43254981D01*
X72852700Y43254982D01*
X72856740Y43296000D01*
X72852700Y43337018D01*
X72852700Y72325000D01*
X77633682Y72325000D01*
X77674700Y72320960D01*
X77715718Y72325000D01*
X77715719Y72325000D01*
X77838389Y72337082D01*
X77995787Y72384828D01*
X78140846Y72462364D01*
X78267991Y72566709D01*
X78294146Y72598579D01*
X80020056Y74324488D01*
X80028815Y74313815D01*
X80125506Y74234463D01*
X80235820Y74175498D01*
X80355518Y74139188D01*
X80480000Y74126928D01*
X82080000Y74126928D01*
X82204482Y74139188D01*
X82324180Y74175498D01*
X82434494Y74234463D01*
X82531185Y74313815D01*
X82610537Y74410506D01*
X82669502Y74520820D01*
X82685117Y74572298D01*
X82966903Y74572298D01*
X83038486Y74328329D01*
X83293996Y74207429D01*
X83568184Y74138700D01*
X83850512Y74124783D01*
X84130130Y74166213D01*
X84396292Y74261397D01*
X84521514Y74328329D01*
X84593097Y74572298D01*
X83780000Y75385395D01*
X82966903Y74572298D01*
X82685117Y74572298D01*
X82705812Y74640518D01*
X82718072Y74765000D01*
X82718072Y74772215D01*
X82787298Y74751903D01*
X83600395Y75565000D01*
X83959605Y75565000D01*
X84772702Y74751903D01*
X85016671Y74823486D01*
X85137571Y75078996D01*
X85206300Y75353184D01*
X85220217Y75635512D01*
X85178787Y75915130D01*
X85083603Y76181292D01*
X85016671Y76306514D01*
X84772702Y76378097D01*
X83959605Y75565000D01*
X83600395Y75565000D01*
X83586253Y75579142D01*
X83765858Y75758747D01*
X83780000Y75744605D01*
X84593097Y76557702D01*
X84521514Y76801671D01*
X84266004Y76922571D01*
X83991816Y76991300D01*
X83892262Y76996207D01*
X84116203Y77220128D01*
X92765000Y77220128D01*
X92765000Y76779872D01*
X92850890Y76348075D01*
X93019369Y75941331D01*
X93263962Y75575271D01*
X93575271Y75263962D01*
X93941331Y75019369D01*
X94348075Y74850890D01*
X94779872Y74765000D01*
X95220128Y74765000D01*
X95651925Y74850890D01*
X96058669Y75019369D01*
X96424729Y75263962D01*
X96736038Y75575271D01*
X96980631Y75941331D01*
X97149110Y76348075D01*
X97235000Y76779872D01*
X97235000Y77220128D01*
X97149110Y77651925D01*
X96980631Y78058669D01*
X96736038Y78424729D01*
X96424729Y78736038D01*
X96058669Y78980631D01*
X95651925Y79149110D01*
X95220128Y79235000D01*
X94779872Y79235000D01*
X94348075Y79149110D01*
X93941331Y78980631D01*
X93575271Y78736038D01*
X93263962Y78424729D01*
X93019369Y78058669D01*
X92850890Y77651925D01*
X92765000Y77220128D01*
X84116203Y77220128D01*
X87239445Y80343079D01*
X87239486Y80343113D01*
X87239852Y80343479D01*
X87240242Y80343800D01*
X87268271Y80371902D01*
X87297412Y80401041D01*
X87297451Y80401089D01*
X87432047Y80535710D01*
X87461291Y80559709D01*
X87485336Y80589008D01*
X89969458Y83073584D01*
X90001291Y83099709D01*
X90027464Y83131601D01*
X90027490Y83131627D01*
X90053052Y83162781D01*
X90105636Y83226854D01*
X90105654Y83226887D01*
X90105679Y83226918D01*
X90144092Y83298800D01*
X90183172Y83371913D01*
X90183184Y83371952D01*
X90183201Y83371984D01*
X90183509Y83373000D01*
X99289001Y83373000D01*
X99289000Y660000D01*
X660000Y660000D01*
X660000Y5220128D01*
X2765000Y5220128D01*
X2765000Y4779872D01*
X2850890Y4348075D01*
X3019369Y3941331D01*
X3263962Y3575271D01*
X3575271Y3263962D01*
X3941331Y3019369D01*
X4348075Y2850890D01*
X4779872Y2765000D01*
X5220128Y2765000D01*
X5651925Y2850890D01*
X6058669Y3019369D01*
X6424729Y3263962D01*
X6736038Y3575271D01*
X6980631Y3941331D01*
X7149110Y4348075D01*
X7196502Y4586335D01*
X16980000Y4586335D01*
X16980000Y4303665D01*
X17035147Y4026426D01*
X17143320Y3765273D01*
X17300363Y3530241D01*
X17500241Y3330363D01*
X17735273Y3173320D01*
X17996426Y3065147D01*
X18273665Y3010000D01*
X18556335Y3010000D01*
X18833574Y3065147D01*
X19094727Y3173320D01*
X19329759Y3330363D01*
X19529637Y3530241D01*
X19686680Y3765273D01*
X19794853Y4026426D01*
X19850000Y4303665D01*
X19850000Y4586335D01*
X19794853Y4863574D01*
X19686680Y5124727D01*
X19529637Y5359759D01*
X19329759Y5559637D01*
X19094727Y5716680D01*
X19084135Y5721067D01*
X19270131Y5832615D01*
X19478519Y6021586D01*
X19646037Y6247580D01*
X19766246Y6501913D01*
X19806904Y6635961D01*
X19684915Y6858000D01*
X18542000Y6858000D01*
X18542000Y6838000D01*
X18288000Y6838000D01*
X18288000Y6858000D01*
X17145085Y6858000D01*
X17023096Y6635961D01*
X17063754Y6501913D01*
X17183963Y6247580D01*
X17351481Y6021586D01*
X17559869Y5832615D01*
X17745865Y5721067D01*
X17735273Y5716680D01*
X17500241Y5559637D01*
X17300363Y5359759D01*
X17143320Y5124727D01*
X17035147Y4863574D01*
X16980000Y4586335D01*
X7196502Y4586335D01*
X7235000Y4779872D01*
X7235000Y5220128D01*
X7149110Y5651925D01*
X6980631Y6058669D01*
X6736038Y6424729D01*
X6424729Y6736038D01*
X6058669Y6980631D01*
X5651925Y7149110D01*
X5220128Y7235000D01*
X4779872Y7235000D01*
X4348075Y7149110D01*
X3941331Y6980631D01*
X3575271Y6736038D01*
X3263962Y6424729D01*
X3019369Y6058669D01*
X2850890Y5651925D01*
X2765000Y5220128D01*
X660000Y5220128D01*
X660000Y58869702D01*
X17245903Y58869702D01*
X18059000Y58056605D01*
X18872097Y58869702D01*
X18800514Y59113671D01*
X18545004Y59234571D01*
X18270816Y59303300D01*
X17988488Y59317217D01*
X17708870Y59275787D01*
X17442708Y59180603D01*
X17317486Y59113671D01*
X17245903Y58869702D01*
X660000Y58869702D01*
X660000Y77220128D01*
X2765000Y77220128D01*
X2765000Y76779872D01*
X2850890Y76348075D01*
X3019369Y75941331D01*
X3263962Y75575271D01*
X3575271Y75263962D01*
X3941331Y75019369D01*
X4348075Y74850890D01*
X4779872Y74765000D01*
X5220128Y74765000D01*
X5651925Y74850890D01*
X6058669Y75019369D01*
X6424729Y75263962D01*
X6736038Y75575271D01*
X6980631Y75941331D01*
X7149110Y76348075D01*
X7235000Y76779872D01*
X7235000Y77220128D01*
X7149110Y77651925D01*
X6980631Y78058669D01*
X6971056Y78073000D01*
X20917000Y78073000D01*
X20917000Y77673000D01*
X20969350Y77395486D01*
X21074834Y77133517D01*
X21229399Y76897161D01*
X21427105Y76695500D01*
X21660354Y76536285D01*
X21920182Y76425633D01*
X22002961Y76408096D01*
X22225000Y76530085D01*
X22225000Y78073000D01*
X20917000Y78073000D01*
X6971056Y78073000D01*
X6736038Y78424729D01*
X6433767Y78727000D01*
X20917000Y78727000D01*
X20917000Y78327000D01*
X22225000Y78327000D01*
X22225000Y79869915D01*
X22002961Y79991904D01*
X21920182Y79974367D01*
X21660354Y79863715D01*
X21427105Y79704500D01*
X21229399Y79502839D01*
X21074834Y79266483D01*
X20969350Y79004514D01*
X20917000Y78727000D01*
X6433767Y78727000D01*
X6424729Y78736038D01*
X6058669Y78980631D01*
X5651925Y79149110D01*
X5220128Y79235000D01*
X4779872Y79235000D01*
X4348075Y79149110D01*
X3941331Y78980631D01*
X3575271Y78736038D01*
X3263962Y78424729D01*
X3019369Y78058669D01*
X2850890Y77651925D01*
X2765000Y77220128D01*
X660000Y77220128D01*
X660000Y83373000D01*
X43092045Y83373000D01*
X43080823Y83356205D01*
G04 #@! TA.AperFunction,Conductor*
D22*
G36*
X43080823Y83356205D02*
G01*
X43014110Y83195145D01*
X42980100Y83024165D01*
X42980100Y82849835D01*
X43014110Y82678855D01*
X43080823Y82517795D01*
X43107012Y82478600D01*
X36647294Y82478600D01*
X36611199Y82482155D01*
X36575104Y82478600D01*
X36575095Y82478600D01*
X36467115Y82467965D01*
X36328567Y82425937D01*
X36200880Y82357687D01*
X36088962Y82265838D01*
X36065946Y82237793D01*
X33484300Y79656146D01*
X33436895Y79704500D01*
X33203646Y79863715D01*
X32943818Y79974367D01*
X32861039Y79991904D01*
X32639000Y79869915D01*
X32639000Y78327000D01*
X32659000Y78327000D01*
X32659000Y78073000D01*
X32639000Y78073000D01*
X32639000Y78053000D01*
X32385000Y78053000D01*
X32385000Y78073000D01*
X32365000Y78073000D01*
X32365000Y78327000D01*
X32385000Y78327000D01*
X32385000Y79869915D01*
X32162961Y79991904D01*
X32080182Y79974367D01*
X31820354Y79863715D01*
X31587105Y79704500D01*
X31389399Y79502839D01*
X31239265Y79273259D01*
X31170932Y79401101D01*
X30991608Y79619608D01*
X30773101Y79798932D01*
X30523808Y79932182D01*
X30253309Y80014236D01*
X29972000Y80041943D01*
X29690692Y80014236D01*
X29420193Y79932182D01*
X29170900Y79798932D01*
X28952393Y79619608D01*
X28773068Y79401101D01*
X28704735Y79273259D01*
X28554601Y79502839D01*
X28356895Y79704500D01*
X28123646Y79863715D01*
X27863818Y79974367D01*
X27781039Y79991904D01*
X27559000Y79869915D01*
X27559000Y78327000D01*
X27579000Y78327000D01*
X27579000Y78073000D01*
X27559000Y78073000D01*
X27559000Y78053000D01*
X27305000Y78053000D01*
X27305000Y78073000D01*
X27285000Y78073000D01*
X27285000Y78327000D01*
X27305000Y78327000D01*
X27305000Y79869915D01*
X27082961Y79991904D01*
X27000182Y79974367D01*
X26740354Y79863715D01*
X26507105Y79704500D01*
X26309399Y79502839D01*
X26159265Y79273259D01*
X26090932Y79401101D01*
X25911608Y79619608D01*
X25693101Y79798932D01*
X25443808Y79932182D01*
X25173309Y80014236D01*
X24892000Y80041943D01*
X24610692Y80014236D01*
X24340193Y79932182D01*
X24090900Y79798932D01*
X23872393Y79619608D01*
X23693068Y79401101D01*
X23624735Y79273259D01*
X23474601Y79502839D01*
X23276895Y79704500D01*
X23043646Y79863715D01*
X22783818Y79974367D01*
X22701039Y79991904D01*
X22479000Y79869915D01*
X22479000Y78327000D01*
X22499000Y78327000D01*
X22499000Y78073000D01*
X22479000Y78073000D01*
X22479000Y76530085D01*
X22701039Y76408096D01*
X22783818Y76425633D01*
X23043646Y76536285D01*
X23276895Y76695500D01*
X23474601Y76897161D01*
X23624735Y77126742D01*
X23693068Y76998900D01*
X23872392Y76780393D01*
X24090899Y76601068D01*
X24340192Y76467818D01*
X24610691Y76385764D01*
X24892000Y76358057D01*
X25157012Y76384159D01*
X25077662Y76319038D01*
X25054646Y76290993D01*
X20702708Y71939054D01*
X20674662Y71916037D01*
X20582813Y71804119D01*
X20514563Y71676432D01*
X20487588Y71587507D01*
X20472535Y71537885D01*
X20458344Y71393800D01*
X20461900Y71357700D01*
X20461901Y69808415D01*
X20458344Y69772300D01*
X20472535Y69628215D01*
X20493178Y69560167D01*
X20514564Y69489667D01*
X20582814Y69361980D01*
X20674663Y69250062D01*
X20702708Y69227046D01*
X23788946Y66140807D01*
X23811962Y66112762D01*
X23923880Y66020913D01*
X24051567Y65952663D01*
X24170103Y65916706D01*
X23999393Y65776608D01*
X23820068Y65558101D01*
X23749000Y65425142D01*
X23677932Y65558101D01*
X23498608Y65776608D01*
X23280101Y65955932D01*
X23030808Y66089182D01*
X22760309Y66171236D01*
X22479000Y66198943D01*
X22197692Y66171236D01*
X21927193Y66089182D01*
X21677900Y65955932D01*
X21459393Y65776608D01*
X21280068Y65558101D01*
X21146818Y65308808D01*
X21064764Y65038309D01*
X21044000Y64827492D01*
X21044000Y63886509D01*
X21064764Y63675692D01*
X21146818Y63405193D01*
X21280068Y63155900D01*
X21459392Y62937393D01*
X21677899Y62758068D01*
X21927192Y62624818D01*
X22197691Y62542764D01*
X22479000Y62515057D01*
X22760308Y62542764D01*
X23030807Y62624818D01*
X23280100Y62758068D01*
X23498607Y62937392D01*
X23677932Y63155899D01*
X23749000Y63288858D01*
X23820068Y63155900D01*
X23999392Y62937393D01*
X24217899Y62758068D01*
X24467192Y62624818D01*
X24737691Y62542764D01*
X25019000Y62515057D01*
X25300308Y62542764D01*
X25570807Y62624818D01*
X25820100Y62758068D01*
X26038607Y62937392D01*
X26217932Y63155899D01*
X26289000Y63288858D01*
X26360068Y63155900D01*
X26539392Y62937393D01*
X26757899Y62758068D01*
X27007192Y62624818D01*
X27277691Y62542764D01*
X27559000Y62515057D01*
X27840308Y62542764D01*
X28110807Y62624818D01*
X28360100Y62758068D01*
X28578607Y62937392D01*
X28757932Y63155899D01*
X28829000Y63288858D01*
X28900068Y63155900D01*
X29079392Y62937393D01*
X29297899Y62758068D01*
X29547192Y62624818D01*
X29817691Y62542764D01*
X30099000Y62515057D01*
X30380308Y62542764D01*
X30650807Y62624818D01*
X30900100Y62758068D01*
X31118607Y62937392D01*
X31297932Y63155899D01*
X31369000Y63288858D01*
X31440068Y63155900D01*
X31619392Y62937393D01*
X31652816Y62909963D01*
X26104854Y57362000D01*
X19402851Y57362000D01*
X19416571Y57390996D01*
X19485300Y57665184D01*
X19499217Y57947512D01*
X19457787Y58227130D01*
X19362603Y58493292D01*
X19295671Y58618514D01*
X19051702Y58690097D01*
X18238605Y57877000D01*
X18252748Y57862857D01*
X18073143Y57683252D01*
X18059000Y57697395D01*
X18044858Y57683252D01*
X17865253Y57862857D01*
X17879395Y57877000D01*
X17066298Y58690097D01*
X16822329Y58618514D01*
X16701429Y58363004D01*
X16632700Y58088816D01*
X16618783Y57806488D01*
X16660213Y57526870D01*
X16755397Y57260708D01*
X16822329Y57135486D01*
X17066296Y57063903D01*
X16950023Y56947630D01*
X16987403Y56910250D01*
X15940708Y55863554D01*
X15912662Y55840537D01*
X15820813Y55728619D01*
X15752563Y55600932D01*
X15740006Y55559537D01*
X15710535Y55462385D01*
X15696344Y55318300D01*
X15699900Y55282195D01*
X15699901Y22664015D01*
X15696344Y22627900D01*
X15710535Y22483815D01*
X15741918Y22380363D01*
X15752564Y22345267D01*
X15820814Y22217580D01*
X15912663Y22105662D01*
X15940708Y22082646D01*
X17361979Y20661375D01*
X17300363Y20599759D01*
X17143320Y20364727D01*
X17035147Y20103574D01*
X16980000Y19826335D01*
X16980000Y19543665D01*
X17035147Y19266426D01*
X17143320Y19005273D01*
X17300363Y18770241D01*
X17500241Y18570363D01*
X17732759Y18415000D01*
X17500241Y18259637D01*
X17300363Y18059759D01*
X17143320Y17824727D01*
X17035147Y17563574D01*
X16980000Y17286335D01*
X16980000Y17003665D01*
X17035147Y16726426D01*
X17143320Y16465273D01*
X17300363Y16230241D01*
X17500241Y16030363D01*
X17732759Y15875000D01*
X17500241Y15719637D01*
X17300363Y15519759D01*
X17143320Y15284727D01*
X17035147Y15023574D01*
X16980000Y14746335D01*
X16980000Y14463665D01*
X17035147Y14186426D01*
X17143320Y13925273D01*
X17300363Y13690241D01*
X17500241Y13490363D01*
X17732759Y13335000D01*
X17500241Y13179637D01*
X17300363Y12979759D01*
X17143320Y12744727D01*
X17035147Y12483574D01*
X16980000Y12206335D01*
X16980000Y11923665D01*
X17035147Y11646426D01*
X17143320Y11385273D01*
X17300363Y11150241D01*
X17500241Y10950363D01*
X17732759Y10795000D01*
X17500241Y10639637D01*
X17300363Y10439759D01*
X17143320Y10204727D01*
X17035147Y9943574D01*
X16980000Y9666335D01*
X16980000Y9383665D01*
X17035147Y9106426D01*
X17143320Y8845273D01*
X17300363Y8610241D01*
X17500241Y8410363D01*
X17735273Y8253320D01*
X17745865Y8248933D01*
X17559869Y8137385D01*
X17351481Y7948414D01*
X17183963Y7722420D01*
X17063754Y7468087D01*
X17023096Y7334039D01*
X17145085Y7112000D01*
X18288000Y7112000D01*
X18288000Y7132000D01*
X18542000Y7132000D01*
X18542000Y7112000D01*
X19684915Y7112000D01*
X19806904Y7334039D01*
X19766246Y7468087D01*
X19646037Y7722420D01*
X19478519Y7948414D01*
X19270131Y8137385D01*
X19084135Y8248933D01*
X19094727Y8253320D01*
X19329759Y8410363D01*
X19529637Y8610241D01*
X19686680Y8845273D01*
X19794853Y9106426D01*
X19850000Y9383665D01*
X19850000Y9666335D01*
X19794853Y9943574D01*
X19686680Y10204727D01*
X19529637Y10439759D01*
X19329759Y10639637D01*
X19097241Y10795000D01*
X19329759Y10950363D01*
X19529637Y11150241D01*
X19686680Y11385273D01*
X19794853Y11646426D01*
X19850000Y11923665D01*
X19850000Y12206335D01*
X19794853Y12483574D01*
X19789646Y12496144D01*
X19840363Y12420241D01*
X20040241Y12220363D01*
X20275273Y12063320D01*
X20536426Y11955147D01*
X20813665Y11900000D01*
X21096335Y11900000D01*
X21373574Y11955147D01*
X21634727Y12063320D01*
X21869759Y12220363D01*
X22069637Y12420241D01*
X22226680Y12655273D01*
X22334853Y12916426D01*
X22390000Y13193665D01*
X22390000Y13476335D01*
X22334853Y13753574D01*
X22286628Y13870000D01*
X27664895Y13870000D01*
X27701000Y13866444D01*
X27737105Y13870000D01*
X27845085Y13880635D01*
X27983633Y13922663D01*
X28111320Y13990913D01*
X28223238Y14082762D01*
X28246259Y14110813D01*
X31815447Y17680000D01*
X32323372Y17680000D01*
X32275147Y17563574D01*
X32220000Y17286335D01*
X32220000Y17003665D01*
X32275147Y16726426D01*
X32383320Y16465273D01*
X32540363Y16230241D01*
X32740241Y16030363D01*
X32972759Y15875000D01*
X32740241Y15719637D01*
X32540363Y15519759D01*
X32383320Y15284727D01*
X32275147Y15023574D01*
X32220000Y14746335D01*
X32220000Y14463665D01*
X32275147Y14186426D01*
X32383320Y13925273D01*
X32540363Y13690241D01*
X32740241Y13490363D01*
X32972759Y13335000D01*
X32740241Y13179637D01*
X32540363Y12979759D01*
X32383320Y12744727D01*
X32275147Y12483574D01*
X32220000Y12206335D01*
X32220000Y11923665D01*
X32275147Y11646426D01*
X32383320Y11385273D01*
X32540363Y11150241D01*
X32740241Y10950363D01*
X32972759Y10795000D01*
X32740241Y10639637D01*
X32540363Y10439759D01*
X32383320Y10204727D01*
X32275147Y9943574D01*
X32220000Y9666335D01*
X32220000Y9383665D01*
X32275147Y9106426D01*
X32383320Y8845273D01*
X32540363Y8610241D01*
X32740241Y8410363D01*
X32972759Y8255000D01*
X32740241Y8099637D01*
X32540363Y7899759D01*
X32383320Y7664727D01*
X32275147Y7403574D01*
X32220000Y7126335D01*
X32220000Y6843665D01*
X32275147Y6566426D01*
X32383320Y6305273D01*
X32540363Y6070241D01*
X32738961Y5871643D01*
X32730518Y5870812D01*
X32610820Y5834502D01*
X32500506Y5775537D01*
X32403815Y5696185D01*
X32324463Y5599494D01*
X32265498Y5489180D01*
X32229188Y5369482D01*
X32216928Y5245000D01*
X32216928Y3645000D01*
X32229188Y3520518D01*
X32265498Y3400820D01*
X32324463Y3290506D01*
X32403815Y3193815D01*
X32500506Y3114463D01*
X32610820Y3055498D01*
X32730518Y3019188D01*
X32855000Y3006928D01*
X34455000Y3006928D01*
X34579482Y3019188D01*
X34699180Y3055498D01*
X34809494Y3114463D01*
X34906185Y3193815D01*
X34985537Y3290506D01*
X35044502Y3400820D01*
X35080812Y3520518D01*
X35093072Y3645000D01*
X35093072Y5226260D01*
X55665000Y5226260D01*
X55665000Y4933740D01*
X55722068Y4646842D01*
X55834010Y4376589D01*
X55996525Y4133368D01*
X56203368Y3926525D01*
X56377760Y3810000D01*
X56203368Y3693475D01*
X55996525Y3486632D01*
X55834010Y3243411D01*
X55722068Y2973158D01*
X55665000Y2686260D01*
X55665000Y2393740D01*
X55722068Y2106842D01*
X55834010Y1836589D01*
X55996525Y1593368D01*
X56203368Y1386525D01*
X56446589Y1224010D01*
X56716842Y1112068D01*
X57003740Y1055000D01*
X57296260Y1055000D01*
X57583158Y1112068D01*
X57853411Y1224010D01*
X58096632Y1386525D01*
X58303475Y1593368D01*
X58465990Y1836589D01*
X58577932Y2106842D01*
X58635000Y2393740D01*
X58635000Y2686260D01*
X58577932Y2973158D01*
X58465990Y3243411D01*
X58303475Y3486632D01*
X58096632Y3693475D01*
X57922240Y3810000D01*
X58096632Y3926525D01*
X58303475Y4133368D01*
X58465990Y4376589D01*
X58577932Y4646842D01*
X58635000Y4933740D01*
X58635000Y5226260D01*
X75985000Y5226260D01*
X75985000Y4933740D01*
X76042068Y4646842D01*
X76154010Y4376589D01*
X76316525Y4133368D01*
X76523368Y3926525D01*
X76697760Y3810000D01*
X76523368Y3693475D01*
X76316525Y3486632D01*
X76154010Y3243411D01*
X76042068Y2973158D01*
X75985000Y2686260D01*
X75985000Y2393740D01*
X76042068Y2106842D01*
X76154010Y1836589D01*
X76316525Y1593368D01*
X76523368Y1386525D01*
X76766589Y1224010D01*
X77036842Y1112068D01*
X77323740Y1055000D01*
X77616260Y1055000D01*
X77903158Y1112068D01*
X78173411Y1224010D01*
X78416632Y1386525D01*
X78623475Y1593368D01*
X78785990Y1836589D01*
X78897932Y2106842D01*
X78955000Y2393740D01*
X78955000Y2686260D01*
X78897932Y2973158D01*
X78785990Y3243411D01*
X78623475Y3486632D01*
X78416632Y3693475D01*
X78242240Y3810000D01*
X78416632Y3926525D01*
X78623475Y4133368D01*
X78785990Y4376589D01*
X78897932Y4646842D01*
X78955000Y4933740D01*
X78955000Y5220128D01*
X92765000Y5220128D01*
X92765000Y4779872D01*
X92850890Y4348075D01*
X93019369Y3941331D01*
X93263962Y3575271D01*
X93575271Y3263962D01*
X93941331Y3019369D01*
X94348075Y2850890D01*
X94779872Y2765000D01*
X95220128Y2765000D01*
X95651925Y2850890D01*
X96058669Y3019369D01*
X96424729Y3263962D01*
X96736038Y3575271D01*
X96980631Y3941331D01*
X97149110Y4348075D01*
X97235000Y4779872D01*
X97235000Y5220128D01*
X97149110Y5651925D01*
X96980631Y6058669D01*
X96736038Y6424729D01*
X96424729Y6736038D01*
X96058669Y6980631D01*
X95651925Y7149110D01*
X95220128Y7235000D01*
X94779872Y7235000D01*
X94348075Y7149110D01*
X93941331Y6980631D01*
X93575271Y6736038D01*
X93263962Y6424729D01*
X93019369Y6058669D01*
X92850890Y5651925D01*
X92765000Y5220128D01*
X78955000Y5220128D01*
X78955000Y5226260D01*
X78897932Y5513158D01*
X78785990Y5783411D01*
X78623475Y6026632D01*
X78416632Y6233475D01*
X78173411Y6395990D01*
X77903158Y6507932D01*
X77616260Y6565000D01*
X77323740Y6565000D01*
X77036842Y6507932D01*
X76766589Y6395990D01*
X76523368Y6233475D01*
X76316525Y6026632D01*
X76154010Y5783411D01*
X76042068Y5513158D01*
X75985000Y5226260D01*
X58635000Y5226260D01*
X58577932Y5513158D01*
X58465990Y5783411D01*
X58303475Y6026632D01*
X58096632Y6233475D01*
X57853411Y6395990D01*
X57583158Y6507932D01*
X57296260Y6565000D01*
X57003740Y6565000D01*
X56716842Y6507932D01*
X56446589Y6395990D01*
X56203368Y6233475D01*
X55996525Y6026632D01*
X55834010Y5783411D01*
X55722068Y5513158D01*
X55665000Y5226260D01*
X35093072Y5226260D01*
X35093072Y5245000D01*
X35080812Y5369482D01*
X35044502Y5489180D01*
X34985537Y5599494D01*
X34906185Y5696185D01*
X34809494Y5775537D01*
X34699180Y5834502D01*
X34579482Y5870812D01*
X34571039Y5871643D01*
X34769637Y6070241D01*
X34926680Y6305273D01*
X35034853Y6566426D01*
X35090000Y6843665D01*
X35090000Y7126335D01*
X35034853Y7403574D01*
X34926680Y7664727D01*
X34769637Y7899759D01*
X34569759Y8099637D01*
X34337241Y8255000D01*
X34569759Y8410363D01*
X34769637Y8610241D01*
X34926680Y8845273D01*
X35034853Y9106426D01*
X35090000Y9383665D01*
X35090000Y9666335D01*
X35034853Y9943574D01*
X34926680Y10204727D01*
X34769637Y10439759D01*
X34569759Y10639637D01*
X34337241Y10795000D01*
X34569759Y10950363D01*
X34769637Y11150241D01*
X34926680Y11385273D01*
X35034853Y11646426D01*
X35090000Y11923665D01*
X35090000Y12206335D01*
X35034853Y12483574D01*
X34926680Y12744727D01*
X34769637Y12979759D01*
X34569759Y13179637D01*
X34337241Y13335000D01*
X34569759Y13490363D01*
X34769637Y13690241D01*
X34926680Y13925273D01*
X35034853Y14186426D01*
X35090000Y14463665D01*
X35090000Y14746335D01*
X35034853Y15023574D01*
X34926680Y15284727D01*
X34769637Y15519759D01*
X34569759Y15719637D01*
X34337241Y15875000D01*
X34569759Y16030363D01*
X34769637Y16230241D01*
X34926680Y16465273D01*
X35034853Y16726426D01*
X35090000Y17003665D01*
X35090000Y17286335D01*
X35034853Y17563574D01*
X34986628Y17680000D01*
X56865595Y17680000D01*
X56901700Y17676444D01*
X56937805Y17680000D01*
X57045785Y17690635D01*
X57184333Y17732663D01*
X57312020Y17800913D01*
X57423938Y17892762D01*
X57446959Y17920813D01*
X68883426Y29357279D01*
X69083080Y29208359D01*
X69345901Y29083175D01*
X69493110Y29038524D01*
X69723000Y29159845D01*
X69723000Y30353000D01*
X69703000Y30353000D01*
X69703000Y30607000D01*
X69723000Y30607000D01*
X69723000Y30627000D01*
X69977000Y30627000D01*
X69977000Y30607000D01*
X69997000Y30607000D01*
X69997000Y30353000D01*
X69977000Y30353000D01*
X69977000Y29159845D01*
X70206890Y29038524D01*
X70354099Y29083175D01*
X70616920Y29208359D01*
X70850269Y29382412D01*
X71045178Y29598645D01*
X71114805Y29715534D01*
X71236525Y29533368D01*
X71443368Y29326525D01*
X71686589Y29164010D01*
X71956842Y29052068D01*
X72243740Y28995000D01*
X72536260Y28995000D01*
X72823158Y29052068D01*
X73093411Y29164010D01*
X73336632Y29326525D01*
X73543475Y29533368D01*
X73660000Y29707760D01*
X73776525Y29533368D01*
X73983368Y29326525D01*
X74226589Y29164010D01*
X74496842Y29052068D01*
X74783740Y28995000D01*
X75076260Y28995000D01*
X75363158Y29052068D01*
X75633411Y29164010D01*
X75876632Y29326525D01*
X76008487Y29458380D01*
X76030498Y29385820D01*
X76089463Y29275506D01*
X76168815Y29178815D01*
X76265506Y29099463D01*
X76375820Y29040498D01*
X76495518Y29004188D01*
X76620000Y28991928D01*
X78320000Y28991928D01*
X78444482Y29004188D01*
X78564180Y29040498D01*
X78674494Y29099463D01*
X78771185Y29178815D01*
X78850537Y29275506D01*
X78909502Y29385820D01*
X78945812Y29505518D01*
X78958072Y29630000D01*
X78958072Y31330000D01*
X78945812Y31454482D01*
X78909502Y31574180D01*
X78850537Y31684494D01*
X78771185Y31781185D01*
X78674494Y31860537D01*
X78564180Y31919502D01*
X78444482Y31955812D01*
X78320000Y31968072D01*
X76620000Y31968072D01*
X76495518Y31955812D01*
X76375820Y31919502D01*
X76265506Y31860537D01*
X76168815Y31781185D01*
X76089463Y31684494D01*
X76030498Y31574180D01*
X76008487Y31501620D01*
X75876632Y31633475D01*
X75633411Y31795990D01*
X75363158Y31907932D01*
X75076260Y31965000D01*
X74783740Y31965000D01*
X74496842Y31907932D01*
X74226589Y31795990D01*
X73983368Y31633475D01*
X73776525Y31426632D01*
X73660000Y31252240D01*
X73543475Y31426632D01*
X73336632Y31633475D01*
X73093411Y31795990D01*
X72823158Y31907932D01*
X72536260Y31965000D01*
X72243740Y31965000D01*
X71956842Y31907932D01*
X71686589Y31795990D01*
X71443368Y31633475D01*
X71236525Y31426632D01*
X71114805Y31244466D01*
X71045178Y31361355D01*
X70850269Y31577588D01*
X70616920Y31751641D01*
X70354099Y31876825D01*
X70206890Y31921476D01*
X69977002Y31800156D01*
X69977002Y31965000D01*
X69954047Y31965000D01*
X70238497Y32249450D01*
X70266537Y32272462D01*
X70289550Y32300503D01*
X70289553Y32300506D01*
X70342810Y32365400D01*
X70358387Y32384380D01*
X70426637Y32512067D01*
X70468665Y32650615D01*
X70479300Y32758595D01*
X70479300Y32758596D01*
X70482856Y32794700D01*
X70479300Y32830805D01*
X70479300Y39806034D01*
X70686842Y39720068D01*
X70973740Y39663000D01*
X71266260Y39663000D01*
X71553158Y39720068D01*
X71823411Y39832010D01*
X72066632Y39994525D01*
X72198487Y40126380D01*
X72220498Y40053820D01*
X72279463Y39943506D01*
X72358815Y39846815D01*
X72455506Y39767463D01*
X72565820Y39708498D01*
X72685518Y39672188D01*
X72810000Y39659928D01*
X73374250Y39663000D01*
X73533000Y39821750D01*
X73533000Y41021000D01*
X73787000Y41021000D01*
X73787000Y39821750D01*
X73945750Y39663000D01*
X74510000Y39659928D01*
X74634482Y39672188D01*
X74754180Y39708498D01*
X74864494Y39767463D01*
X74961185Y39846815D01*
X75040537Y39943506D01*
X75099502Y40053820D01*
X75135812Y40173518D01*
X75148072Y40298000D01*
X75145000Y40862250D01*
X74986250Y41021000D01*
X73787000Y41021000D01*
X73533000Y41021000D01*
X73513000Y41021000D01*
X73513000Y41275000D01*
X73533000Y41275000D01*
X73533000Y42474250D01*
X73787000Y42474250D01*
X73787000Y41275000D01*
X74986250Y41275000D01*
X75145000Y41433750D01*
X75148072Y41998000D01*
X75135812Y42122482D01*
X75099502Y42242180D01*
X75040537Y42352494D01*
X74961185Y42449185D01*
X74864494Y42528537D01*
X74754180Y42587502D01*
X74634482Y42623812D01*
X74510000Y42636072D01*
X73945750Y42633000D01*
X73787000Y42474250D01*
X73533000Y42474250D01*
X73374250Y42633000D01*
X72810000Y42636072D01*
X72685518Y42623812D01*
X72565820Y42587502D01*
X72455506Y42528537D01*
X72358815Y42449185D01*
X72279463Y42352494D01*
X72220498Y42242180D01*
X72198487Y42169620D01*
X72135337Y42232770D01*
X72579133Y42676564D01*
X72610991Y42702709D01*
X72715336Y42829854D01*
X72792872Y42974913D01*
X72840618Y43132311D01*
X72852700Y43254981D01*
X72852700Y43254982D01*
X72856740Y43296000D01*
X72852700Y43337018D01*
X72852700Y72325000D01*
X77633682Y72325000D01*
X77674700Y72320960D01*
X77715718Y72325000D01*
X77715719Y72325000D01*
X77838389Y72337082D01*
X77995787Y72384828D01*
X78140846Y72462364D01*
X78267991Y72566709D01*
X78294146Y72598579D01*
X80020056Y74324488D01*
X80028815Y74313815D01*
X80125506Y74234463D01*
X80235820Y74175498D01*
X80355518Y74139188D01*
X80480000Y74126928D01*
X82080000Y74126928D01*
X82204482Y74139188D01*
X82324180Y74175498D01*
X82434494Y74234463D01*
X82531185Y74313815D01*
X82610537Y74410506D01*
X82669502Y74520820D01*
X82685117Y74572298D01*
X82966903Y74572298D01*
X83038486Y74328329D01*
X83293996Y74207429D01*
X83568184Y74138700D01*
X83850512Y74124783D01*
X84130130Y74166213D01*
X84396292Y74261397D01*
X84521514Y74328329D01*
X84593097Y74572298D01*
X83780000Y75385395D01*
X82966903Y74572298D01*
X82685117Y74572298D01*
X82705812Y74640518D01*
X82718072Y74765000D01*
X82718072Y74772215D01*
X82787298Y74751903D01*
X83600395Y75565000D01*
X83959605Y75565000D01*
X84772702Y74751903D01*
X85016671Y74823486D01*
X85137571Y75078996D01*
X85206300Y75353184D01*
X85220217Y75635512D01*
X85178787Y75915130D01*
X85083603Y76181292D01*
X85016671Y76306514D01*
X84772702Y76378097D01*
X83959605Y75565000D01*
X83600395Y75565000D01*
X83586253Y75579142D01*
X83765858Y75758747D01*
X83780000Y75744605D01*
X84593097Y76557702D01*
X84521514Y76801671D01*
X84266004Y76922571D01*
X83991816Y76991300D01*
X83892262Y76996207D01*
X84116203Y77220128D01*
X92765000Y77220128D01*
X92765000Y76779872D01*
X92850890Y76348075D01*
X93019369Y75941331D01*
X93263962Y75575271D01*
X93575271Y75263962D01*
X93941331Y75019369D01*
X94348075Y74850890D01*
X94779872Y74765000D01*
X95220128Y74765000D01*
X95651925Y74850890D01*
X96058669Y75019369D01*
X96424729Y75263962D01*
X96736038Y75575271D01*
X96980631Y75941331D01*
X97149110Y76348075D01*
X97235000Y76779872D01*
X97235000Y77220128D01*
X97149110Y77651925D01*
X96980631Y78058669D01*
X96736038Y78424729D01*
X96424729Y78736038D01*
X96058669Y78980631D01*
X95651925Y79149110D01*
X95220128Y79235000D01*
X94779872Y79235000D01*
X94348075Y79149110D01*
X93941331Y78980631D01*
X93575271Y78736038D01*
X93263962Y78424729D01*
X93019369Y78058669D01*
X92850890Y77651925D01*
X92765000Y77220128D01*
X84116203Y77220128D01*
X87239445Y80343079D01*
X87239486Y80343113D01*
X87239852Y80343479D01*
X87240242Y80343800D01*
X87268271Y80371902D01*
X87297412Y80401041D01*
X87297451Y80401089D01*
X87432047Y80535710D01*
X87461291Y80559709D01*
X87485336Y80589008D01*
X89969458Y83073584D01*
X90001291Y83099709D01*
X90027464Y83131601D01*
X90027490Y83131627D01*
X90053052Y83162781D01*
X90105636Y83226854D01*
X90105654Y83226887D01*
X90105679Y83226918D01*
X90144092Y83298800D01*
X90183172Y83371913D01*
X90183184Y83371952D01*
X90183201Y83371984D01*
X90183509Y83373000D01*
X99289001Y83373000D01*
X99289000Y660000D01*
X660000Y660000D01*
X660000Y5220128D01*
X2765000Y5220128D01*
X2765000Y4779872D01*
X2850890Y4348075D01*
X3019369Y3941331D01*
X3263962Y3575271D01*
X3575271Y3263962D01*
X3941331Y3019369D01*
X4348075Y2850890D01*
X4779872Y2765000D01*
X5220128Y2765000D01*
X5651925Y2850890D01*
X6058669Y3019369D01*
X6424729Y3263962D01*
X6736038Y3575271D01*
X6980631Y3941331D01*
X7149110Y4348075D01*
X7196502Y4586335D01*
X16980000Y4586335D01*
X16980000Y4303665D01*
X17035147Y4026426D01*
X17143320Y3765273D01*
X17300363Y3530241D01*
X17500241Y3330363D01*
X17735273Y3173320D01*
X17996426Y3065147D01*
X18273665Y3010000D01*
X18556335Y3010000D01*
X18833574Y3065147D01*
X19094727Y3173320D01*
X19329759Y3330363D01*
X19529637Y3530241D01*
X19686680Y3765273D01*
X19794853Y4026426D01*
X19850000Y4303665D01*
X19850000Y4586335D01*
X19794853Y4863574D01*
X19686680Y5124727D01*
X19529637Y5359759D01*
X19329759Y5559637D01*
X19094727Y5716680D01*
X19084135Y5721067D01*
X19270131Y5832615D01*
X19478519Y6021586D01*
X19646037Y6247580D01*
X19766246Y6501913D01*
X19806904Y6635961D01*
X19684915Y6858000D01*
X18542000Y6858000D01*
X18542000Y6838000D01*
X18288000Y6838000D01*
X18288000Y6858000D01*
X17145085Y6858000D01*
X17023096Y6635961D01*
X17063754Y6501913D01*
X17183963Y6247580D01*
X17351481Y6021586D01*
X17559869Y5832615D01*
X17745865Y5721067D01*
X17735273Y5716680D01*
X17500241Y5559637D01*
X17300363Y5359759D01*
X17143320Y5124727D01*
X17035147Y4863574D01*
X16980000Y4586335D01*
X7196502Y4586335D01*
X7235000Y4779872D01*
X7235000Y5220128D01*
X7149110Y5651925D01*
X6980631Y6058669D01*
X6736038Y6424729D01*
X6424729Y6736038D01*
X6058669Y6980631D01*
X5651925Y7149110D01*
X5220128Y7235000D01*
X4779872Y7235000D01*
X4348075Y7149110D01*
X3941331Y6980631D01*
X3575271Y6736038D01*
X3263962Y6424729D01*
X3019369Y6058669D01*
X2850890Y5651925D01*
X2765000Y5220128D01*
X660000Y5220128D01*
X660000Y58869702D01*
X17245903Y58869702D01*
X18059000Y58056605D01*
X18872097Y58869702D01*
X18800514Y59113671D01*
X18545004Y59234571D01*
X18270816Y59303300D01*
X17988488Y59317217D01*
X17708870Y59275787D01*
X17442708Y59180603D01*
X17317486Y59113671D01*
X17245903Y58869702D01*
X660000Y58869702D01*
X660000Y77220128D01*
X2765000Y77220128D01*
X2765000Y76779872D01*
X2850890Y76348075D01*
X3019369Y75941331D01*
X3263962Y75575271D01*
X3575271Y75263962D01*
X3941331Y75019369D01*
X4348075Y74850890D01*
X4779872Y74765000D01*
X5220128Y74765000D01*
X5651925Y74850890D01*
X6058669Y75019369D01*
X6424729Y75263962D01*
X6736038Y75575271D01*
X6980631Y75941331D01*
X7149110Y76348075D01*
X7235000Y76779872D01*
X7235000Y77220128D01*
X7149110Y77651925D01*
X6980631Y78058669D01*
X6971056Y78073000D01*
X20917000Y78073000D01*
X20917000Y77673000D01*
X20969350Y77395486D01*
X21074834Y77133517D01*
X21229399Y76897161D01*
X21427105Y76695500D01*
X21660354Y76536285D01*
X21920182Y76425633D01*
X22002961Y76408096D01*
X22225000Y76530085D01*
X22225000Y78073000D01*
X20917000Y78073000D01*
X6971056Y78073000D01*
X6736038Y78424729D01*
X6433767Y78727000D01*
X20917000Y78727000D01*
X20917000Y78327000D01*
X22225000Y78327000D01*
X22225000Y79869915D01*
X22002961Y79991904D01*
X21920182Y79974367D01*
X21660354Y79863715D01*
X21427105Y79704500D01*
X21229399Y79502839D01*
X21074834Y79266483D01*
X20969350Y79004514D01*
X20917000Y78727000D01*
X6433767Y78727000D01*
X6424729Y78736038D01*
X6058669Y78980631D01*
X5651925Y79149110D01*
X5220128Y79235000D01*
X4779872Y79235000D01*
X4348075Y79149110D01*
X3941331Y78980631D01*
X3575271Y78736038D01*
X3263962Y78424729D01*
X3019369Y78058669D01*
X2850890Y77651925D01*
X2765000Y77220128D01*
X660000Y77220128D01*
X660000Y83373000D01*
X43092045Y83373000D01*
X43080823Y83356205D01*
G37*
G04 #@! TD.AperFunction*
D21*
X45702764Y71261309D02*
X45682000Y71050492D01*
X45682000Y70109509D01*
X45702764Y69898692D01*
X45784818Y69628193D01*
X45918068Y69378900D01*
X46097392Y69160393D01*
X46315899Y68981068D01*
X46392174Y68940298D01*
X46392635Y68935615D01*
X46434663Y68797067D01*
X46502913Y68669380D01*
X46594762Y68557462D01*
X46706680Y68465613D01*
X46834367Y68397363D01*
X46972915Y68355335D01*
X47080895Y68344700D01*
X47117000Y68341144D01*
X47153105Y68344700D01*
X54512154Y68344700D01*
X57052816Y65804037D01*
X57019393Y65776608D01*
X56840068Y65558101D01*
X56771735Y65430259D01*
X56621601Y65659839D01*
X56423895Y65861500D01*
X56190646Y66020715D01*
X55930818Y66131367D01*
X55848039Y66148904D01*
X55626000Y66026915D01*
X55626000Y64484000D01*
X55646000Y64484000D01*
X55646000Y64230000D01*
X55626000Y64230000D01*
X55626000Y64210000D01*
X55372000Y64210000D01*
X55372000Y64230000D01*
X55352000Y64230000D01*
X55352000Y64484000D01*
X55372000Y64484000D01*
X55372000Y66026915D01*
X55149961Y66148904D01*
X55067182Y66131367D01*
X54807354Y66020715D01*
X54574105Y65861500D01*
X54376399Y65659839D01*
X54226265Y65430259D01*
X54157932Y65558101D01*
X53978608Y65776608D01*
X53760101Y65955932D01*
X53510808Y66089182D01*
X53240309Y66171236D01*
X52959000Y66198943D01*
X52677692Y66171236D01*
X52407193Y66089182D01*
X52157900Y65955932D01*
X51939393Y65776608D01*
X51760068Y65558101D01*
X51689000Y65425142D01*
X51617932Y65558101D01*
X51438608Y65776608D01*
X51220101Y65955932D01*
X50970808Y66089182D01*
X50700309Y66171236D01*
X50419000Y66198943D01*
X50137692Y66171236D01*
X49867193Y66089182D01*
X49617900Y65955932D01*
X49399393Y65776608D01*
X49220068Y65558101D01*
X49149000Y65425142D01*
X49077932Y65558101D01*
X48898608Y65776608D01*
X48680101Y65955932D01*
X48430808Y66089182D01*
X48160309Y66171236D01*
X47879000Y66198943D01*
X47597692Y66171236D01*
X47327193Y66089182D01*
X47077900Y65955932D01*
X46980527Y65876020D01*
X42284094Y70572452D01*
X42266790Y70659445D01*
X42200077Y70820505D01*
X42109675Y70955800D01*
X44453195Y70955800D01*
X44489300Y70952244D01*
X44525405Y70955800D01*
X44633385Y70966435D01*
X44771933Y71008463D01*
X44899620Y71076713D01*
X45011538Y71168562D01*
X45034559Y71196613D01*
X45183946Y71346000D01*
X45728454Y71346000D01*
X45702764Y71261309D01*
G04 #@! TA.AperFunction,Conductor*
D22*
G36*
X45702764Y71261309D02*
G01*
X45682000Y71050492D01*
X45682000Y70109509D01*
X45702764Y69898692D01*
X45784818Y69628193D01*
X45918068Y69378900D01*
X46097392Y69160393D01*
X46315899Y68981068D01*
X46392174Y68940298D01*
X46392635Y68935615D01*
X46434663Y68797067D01*
X46502913Y68669380D01*
X46594762Y68557462D01*
X46706680Y68465613D01*
X46834367Y68397363D01*
X46972915Y68355335D01*
X47080895Y68344700D01*
X47117000Y68341144D01*
X47153105Y68344700D01*
X54512154Y68344700D01*
X57052816Y65804037D01*
X57019393Y65776608D01*
X56840068Y65558101D01*
X56771735Y65430259D01*
X56621601Y65659839D01*
X56423895Y65861500D01*
X56190646Y66020715D01*
X55930818Y66131367D01*
X55848039Y66148904D01*
X55626000Y66026915D01*
X55626000Y64484000D01*
X55646000Y64484000D01*
X55646000Y64230000D01*
X55626000Y64230000D01*
X55626000Y64210000D01*
X55372000Y64210000D01*
X55372000Y64230000D01*
X55352000Y64230000D01*
X55352000Y64484000D01*
X55372000Y64484000D01*
X55372000Y66026915D01*
X55149961Y66148904D01*
X55067182Y66131367D01*
X54807354Y66020715D01*
X54574105Y65861500D01*
X54376399Y65659839D01*
X54226265Y65430259D01*
X54157932Y65558101D01*
X53978608Y65776608D01*
X53760101Y65955932D01*
X53510808Y66089182D01*
X53240309Y66171236D01*
X52959000Y66198943D01*
X52677692Y66171236D01*
X52407193Y66089182D01*
X52157900Y65955932D01*
X51939393Y65776608D01*
X51760068Y65558101D01*
X51689000Y65425142D01*
X51617932Y65558101D01*
X51438608Y65776608D01*
X51220101Y65955932D01*
X50970808Y66089182D01*
X50700309Y66171236D01*
X50419000Y66198943D01*
X50137692Y66171236D01*
X49867193Y66089182D01*
X49617900Y65955932D01*
X49399393Y65776608D01*
X49220068Y65558101D01*
X49149000Y65425142D01*
X49077932Y65558101D01*
X48898608Y65776608D01*
X48680101Y65955932D01*
X48430808Y66089182D01*
X48160309Y66171236D01*
X47879000Y66198943D01*
X47597692Y66171236D01*
X47327193Y66089182D01*
X47077900Y65955932D01*
X46980527Y65876020D01*
X42284094Y70572452D01*
X42266790Y70659445D01*
X42200077Y70820505D01*
X42109675Y70955800D01*
X44453195Y70955800D01*
X44489300Y70952244D01*
X44525405Y70955800D01*
X44633385Y70966435D01*
X44771933Y71008463D01*
X44899620Y71076713D01*
X45011538Y71168562D01*
X45034559Y71196613D01*
X45183946Y71346000D01*
X45728454Y71346000D01*
X45702764Y71261309D01*
G37*
G04 #@! TD.AperFunction*
D21*
X66256840Y77092313D02*
X66096488Y77100217D01*
X65816870Y77058787D01*
X65550708Y76963603D01*
X65425486Y76896671D01*
X65353903Y76652702D01*
X66167000Y75839605D01*
X66181143Y75853747D01*
X66360748Y75674142D01*
X66346605Y75660000D01*
X66360748Y75645857D01*
X66181143Y75466252D01*
X66167000Y75480395D01*
X66152858Y75466252D01*
X65973253Y75645857D01*
X65987395Y75660000D01*
X65174298Y76473097D01*
X64930329Y76401514D01*
X64809429Y76146004D01*
X64740700Y75871816D01*
X64726783Y75589488D01*
X64768213Y75309870D01*
X64836941Y75117686D01*
X64679995Y75052677D01*
X64535045Y74955824D01*
X64411776Y74832555D01*
X64314923Y74687605D01*
X64248210Y74526545D01*
X64214200Y74355565D01*
X64214200Y74181235D01*
X64248210Y74010255D01*
X64314923Y73849195D01*
X64366504Y73771999D01*
X64343709Y73753291D01*
X64317561Y73721429D01*
X62908429Y72312297D01*
X62638309Y72394236D01*
X62357000Y72421943D01*
X62075692Y72394236D01*
X61805571Y72312297D01*
X61376446Y72741421D01*
X61350291Y72773291D01*
X61223146Y72877636D01*
X61078087Y72955172D01*
X60920689Y73002918D01*
X60798019Y73015000D01*
X60798018Y73015000D01*
X60757000Y73019040D01*
X60715982Y73015000D01*
X58918018Y73015000D01*
X58877000Y73019040D01*
X58835982Y73015000D01*
X58835981Y73015000D01*
X58713311Y73002918D01*
X58599299Y72968333D01*
X58555913Y72955172D01*
X58410854Y72877636D01*
X58337048Y72817065D01*
X58283709Y72773291D01*
X58257563Y72741432D01*
X58040101Y72523970D01*
X57974636Y72646446D01*
X57942421Y72685700D01*
X57896439Y72741730D01*
X57896437Y72741732D01*
X57870291Y72773591D01*
X57838432Y72799737D01*
X56740745Y73897422D01*
X56714591Y73929291D01*
X56587446Y74033636D01*
X56442387Y74111172D01*
X56284989Y74158918D01*
X56162319Y74171000D01*
X56162318Y74171000D01*
X56121300Y74175040D01*
X56080282Y74171000D01*
X49872746Y74171000D01*
X50922353Y75220606D01*
X51009345Y75237910D01*
X51170405Y75304623D01*
X51315355Y75401476D01*
X51438624Y75524745D01*
X51535477Y75669695D01*
X51602190Y75830755D01*
X51636200Y76001735D01*
X51636200Y76176065D01*
X51602190Y76347045D01*
X51535477Y76508105D01*
X51516397Y76536661D01*
X51645192Y76467818D01*
X51915691Y76385764D01*
X52197000Y76358057D01*
X52478308Y76385764D01*
X52748807Y76467818D01*
X52998100Y76601068D01*
X53216607Y76780392D01*
X53395932Y76998899D01*
X53467000Y77131858D01*
X53538068Y76998900D01*
X53717392Y76780393D01*
X53935899Y76601068D01*
X54185192Y76467818D01*
X54455691Y76385764D01*
X54737000Y76358057D01*
X55018308Y76385764D01*
X55288807Y76467818D01*
X55538100Y76601068D01*
X55756607Y76780392D01*
X55935932Y76998899D01*
X56007000Y77131858D01*
X56078068Y76998900D01*
X56257392Y76780393D01*
X56475899Y76601068D01*
X56725192Y76467818D01*
X56995691Y76385764D01*
X57277000Y76358057D01*
X57558308Y76385764D01*
X57828807Y76467818D01*
X58078100Y76601068D01*
X58296607Y76780392D01*
X58475932Y76998899D01*
X58547000Y77131858D01*
X58618068Y76998900D01*
X58797392Y76780393D01*
X59015899Y76601068D01*
X59265192Y76467818D01*
X59535691Y76385764D01*
X59817000Y76358057D01*
X60098308Y76385764D01*
X60368807Y76467818D01*
X60618100Y76601068D01*
X60836607Y76780392D01*
X60929419Y76893483D01*
X60931188Y76875518D01*
X60967498Y76755820D01*
X61026463Y76645506D01*
X61105815Y76548815D01*
X61202506Y76469463D01*
X61312820Y76410498D01*
X61432518Y76374188D01*
X61557000Y76361928D01*
X63157000Y76361928D01*
X63281482Y76374188D01*
X63401180Y76410498D01*
X63511494Y76469463D01*
X63608185Y76548815D01*
X63687537Y76645506D01*
X63746502Y76755820D01*
X63782812Y76875518D01*
X63795072Y77000000D01*
X63795072Y79400000D01*
X63782812Y79524482D01*
X63764585Y79584569D01*
X66256840Y77092313D01*
G04 #@! TA.AperFunction,Conductor*
D22*
G36*
X66256840Y77092313D02*
G01*
X66096488Y77100217D01*
X65816870Y77058787D01*
X65550708Y76963603D01*
X65425486Y76896671D01*
X65353903Y76652702D01*
X66167000Y75839605D01*
X66181143Y75853747D01*
X66360748Y75674142D01*
X66346605Y75660000D01*
X66360748Y75645857D01*
X66181143Y75466252D01*
X66167000Y75480395D01*
X66152858Y75466252D01*
X65973253Y75645857D01*
X65987395Y75660000D01*
X65174298Y76473097D01*
X64930329Y76401514D01*
X64809429Y76146004D01*
X64740700Y75871816D01*
X64726783Y75589488D01*
X64768213Y75309870D01*
X64836941Y75117686D01*
X64679995Y75052677D01*
X64535045Y74955824D01*
X64411776Y74832555D01*
X64314923Y74687605D01*
X64248210Y74526545D01*
X64214200Y74355565D01*
X64214200Y74181235D01*
X64248210Y74010255D01*
X64314923Y73849195D01*
X64366504Y73771999D01*
X64343709Y73753291D01*
X64317561Y73721429D01*
X62908429Y72312297D01*
X62638309Y72394236D01*
X62357000Y72421943D01*
X62075692Y72394236D01*
X61805571Y72312297D01*
X61376446Y72741421D01*
X61350291Y72773291D01*
X61223146Y72877636D01*
X61078087Y72955172D01*
X60920689Y73002918D01*
X60798019Y73015000D01*
X60798018Y73015000D01*
X60757000Y73019040D01*
X60715982Y73015000D01*
X58918018Y73015000D01*
X58877000Y73019040D01*
X58835982Y73015000D01*
X58835981Y73015000D01*
X58713311Y73002918D01*
X58599299Y72968333D01*
X58555913Y72955172D01*
X58410854Y72877636D01*
X58337048Y72817065D01*
X58283709Y72773291D01*
X58257563Y72741432D01*
X58040101Y72523970D01*
X57974636Y72646446D01*
X57942421Y72685700D01*
X57896439Y72741730D01*
X57896437Y72741732D01*
X57870291Y72773591D01*
X57838432Y72799737D01*
X56740745Y73897422D01*
X56714591Y73929291D01*
X56587446Y74033636D01*
X56442387Y74111172D01*
X56284989Y74158918D01*
X56162319Y74171000D01*
X56162318Y74171000D01*
X56121300Y74175040D01*
X56080282Y74171000D01*
X49872746Y74171000D01*
X50922353Y75220606D01*
X51009345Y75237910D01*
X51170405Y75304623D01*
X51315355Y75401476D01*
X51438624Y75524745D01*
X51535477Y75669695D01*
X51602190Y75830755D01*
X51636200Y76001735D01*
X51636200Y76176065D01*
X51602190Y76347045D01*
X51535477Y76508105D01*
X51516397Y76536661D01*
X51645192Y76467818D01*
X51915691Y76385764D01*
X52197000Y76358057D01*
X52478308Y76385764D01*
X52748807Y76467818D01*
X52998100Y76601068D01*
X53216607Y76780392D01*
X53395932Y76998899D01*
X53467000Y77131858D01*
X53538068Y76998900D01*
X53717392Y76780393D01*
X53935899Y76601068D01*
X54185192Y76467818D01*
X54455691Y76385764D01*
X54737000Y76358057D01*
X55018308Y76385764D01*
X55288807Y76467818D01*
X55538100Y76601068D01*
X55756607Y76780392D01*
X55935932Y76998899D01*
X56007000Y77131858D01*
X56078068Y76998900D01*
X56257392Y76780393D01*
X56475899Y76601068D01*
X56725192Y76467818D01*
X56995691Y76385764D01*
X57277000Y76358057D01*
X57558308Y76385764D01*
X57828807Y76467818D01*
X58078100Y76601068D01*
X58296607Y76780392D01*
X58475932Y76998899D01*
X58547000Y77131858D01*
X58618068Y76998900D01*
X58797392Y76780393D01*
X59015899Y76601068D01*
X59265192Y76467818D01*
X59535691Y76385764D01*
X59817000Y76358057D01*
X60098308Y76385764D01*
X60368807Y76467818D01*
X60618100Y76601068D01*
X60836607Y76780392D01*
X60929419Y76893483D01*
X60931188Y76875518D01*
X60967498Y76755820D01*
X61026463Y76645506D01*
X61105815Y76548815D01*
X61202506Y76469463D01*
X61312820Y76410498D01*
X61432518Y76374188D01*
X61557000Y76361928D01*
X63157000Y76361928D01*
X63281482Y76374188D01*
X63401180Y76410498D01*
X63511494Y76469463D01*
X63608185Y76548815D01*
X63687537Y76645506D01*
X63746502Y76755820D01*
X63782812Y76875518D01*
X63795072Y77000000D01*
X63795072Y79400000D01*
X63782812Y79524482D01*
X63764585Y79584569D01*
X66256840Y77092313D01*
G37*
G04 #@! TD.AperFunction*
D21*
X45682000Y78727000D02*
X45682000Y78327000D01*
X46990000Y78327000D01*
X46990000Y78347000D01*
X47244000Y78347000D01*
X47244000Y78327000D01*
X47264000Y78327000D01*
X47264000Y78073000D01*
X47244000Y78073000D01*
X47244000Y76530085D01*
X47466039Y76408096D01*
X47548818Y76425633D01*
X47808646Y76536285D01*
X48041895Y76695500D01*
X48239601Y76897161D01*
X48389735Y77126742D01*
X48458068Y76998900D01*
X48637392Y76780393D01*
X48855899Y76601068D01*
X49105192Y76467818D01*
X49375691Y76385764D01*
X49657000Y76358057D01*
X49915310Y76383499D01*
X49900210Y76347045D01*
X49882906Y76260053D01*
X48719454Y75096600D01*
X42722949Y75096600D01*
X42759571Y75173996D01*
X42828300Y75448184D01*
X42842217Y75730512D01*
X42800787Y76010130D01*
X42705603Y76276292D01*
X42638671Y76401514D01*
X42394702Y76473097D01*
X41581605Y75660000D01*
X41595748Y75645857D01*
X41416143Y75466252D01*
X41402000Y75480395D01*
X41387858Y75466252D01*
X41208253Y75645857D01*
X41222395Y75660000D01*
X40409298Y76473097D01*
X40165329Y76401514D01*
X40044429Y76146004D01*
X39975700Y75871816D01*
X39961783Y75589488D01*
X40003213Y75309870D01*
X40079482Y75096600D01*
X34948646Y75096600D01*
X36373795Y76521749D01*
X36437506Y76469463D01*
X36547820Y76410498D01*
X36667518Y76374188D01*
X36792000Y76361928D01*
X37306250Y76365000D01*
X37465000Y76523750D01*
X37465000Y78073000D01*
X37719000Y78073000D01*
X37719000Y76523750D01*
X37877750Y76365000D01*
X38392000Y76361928D01*
X38516482Y76374188D01*
X38636180Y76410498D01*
X38746494Y76469463D01*
X38843185Y76548815D01*
X38922537Y76645506D01*
X38926383Y76652702D01*
X40588903Y76652702D01*
X41402000Y75839605D01*
X42215097Y76652702D01*
X42143514Y76896671D01*
X41888004Y77017571D01*
X41613816Y77086300D01*
X41331488Y77100217D01*
X41051870Y77058787D01*
X40785708Y76963603D01*
X40660486Y76896671D01*
X40588903Y76652702D01*
X38926383Y76652702D01*
X38981502Y76755820D01*
X39017812Y76875518D01*
X39030072Y77000000D01*
X39027000Y77914250D01*
X38868250Y78073000D01*
X45682000Y78073000D01*
X45682000Y77673000D01*
X45734350Y77395486D01*
X45839834Y77133517D01*
X45994399Y76897161D01*
X46192105Y76695500D01*
X46425354Y76536285D01*
X46685182Y76425633D01*
X46767961Y76408096D01*
X46990000Y76530085D01*
X46990000Y78073000D01*
X45682000Y78073000D01*
X38868250Y78073000D01*
X37719000Y78073000D01*
X37465000Y78073000D01*
X37445000Y78073000D01*
X37445000Y78327000D01*
X37465000Y78327000D01*
X37465000Y78347000D01*
X37719000Y78347000D01*
X37719000Y78327000D01*
X38868250Y78327000D01*
X39027000Y78485750D01*
X39028611Y78965300D01*
X45726953Y78965300D01*
X45682000Y78727000D01*
G04 #@! TA.AperFunction,Conductor*
D22*
G36*
X45682000Y78727000D02*
G01*
X45682000Y78327000D01*
X46990000Y78327000D01*
X46990000Y78347000D01*
X47244000Y78347000D01*
X47244000Y78327000D01*
X47264000Y78327000D01*
X47264000Y78073000D01*
X47244000Y78073000D01*
X47244000Y76530085D01*
X47466039Y76408096D01*
X47548818Y76425633D01*
X47808646Y76536285D01*
X48041895Y76695500D01*
X48239601Y76897161D01*
X48389735Y77126742D01*
X48458068Y76998900D01*
X48637392Y76780393D01*
X48855899Y76601068D01*
X49105192Y76467818D01*
X49375691Y76385764D01*
X49657000Y76358057D01*
X49915310Y76383499D01*
X49900210Y76347045D01*
X49882906Y76260053D01*
X48719454Y75096600D01*
X42722949Y75096600D01*
X42759571Y75173996D01*
X42828300Y75448184D01*
X42842217Y75730512D01*
X42800787Y76010130D01*
X42705603Y76276292D01*
X42638671Y76401514D01*
X42394702Y76473097D01*
X41581605Y75660000D01*
X41595748Y75645857D01*
X41416143Y75466252D01*
X41402000Y75480395D01*
X41387858Y75466252D01*
X41208253Y75645857D01*
X41222395Y75660000D01*
X40409298Y76473097D01*
X40165329Y76401514D01*
X40044429Y76146004D01*
X39975700Y75871816D01*
X39961783Y75589488D01*
X40003213Y75309870D01*
X40079482Y75096600D01*
X34948646Y75096600D01*
X36373795Y76521749D01*
X36437506Y76469463D01*
X36547820Y76410498D01*
X36667518Y76374188D01*
X36792000Y76361928D01*
X37306250Y76365000D01*
X37465000Y76523750D01*
X37465000Y78073000D01*
X37719000Y78073000D01*
X37719000Y76523750D01*
X37877750Y76365000D01*
X38392000Y76361928D01*
X38516482Y76374188D01*
X38636180Y76410498D01*
X38746494Y76469463D01*
X38843185Y76548815D01*
X38922537Y76645506D01*
X38926383Y76652702D01*
X40588903Y76652702D01*
X41402000Y75839605D01*
X42215097Y76652702D01*
X42143514Y76896671D01*
X41888004Y77017571D01*
X41613816Y77086300D01*
X41331488Y77100217D01*
X41051870Y77058787D01*
X40785708Y76963603D01*
X40660486Y76896671D01*
X40588903Y76652702D01*
X38926383Y76652702D01*
X38981502Y76755820D01*
X39017812Y76875518D01*
X39030072Y77000000D01*
X39027000Y77914250D01*
X38868250Y78073000D01*
X45682000Y78073000D01*
X45682000Y77673000D01*
X45734350Y77395486D01*
X45839834Y77133517D01*
X45994399Y76897161D01*
X46192105Y76695500D01*
X46425354Y76536285D01*
X46685182Y76425633D01*
X46767961Y76408096D01*
X46990000Y76530085D01*
X46990000Y78073000D01*
X45682000Y78073000D01*
X38868250Y78073000D01*
X37719000Y78073000D01*
X37465000Y78073000D01*
X37445000Y78073000D01*
X37445000Y78327000D01*
X37465000Y78327000D01*
X37465000Y78347000D01*
X37719000Y78347000D01*
X37719000Y78327000D01*
X38868250Y78327000D01*
X39027000Y78485750D01*
X39028611Y78965300D01*
X45726953Y78965300D01*
X45682000Y78727000D01*
G37*
G04 #@! TD.AperFunction*
M02*
