M48
; DRILL file {KiCad (5.1.9)-1} date 08/14/22 15:09:33
; FORMAT={-:-/ absolute / metric / decimal}
; #@! TF.CreationDate,2022-08-14T15:09:33+09:00
; #@! TF.GenerationSoftware,Kicad,Pcbnew,(5.1.9)-1
FMAT,2
METRIC
T1C0.300
T2C0.800
T3C1.000
T4C3.200
%
G90
G05
T1
X27.803Y52.008
X30.434Y52.02
X32.583Y51.93
X33.385Y52.773
X36.738Y63.507
X37.681Y66.51
X37.719Y73.989
X37.762Y55.044
X39.375Y73.436
X40.205Y55.044
X42.393Y76.101
X42.625Y77.611
X43.209Y74.176
X43.517Y72.75
X44.225Y55.697
X47.669Y58.037
X48.557Y54.653
X49.374Y58.675
X49.656Y72.689
X49.829Y55.341
X53.574Y72.664
X54.953Y72.664
X55.202Y57.985
X55.221Y62.335
X56.76Y57.985
X57.148Y71.278
X59.119Y72.664
X59.253Y77.806
X60.908Y80.064
X61.475Y52.645
X64.632Y54.871
X65.065Y81.101
X66.105Y75.728
X66.308Y75.016
X67.668Y73.984
X69.856Y76.099
X76.2Y82.55
X84.207Y77.232
X86.868Y81.153
X90.594Y82.379
T2
X18.415Y32.385
X18.415Y29.845
X18.415Y27.305
X18.415Y24.765
X18.415Y22.225
X18.415Y19.685
X18.415Y17.145
X18.415Y14.605
X18.415Y12.065
X18.415Y9.525
X18.415Y6.985
X18.415Y4.445
X18.44Y53.845
X18.44Y51.345
X20.955Y26.035
X20.955Y23.495
X20.955Y15.875
X20.955Y13.335
X22.352Y76.2
X22.352Y68.58
X22.86Y60.325
X22.86Y45.085
X24.892Y76.2
X24.892Y68.58
X25.4Y60.325
X25.4Y45.085
X27.432Y76.2
X27.432Y68.58
X27.94Y60.325
X27.94Y45.085
X29.972Y76.2
X29.972Y68.58
X30.48Y60.325
X30.48Y45.085
X32.512Y76.2
X32.512Y68.58
X33.02Y60.325
X33.02Y45.085
X33.655Y32.385
X33.655Y29.845
X33.655Y27.305
X33.655Y24.765
X33.655Y22.225
X33.655Y19.685
X33.655Y17.145
X33.655Y14.605
X33.655Y12.065
X33.655Y9.525
X33.655Y6.985
X33.655Y4.445
X35.052Y76.2
X35.052Y68.58
X35.56Y60.325
X35.56Y45.085
X37.592Y76.2
X37.592Y68.58
X38.1Y60.325
X38.1Y45.085
X40.64Y60.325
X40.64Y45.085
X41.402Y73.66
X41.402Y71.16
X43.18Y60.325
X43.18Y45.085
X45.72Y60.325
X45.72Y45.085
X47.117Y76.2
X47.117Y68.58
X48.26Y60.325
X48.26Y45.085
X49.657Y76.2
X49.657Y68.58
X50.8Y60.325
X50.8Y45.085
X52.197Y76.2
X52.197Y68.58
X53.34Y60.325
X53.34Y45.085
X54.737Y76.2
X54.737Y68.58
X55.88Y60.325
X55.88Y45.085
X57.277Y76.2
X57.277Y68.58
X58.42Y60.325
X58.42Y45.085
X59.817Y76.2
X59.817Y68.58
X60.96Y60.325
X60.96Y45.085
X62.357Y76.2
X62.357Y68.58
X63.5Y60.325
X63.5Y45.085
X66.04Y60.325
X66.04Y45.085
X66.167Y73.66
X66.167Y71.16
X68.58Y60.325
X68.58Y45.085
X71.12Y60.325
X71.12Y45.085
X81.28Y75.565
X83.78Y75.565
T3
X57.15Y30.48
X57.15Y5.08
X57.15Y2.54
X59.69Y30.48
X62.23Y30.48
X64.77Y30.48
X67.31Y30.48
X69.85Y30.48
X72.39Y30.48
X74.93Y30.48
X77.47Y30.48
X77.47Y5.08
X77.47Y2.54
T4
X5.0Y77.0
X5.0Y5.0
X95.0Y77.0
X95.0Y5.0
T0
M30
