G04 #@! TF.GenerationSoftware,KiCad,Pcbnew,(5.1.9)-1*
G04 #@! TF.CreationDate,2022-08-14T15:09:30+09:00*
G04 #@! TF.ProjectId,PC-8001mk2_SD,50432d38-3030-4316-9d6b-325f53442e6b,rev?*
G04 #@! TF.SameCoordinates,PX53920b0PY93c3260*
G04 #@! TF.FileFunction,Soldermask,Top*
G04 #@! TF.FilePolarity,Negative*
%FSLAX46Y46*%
G04 Gerber Fmt 4.6, Leading zero omitted, Abs format (unit mm)*
G04 Created by KiCad (PCBNEW (5.1.9)-1) date 2022-08-14 15:09:30*
%MOMM*%
%LPD*%
G01*
G04 APERTURE LIST*
%ADD10C,1.600000*%
%ADD11R,1.600000X2.400000*%
%ADD12O,1.600000X2.400000*%
%ADD13C,3.200000*%
%ADD14R,1.600000X1.600000*%
%ADD15R,1.780000X10.000000*%
%ADD16R,1.700000X1.700000*%
%ADD17O,1.700000X1.700000*%
%ADD18O,1.600000X1.600000*%
G04 APERTURE END LIST*
D10*
X18440000Y51345000D03*
X18440000Y53845000D03*
D11*
X71120000Y60325000D03*
D12*
X22860000Y45085000D03*
X68580000Y60325000D03*
X25400000Y45085000D03*
X66040000Y60325000D03*
X27940000Y45085000D03*
X63500000Y60325000D03*
X30480000Y45085000D03*
X60960000Y60325000D03*
X33020000Y45085000D03*
X58420000Y60325000D03*
X35560000Y45085000D03*
X55880000Y60325000D03*
X38100000Y45085000D03*
X53340000Y60325000D03*
X40640000Y45085000D03*
X50800000Y60325000D03*
X43180000Y45085000D03*
X48260000Y60325000D03*
X45720000Y45085000D03*
X45720000Y60325000D03*
X48260000Y45085000D03*
X43180000Y60325000D03*
X50800000Y45085000D03*
X40640000Y60325000D03*
X53340000Y45085000D03*
X38100000Y60325000D03*
X55880000Y45085000D03*
X35560000Y60325000D03*
X58420000Y45085000D03*
X33020000Y60325000D03*
X60960000Y45085000D03*
X30480000Y60325000D03*
X63500000Y45085000D03*
X27940000Y60325000D03*
X66040000Y45085000D03*
X25400000Y60325000D03*
X68580000Y45085000D03*
X22860000Y60325000D03*
X71120000Y45085000D03*
D13*
X5000000Y77000000D03*
X95000000Y77000000D03*
X95000000Y5000000D03*
X5000000Y5000000D03*
D14*
X81280000Y75565000D03*
D10*
X83780000Y75565000D03*
X41402000Y73660000D03*
X41402000Y71160000D03*
X66167000Y71160000D03*
X66167000Y73660000D03*
D11*
X62357000Y76200000D03*
D12*
X47117000Y68580000D03*
X59817000Y76200000D03*
X49657000Y68580000D03*
X57277000Y76200000D03*
X52197000Y68580000D03*
X54737000Y76200000D03*
X54737000Y68580000D03*
X52197000Y76200000D03*
X57277000Y68580000D03*
X49657000Y76200000D03*
X59817000Y68580000D03*
X47117000Y76200000D03*
X62357000Y68580000D03*
D15*
X94488000Y89662000D03*
X91948000Y89662000D03*
X89408000Y89662000D03*
X86868000Y89662000D03*
X84328000Y89662000D03*
X81788000Y89662000D03*
X79248000Y89662000D03*
X76708000Y89662000D03*
X74168000Y89662000D03*
X71628000Y89662000D03*
X69088000Y89662000D03*
X66548000Y89662000D03*
X64008000Y89662000D03*
X61468000Y89662000D03*
X58928000Y89662000D03*
X56388000Y89662000D03*
X53848000Y89662000D03*
X51308000Y89662000D03*
X48768000Y89662000D03*
X46228000Y89662000D03*
X43688000Y89662000D03*
X41148000Y89662000D03*
X38608000Y89662000D03*
X36068000Y89662000D03*
X33528000Y89662000D03*
X30988000Y89662000D03*
X28448000Y89662000D03*
X25908000Y89662000D03*
X23368000Y89662000D03*
X20828000Y89662000D03*
X18288000Y89662000D03*
X15748000Y89662000D03*
X13208000Y89662000D03*
X10668000Y89662000D03*
X8128000Y89662000D03*
X5588000Y89662000D03*
D16*
X77470000Y30480000D03*
D17*
X74930000Y30480000D03*
X72390000Y30480000D03*
X69850000Y30480000D03*
X67310000Y30480000D03*
X64770000Y30480000D03*
X62230000Y30480000D03*
X59690000Y30480000D03*
X57150000Y30480000D03*
X57150000Y2540000D03*
X57150000Y5080000D03*
X77470000Y2540000D03*
X77470000Y5080000D03*
D12*
X37592000Y68580000D03*
X22352000Y76200000D03*
X35052000Y68580000D03*
X24892000Y76200000D03*
X32512000Y68580000D03*
X27432000Y76200000D03*
X29972000Y68580000D03*
X29972000Y76200000D03*
X27432000Y68580000D03*
X32512000Y76200000D03*
X24892000Y68580000D03*
X35052000Y76200000D03*
X22352000Y68580000D03*
D11*
X37592000Y76200000D03*
D14*
X33655000Y4445000D03*
D18*
X33655000Y6985000D03*
X33655000Y9525000D03*
X18415000Y32385000D03*
X33655000Y12065000D03*
X18415000Y29845000D03*
X33655000Y14605000D03*
X18415000Y27305000D03*
X33655000Y17145000D03*
X18415000Y24765000D03*
X33655000Y19685000D03*
X18415000Y22225000D03*
X33655000Y22225000D03*
X18415000Y19685000D03*
X33655000Y24765000D03*
X18415000Y17145000D03*
X33655000Y27305000D03*
X18415000Y14605000D03*
X33655000Y29845000D03*
X18415000Y12065000D03*
X33655000Y32385000D03*
X18415000Y9525000D03*
X18415000Y6985000D03*
X18415000Y4445000D03*
X20955000Y13335000D03*
X20955000Y15875000D03*
X20955000Y23495000D03*
X20955000Y26035000D03*
M02*
