G04 #@! TF.GenerationSoftware,KiCad,Pcbnew,(5.1.9)-1*
G04 #@! TF.CreationDate,2022-08-14T15:09:30+09:00*
G04 #@! TF.ProjectId,PC-8001mk2_SD,50432d38-3030-4316-9d6b-325f53442e6b,rev?*
G04 #@! TF.SameCoordinates,PX53920b0PY93c3260*
G04 #@! TF.FileFunction,Copper,L1,Top*
G04 #@! TF.FilePolarity,Positive*
%FSLAX46Y46*%
G04 Gerber Fmt 4.6, Leading zero omitted, Abs format (unit mm)*
G04 Created by KiCad (PCBNEW (5.1.9)-1) date 2022-08-14 15:09:30*
%MOMM*%
%LPD*%
G01*
G04 APERTURE LIST*
G04 #@! TA.AperFunction,ComponentPad*
%ADD10C,1.600000*%
G04 #@! TD*
G04 #@! TA.AperFunction,ComponentPad*
%ADD11R,1.600000X2.400000*%
G04 #@! TD*
G04 #@! TA.AperFunction,ComponentPad*
%ADD12O,1.600000X2.400000*%
G04 #@! TD*
G04 #@! TA.AperFunction,ComponentPad*
%ADD13R,1.600000X1.600000*%
G04 #@! TD*
G04 #@! TA.AperFunction,ConnectorPad*
%ADD14R,1.780000X10.000000*%
G04 #@! TD*
G04 #@! TA.AperFunction,ComponentPad*
%ADD15R,1.700000X1.700000*%
G04 #@! TD*
G04 #@! TA.AperFunction,ComponentPad*
%ADD16O,1.700000X1.700000*%
G04 #@! TD*
G04 #@! TA.AperFunction,ComponentPad*
%ADD17O,1.600000X1.600000*%
G04 #@! TD*
G04 #@! TA.AperFunction,ViaPad*
%ADD18C,0.500000*%
G04 #@! TD*
G04 #@! TA.AperFunction,Conductor*
%ADD19C,0.400000*%
G04 #@! TD*
G04 #@! TA.AperFunction,Conductor*
%ADD20C,0.200000*%
G04 #@! TD*
G04 #@! TA.AperFunction,Conductor*
%ADD21C,0.254000*%
G04 #@! TD*
G04 #@! TA.AperFunction,Conductor*
%ADD22C,0.100000*%
G04 #@! TD*
G04 APERTURE END LIST*
D10*
X18440000Y51345000D03*
X18440000Y53845000D03*
D11*
X71120000Y60325000D03*
D12*
X22860000Y45085000D03*
X68580000Y60325000D03*
X25400000Y45085000D03*
X66040000Y60325000D03*
X27940000Y45085000D03*
X63500000Y60325000D03*
X30480000Y45085000D03*
X60960000Y60325000D03*
X33020000Y45085000D03*
X58420000Y60325000D03*
X35560000Y45085000D03*
X55880000Y60325000D03*
X38100000Y45085000D03*
X53340000Y60325000D03*
X40640000Y45085000D03*
X50800000Y60325000D03*
X43180000Y45085000D03*
X48260000Y60325000D03*
X45720000Y45085000D03*
X45720000Y60325000D03*
X48260000Y45085000D03*
X43180000Y60325000D03*
X50800000Y45085000D03*
X40640000Y60325000D03*
X53340000Y45085000D03*
X38100000Y60325000D03*
X55880000Y45085000D03*
X35560000Y60325000D03*
X58420000Y45085000D03*
X33020000Y60325000D03*
X60960000Y45085000D03*
X30480000Y60325000D03*
X63500000Y45085000D03*
X27940000Y60325000D03*
X66040000Y45085000D03*
X25400000Y60325000D03*
X68580000Y45085000D03*
X22860000Y60325000D03*
X71120000Y45085000D03*
D13*
X81280000Y75565000D03*
D10*
X83780000Y75565000D03*
X41402000Y73660000D03*
X41402000Y71160000D03*
X66167000Y71160000D03*
X66167000Y73660000D03*
D11*
X62357000Y76200000D03*
D12*
X47117000Y68580000D03*
X59817000Y76200000D03*
X49657000Y68580000D03*
X57277000Y76200000D03*
X52197000Y68580000D03*
X54737000Y76200000D03*
X54737000Y68580000D03*
X52197000Y76200000D03*
X57277000Y68580000D03*
X49657000Y76200000D03*
X59817000Y68580000D03*
X47117000Y76200000D03*
X62357000Y68580000D03*
D14*
X94488000Y89662000D03*
X91948000Y89662000D03*
X89408000Y89662000D03*
X86868000Y89662000D03*
X84328000Y89662000D03*
X81788000Y89662000D03*
X79248000Y89662000D03*
X76708000Y89662000D03*
X74168000Y89662000D03*
X71628000Y89662000D03*
X69088000Y89662000D03*
X66548000Y89662000D03*
X64008000Y89662000D03*
X61468000Y89662000D03*
X58928000Y89662000D03*
X56388000Y89662000D03*
X53848000Y89662000D03*
X51308000Y89662000D03*
X48768000Y89662000D03*
X46228000Y89662000D03*
X43688000Y89662000D03*
X41148000Y89662000D03*
X38608000Y89662000D03*
X36068000Y89662000D03*
X33528000Y89662000D03*
X30988000Y89662000D03*
X28448000Y89662000D03*
X25908000Y89662000D03*
X23368000Y89662000D03*
X20828000Y89662000D03*
X18288000Y89662000D03*
X15748000Y89662000D03*
X13208000Y89662000D03*
X10668000Y89662000D03*
X8128000Y89662000D03*
X5588000Y89662000D03*
D15*
X77470000Y30480000D03*
D16*
X74930000Y30480000D03*
X72390000Y30480000D03*
X69850000Y30480000D03*
X67310000Y30480000D03*
X64770000Y30480000D03*
X62230000Y30480000D03*
X59690000Y30480000D03*
X57150000Y30480000D03*
X57150000Y2540000D03*
X57150000Y5080000D03*
X77470000Y2540000D03*
X77470000Y5080000D03*
D12*
X37592000Y68580000D03*
X22352000Y76200000D03*
X35052000Y68580000D03*
X24892000Y76200000D03*
X32512000Y68580000D03*
X27432000Y76200000D03*
X29972000Y68580000D03*
X29972000Y76200000D03*
X27432000Y68580000D03*
X32512000Y76200000D03*
X24892000Y68580000D03*
X35052000Y76200000D03*
X22352000Y68580000D03*
D11*
X37592000Y76200000D03*
D13*
X33655000Y4445000D03*
D17*
X33655000Y6985000D03*
X33655000Y9525000D03*
X18415000Y32385000D03*
X33655000Y12065000D03*
X18415000Y29845000D03*
X33655000Y14605000D03*
X18415000Y27305000D03*
X33655000Y17145000D03*
X18415000Y24765000D03*
X33655000Y19685000D03*
X18415000Y22225000D03*
X33655000Y22225000D03*
X18415000Y19685000D03*
X33655000Y24765000D03*
X18415000Y17145000D03*
X33655000Y27305000D03*
X18415000Y14605000D03*
X33655000Y29845000D03*
X18415000Y12065000D03*
X33655000Y32385000D03*
X18415000Y9525000D03*
X18415000Y6985000D03*
X18415000Y4445000D03*
X20955000Y13335000D03*
X20955000Y15875000D03*
X20955000Y23495000D03*
X20955000Y26035000D03*
D18*
X86868000Y81153000D03*
X90594500Y82379500D03*
X36738100Y63507100D03*
X64631600Y54871500D03*
X69856500Y76099500D03*
X55202000Y57985000D03*
X55221300Y62335200D03*
X59119200Y72663900D03*
X49829300Y55341300D03*
X54953100Y72663900D03*
X49373600Y58675100D03*
X53574100Y72663900D03*
X47668800Y58036600D03*
X49656000Y72689500D03*
X43209500Y74176300D03*
X44225500Y55697300D03*
X39374800Y73436400D03*
X40204600Y55044000D03*
X37719400Y73989000D03*
X37761900Y55044000D03*
X84207100Y77232300D03*
X57147900Y71278500D03*
X66308400Y75015500D03*
X59253500Y77806200D03*
X66105500Y75728200D03*
X65064900Y81100900D03*
X76200000Y82550000D03*
X42625100Y77611000D03*
X67668000Y73984300D03*
X60908300Y80063800D03*
X48557000Y54652600D03*
X43516600Y72750100D03*
X42392800Y76101200D03*
X37681500Y66510000D03*
X61474800Y52644500D03*
X56760200Y57985000D03*
X32583400Y51930400D03*
X33385200Y52773200D03*
X30433800Y52019500D03*
X27803400Y52008000D03*
D19*
X81280000Y75565000D02*
X86868000Y81153000D01*
X86868000Y85407500D02*
X86868000Y89662000D01*
X18440000Y51345000D02*
X15500000Y48405000D01*
X15500000Y48405000D02*
X15500000Y13000000D01*
X15500000Y13000000D02*
X16435000Y12065000D01*
X16435000Y12065000D02*
X18415000Y12065000D01*
X35560000Y45085000D02*
X35560000Y40940000D01*
X35560000Y40940000D02*
X38500000Y38000000D01*
X38500000Y38000000D02*
X75000000Y38000000D01*
X75000000Y38000000D02*
X77470000Y35530000D01*
X77470000Y35530000D02*
X77470000Y30480000D01*
X18440000Y51345000D02*
X31655000Y51345000D01*
X31655000Y51345000D02*
X35560000Y47440000D01*
X35560000Y47440000D02*
X35560000Y45085000D01*
X37592000Y68580000D02*
X37592000Y67592000D01*
X37592000Y67592000D02*
X34500000Y64500000D01*
X34500000Y64500000D02*
X19000000Y64500000D01*
X19000000Y64500000D02*
X15500000Y61000000D01*
X15500000Y61000000D02*
X15500000Y54285000D01*
X15500000Y54285000D02*
X18440000Y51345000D01*
X41402000Y71160000D02*
X40172000Y71160000D01*
X40172000Y71160000D02*
X37592000Y68580000D01*
X57277000Y68580000D02*
X54697000Y71160000D01*
X54697000Y71160000D02*
X41402000Y71160000D01*
X62357000Y68580000D02*
X62357000Y69643000D01*
X62357000Y69643000D02*
X61000000Y71000000D01*
X61000000Y71000000D02*
X58500000Y71000000D01*
X58500000Y71000000D02*
X57277000Y69777000D01*
X57277000Y69777000D02*
X57277000Y68580000D01*
X66167000Y71160000D02*
X64937000Y71160000D01*
X64937000Y71160000D02*
X62357000Y68580000D01*
X81280000Y75565000D02*
X70572000Y75565000D01*
X70572000Y75565000D02*
X66167000Y71160000D01*
X86868000Y89662000D02*
X86868000Y81153000D01*
X89408000Y83693000D02*
X86868000Y81153000D01*
X89408000Y89662000D02*
X89408000Y83693000D01*
X86868000Y81153000D02*
X86868000Y81153000D01*
X92520000Y89662000D02*
X91948000Y89662000D01*
X91948000Y85217000D02*
X91948000Y89662000D01*
X91948000Y83733000D02*
X90594500Y82379500D01*
X91948000Y89662000D02*
X91948000Y83733000D01*
X94488000Y89662000D02*
X94488000Y83185000D01*
X93682500Y82379500D02*
X90594500Y82379500D01*
X94488000Y83185000D02*
X93682500Y82379500D01*
D20*
X67310000Y30480000D02*
X66159700Y30480000D01*
X18415000Y24765000D02*
X28305900Y24765000D01*
X28305900Y24765000D02*
X29575900Y26035000D01*
X29575900Y26035000D02*
X61953000Y26035000D01*
X61953000Y26035000D02*
X66159700Y30241700D01*
X66159700Y30241700D02*
X66159700Y30480000D01*
X64770000Y30480000D02*
X63619700Y30480000D01*
X18415000Y27305000D02*
X19515300Y27305000D01*
X19515300Y27305000D02*
X20615600Y28405300D01*
X20615600Y28405300D02*
X61783300Y28405300D01*
X61783300Y28405300D02*
X63619700Y30241700D01*
X63619700Y30241700D02*
X63619700Y30480000D01*
X62230000Y30480000D02*
X61079700Y30480000D01*
X18415000Y29845000D02*
X19515300Y29845000D01*
X19515300Y29845000D02*
X20626600Y30956300D01*
X20626600Y30956300D02*
X51296000Y30956300D01*
X51296000Y30956300D02*
X52978800Y29273500D01*
X52978800Y29273500D02*
X60111500Y29273500D01*
X60111500Y29273500D02*
X61079700Y30241700D01*
X61079700Y30241700D02*
X61079700Y30480000D01*
X59690000Y30480000D02*
X58539700Y30480000D01*
X18415000Y32385000D02*
X19515300Y32385000D01*
X19515300Y32385000D02*
X20638500Y33508200D01*
X20638500Y33508200D02*
X55749800Y33508200D01*
X55749800Y33508200D02*
X58539700Y30718300D01*
X58539700Y30718300D02*
X58539700Y30480000D01*
X58420000Y43584700D02*
X55407100Y43584700D01*
X55407100Y43584700D02*
X54610000Y44381800D01*
X54610000Y44381800D02*
X54610000Y54390600D01*
X54610000Y54390600D02*
X49360400Y59640200D01*
X49360400Y59640200D02*
X49360400Y61216700D01*
X49360400Y61216700D02*
X47070000Y63507100D01*
X47070000Y63507100D02*
X36738100Y63507100D01*
X58420000Y45085000D02*
X58420000Y43584700D01*
X64008000Y84361700D02*
X64008000Y81379600D01*
X64008000Y81379600D02*
X69288100Y76099500D01*
X69288100Y76099500D02*
X69856500Y76099500D01*
X64008000Y89662000D02*
X64008000Y84361700D01*
X55880000Y45085000D02*
X55880000Y46585300D01*
X64631600Y54871500D02*
X56345400Y46585300D01*
X56345400Y46585300D02*
X55880000Y46585300D01*
X61468000Y89662000D02*
X61468000Y84361700D01*
X55221300Y62335200D02*
X54751700Y61865600D01*
X54751700Y61865600D02*
X54751700Y58435300D01*
X54751700Y58435300D02*
X55202000Y57985000D01*
X61468000Y84361700D02*
X60277700Y83171400D01*
X60277700Y83171400D02*
X60277700Y79804200D01*
X60277700Y79804200D02*
X58690000Y78216500D01*
X58690000Y78216500D02*
X58690000Y73093100D01*
X58690000Y73093100D02*
X59119200Y72663900D01*
X49829300Y55341300D02*
X50800000Y54370600D01*
X50800000Y54370600D02*
X50800000Y45085000D01*
X58928000Y89662000D02*
X58928000Y80782000D01*
X58928000Y80782000D02*
X56176600Y78030600D01*
X56176600Y78030600D02*
X56176600Y73887400D01*
X56176600Y73887400D02*
X54953100Y72663900D01*
X48260000Y45085000D02*
X48260000Y46585300D01*
X49373600Y58675100D02*
X48002600Y57304100D01*
X48002600Y57304100D02*
X48002600Y46842700D01*
X48002600Y46842700D02*
X48260000Y46585300D01*
X56388000Y89662000D02*
X56388000Y79815000D01*
X56388000Y79815000D02*
X53574100Y77001100D01*
X53574100Y77001100D02*
X53574100Y72663900D01*
X47668800Y58036600D02*
X45720000Y56087800D01*
X45720000Y56087800D02*
X45720000Y46585300D01*
X45720000Y45085000D02*
X45720000Y46585300D01*
X53848000Y89662000D02*
X53848000Y81782100D01*
X53848000Y81782100D02*
X51096600Y79030700D01*
X51096600Y79030700D02*
X51096600Y74130100D01*
X51096600Y74130100D02*
X49656000Y72689500D01*
X43209500Y74176300D02*
X43209500Y76263200D01*
X43209500Y76263200D02*
X51308000Y84361700D01*
X51308000Y89662000D02*
X51308000Y84361700D01*
X43180000Y45085000D02*
X43180000Y54651800D01*
X43180000Y54651800D02*
X44225500Y55697300D01*
X48768000Y84361700D02*
X48768000Y82975600D01*
X48768000Y82975600D02*
X42443900Y76651500D01*
X42443900Y76651500D02*
X42164900Y76651500D01*
X42164900Y76651500D02*
X39374800Y73861400D01*
X39374800Y73861400D02*
X39374800Y73436400D01*
X40640000Y45085000D02*
X40640000Y46585300D01*
X48768000Y89662000D02*
X48768000Y84361700D01*
X40640000Y46585300D02*
X40204600Y47020700D01*
X40204600Y47020700D02*
X40204600Y55044000D01*
X46228000Y89662000D02*
X46228000Y82375900D01*
X46228000Y82375900D02*
X37841100Y73989000D01*
X37841100Y73989000D02*
X37719400Y73989000D01*
X38100000Y45085000D02*
X38100000Y46585300D01*
X38100000Y46585300D02*
X37761900Y46923400D01*
X37761900Y46923400D02*
X37761900Y55044000D01*
X84207100Y77232300D02*
X83793000Y77232300D01*
X83793000Y77232300D02*
X82388400Y75827700D01*
X82388400Y75827700D02*
X82388400Y74635000D01*
X82388400Y74635000D02*
X69578700Y61825300D01*
X69578700Y61825300D02*
X65584200Y61825300D01*
X65584200Y61825300D02*
X64934000Y61175100D01*
X64934000Y61175100D02*
X64934000Y59607900D01*
X64934000Y59607900D02*
X62712000Y57385900D01*
X62712000Y57385900D02*
X52238800Y57385900D01*
X52238800Y57385900D02*
X50800000Y58824700D01*
X50800000Y60325000D02*
X50800000Y58824700D01*
X66308400Y75015500D02*
X63812000Y75015500D01*
X63812000Y75015500D02*
X60493800Y71697300D01*
X60493800Y71697300D02*
X57566700Y71697300D01*
X57566700Y71697300D02*
X57147900Y71278500D01*
X66105500Y75728200D02*
X64027500Y77806200D01*
X64027500Y77806200D02*
X59253500Y77806200D01*
X74612700Y81100900D02*
X65064900Y81100900D01*
X74750900Y81100900D02*
X74612700Y81100900D01*
X76200000Y82550000D02*
X74750900Y81100900D01*
X42625100Y77611000D02*
X42558300Y77611000D01*
X42558300Y77611000D02*
X38142000Y73194700D01*
X38142000Y73194700D02*
X29966500Y73194700D01*
X29966500Y73194700D02*
X26284900Y69513100D01*
X26284900Y69513100D02*
X26284900Y67714200D01*
X26284900Y67714200D02*
X26919400Y67079700D01*
X26919400Y67079700D02*
X29972000Y67079700D01*
X29972000Y68580000D02*
X29972000Y67079700D01*
X67668000Y73984300D02*
X67668000Y74944000D01*
X67668000Y74944000D02*
X62548200Y80063800D01*
X62548200Y80063800D02*
X60908300Y80063800D01*
X60960000Y45085000D02*
X60960000Y43584700D01*
X48557000Y54652600D02*
X49530000Y53679600D01*
X49530000Y53679600D02*
X49530000Y44348100D01*
X49530000Y44348100D02*
X50693800Y43184300D01*
X50693800Y43184300D02*
X60559600Y43184300D01*
X60559600Y43184300D02*
X60960000Y43584700D01*
X42392800Y76101200D02*
X42640800Y75853200D01*
X42640800Y75853200D02*
X42640800Y73625900D01*
X42640800Y73625900D02*
X43516600Y72750100D01*
X54737000Y68580000D02*
X54737000Y70080300D01*
X37681500Y66510000D02*
X38932000Y66510000D01*
X38932000Y66510000D02*
X42502300Y70080300D01*
X42502300Y70080300D02*
X54737000Y70080300D01*
X58420000Y60325000D02*
X58420000Y61825300D01*
X47117000Y68580000D02*
X47117000Y67079700D01*
X47117000Y67079700D02*
X53165600Y67079700D01*
X53165600Y67079700D02*
X58420000Y61825300D01*
X62357000Y76200000D02*
X62357000Y74699700D01*
X27432000Y68580000D02*
X27432000Y70080300D01*
X27432000Y70080300D02*
X29665900Y72314200D01*
X29665900Y72314200D02*
X43108500Y72314200D01*
X43108500Y72314200D02*
X43325000Y72097700D01*
X43325000Y72097700D02*
X59755000Y72097700D01*
X59755000Y72097700D02*
X62357000Y74699700D01*
X71120000Y60325000D02*
X71120000Y58824700D01*
X20955000Y13335000D02*
X63037700Y13335000D01*
X63037700Y13335000D02*
X79050800Y29348100D01*
X79050800Y29348100D02*
X79050800Y50893900D01*
X79050800Y50893900D02*
X71120000Y58824700D01*
X68580000Y60325000D02*
X68580000Y58824700D01*
X20955000Y15875000D02*
X65011500Y15875000D01*
X65011500Y15875000D02*
X78620400Y29483900D01*
X78620400Y29483900D02*
X78620400Y48784300D01*
X78620400Y48784300D02*
X68580000Y58824700D01*
X61474800Y52644500D02*
X66040000Y57209700D01*
X66040000Y57209700D02*
X66040000Y60325000D01*
X63500000Y60325000D02*
X63500000Y58824700D01*
X56760200Y57985000D02*
X62660300Y57985000D01*
X62660300Y57985000D02*
X63500000Y58824700D01*
X48260000Y60325000D02*
X48260000Y58824700D01*
X32583400Y51930400D02*
X33400900Y51930400D01*
X33400900Y51930400D02*
X40295200Y58824700D01*
X40295200Y58824700D02*
X48260000Y58824700D01*
X27940000Y60325000D02*
X27940000Y58824700D01*
X33385200Y52773200D02*
X33385200Y53379500D01*
X33385200Y53379500D02*
X27940000Y58824700D01*
X25400000Y60325000D02*
X25400000Y58824700D01*
X30433800Y52019500D02*
X30433800Y53790900D01*
X30433800Y53790900D02*
X25400000Y58824700D01*
X22860000Y60325000D02*
X22860000Y58824700D01*
X27803400Y52008000D02*
X27803400Y53881300D01*
X27803400Y53881300D02*
X22860000Y58824700D01*
D21*
X45493001Y82680348D02*
X39027000Y76214346D01*
X39027000Y76327002D01*
X38868252Y76327002D01*
X39027000Y76485750D01*
X39030072Y77400000D01*
X39017812Y77524482D01*
X38981502Y77644180D01*
X38922537Y77754494D01*
X38843185Y77851185D01*
X38746494Y77930537D01*
X38636180Y77989502D01*
X38516482Y78025812D01*
X38392000Y78038072D01*
X37877750Y78035000D01*
X37719000Y77876250D01*
X37719000Y76327000D01*
X37739000Y76327000D01*
X37739000Y76073000D01*
X37719000Y76073000D01*
X37719000Y76053000D01*
X37465000Y76053000D01*
X37465000Y76073000D01*
X37445000Y76073000D01*
X37445000Y76327000D01*
X37465000Y76327000D01*
X37465000Y77876250D01*
X37306250Y78035000D01*
X36792000Y78038072D01*
X36667518Y78025812D01*
X36547820Y77989502D01*
X36437506Y77930537D01*
X36340815Y77851185D01*
X36261463Y77754494D01*
X36202498Y77644180D01*
X36166188Y77524482D01*
X36164419Y77506518D01*
X36071608Y77619608D01*
X35853101Y77798932D01*
X35603808Y77932182D01*
X35333309Y78014236D01*
X35052000Y78041943D01*
X34770692Y78014236D01*
X34500193Y77932182D01*
X34250900Y77798932D01*
X34032393Y77619608D01*
X33853068Y77401101D01*
X33784735Y77273259D01*
X33634601Y77502839D01*
X33436895Y77704500D01*
X33203646Y77863715D01*
X32943818Y77974367D01*
X32861039Y77991904D01*
X32639000Y77869915D01*
X32639000Y76327000D01*
X32659000Y76327000D01*
X32659000Y76073000D01*
X32639000Y76073000D01*
X32639000Y74530085D01*
X32861039Y74408096D01*
X32943818Y74425633D01*
X33203646Y74536285D01*
X33436895Y74695500D01*
X33634601Y74897161D01*
X33784735Y75126742D01*
X33853068Y74998900D01*
X34032392Y74780393D01*
X34250899Y74601068D01*
X34500192Y74467818D01*
X34770691Y74385764D01*
X35052000Y74358057D01*
X35333308Y74385764D01*
X35603807Y74467818D01*
X35853100Y74601068D01*
X36071607Y74780392D01*
X36164419Y74893483D01*
X36166188Y74875518D01*
X36202498Y74755820D01*
X36261463Y74645506D01*
X36340815Y74548815D01*
X36437506Y74469463D01*
X36547820Y74410498D01*
X36667518Y74374188D01*
X36792000Y74361928D01*
X36916262Y74362670D01*
X36868410Y74247145D01*
X36834400Y74076165D01*
X36834400Y73929700D01*
X30002605Y73929700D01*
X29966500Y73933256D01*
X29822415Y73919065D01*
X29683866Y73877037D01*
X29598965Y73831656D01*
X29556180Y73808787D01*
X29444262Y73716938D01*
X29421246Y73688893D01*
X25812938Y70080584D01*
X25693101Y70178932D01*
X25443808Y70312182D01*
X25173309Y70394236D01*
X24892000Y70421943D01*
X24610692Y70394236D01*
X24340193Y70312182D01*
X24090900Y70178932D01*
X23872393Y69999608D01*
X23693068Y69781101D01*
X23622000Y69648142D01*
X23550932Y69781101D01*
X23371608Y69999608D01*
X23153101Y70178932D01*
X22903808Y70312182D01*
X22633309Y70394236D01*
X22352000Y70421943D01*
X22070692Y70394236D01*
X21800193Y70312182D01*
X21550900Y70178932D01*
X21332393Y69999608D01*
X21153068Y69781101D01*
X21019818Y69531808D01*
X20937764Y69261309D01*
X20917000Y69050492D01*
X20917000Y68109509D01*
X20937764Y67898692D01*
X21019818Y67628193D01*
X21153068Y67378900D01*
X21332392Y67160393D01*
X21550899Y66981068D01*
X21800192Y66847818D01*
X22070691Y66765764D01*
X22352000Y66738057D01*
X22633308Y66765764D01*
X22903807Y66847818D01*
X23153100Y66981068D01*
X23371607Y67160392D01*
X23550932Y67378899D01*
X23622000Y67511858D01*
X23693068Y67378900D01*
X23872392Y67160393D01*
X24090899Y66981068D01*
X24340192Y66847818D01*
X24610691Y66765764D01*
X24892000Y66738057D01*
X25173308Y66765764D01*
X25443807Y66847818D01*
X25693100Y66981068D01*
X25849902Y67109752D01*
X26374146Y66585507D01*
X26397162Y66557462D01*
X26509080Y66465613D01*
X26636766Y66397363D01*
X26775315Y66355335D01*
X26919400Y66341144D01*
X26955505Y66344700D01*
X29935895Y66344700D01*
X29972000Y66341144D01*
X30008105Y66344700D01*
X30116085Y66355335D01*
X30254633Y66397363D01*
X30382320Y66465613D01*
X30494238Y66557462D01*
X30586087Y66669380D01*
X30654337Y66797067D01*
X30696365Y66935615D01*
X30696826Y66940299D01*
X30773100Y66981068D01*
X30991607Y67160392D01*
X31170932Y67378899D01*
X31242000Y67511858D01*
X31313068Y67378900D01*
X31492392Y67160393D01*
X31710899Y66981068D01*
X31960192Y66847818D01*
X32230691Y66765764D01*
X32512000Y66738057D01*
X32793308Y66765764D01*
X33063807Y66847818D01*
X33313100Y66981068D01*
X33531607Y67160392D01*
X33710932Y67378899D01*
X33782000Y67511858D01*
X33853068Y67378900D01*
X34032392Y67160393D01*
X34250899Y66981068D01*
X34500192Y66847818D01*
X34770691Y66765764D01*
X35052000Y66738057D01*
X35333308Y66765764D01*
X35603807Y66847818D01*
X35739457Y66920324D01*
X34154133Y65335000D01*
X19041007Y65335000D01*
X18999999Y65339039D01*
X18958991Y65335000D01*
X18958981Y65335000D01*
X18836311Y65322918D01*
X18678913Y65275172D01*
X18533854Y65197636D01*
X18406709Y65093291D01*
X18380561Y65061429D01*
X14938579Y61619446D01*
X14906709Y61593291D01*
X14802365Y61466146D01*
X14802364Y61466145D01*
X14724828Y61321086D01*
X14677082Y61163688D01*
X14660960Y61000000D01*
X14665000Y60958981D01*
X14665001Y54326028D01*
X14660960Y54285000D01*
X14677082Y54121312D01*
X14724828Y53963914D01*
X14799783Y53823684D01*
X14802365Y53818854D01*
X14906710Y53691709D01*
X14938574Y53665559D01*
X17023714Y51580417D01*
X17005000Y51486335D01*
X17005000Y51203665D01*
X17023714Y51109583D01*
X14938579Y49024446D01*
X14906709Y48998291D01*
X14802365Y48871146D01*
X14802364Y48871145D01*
X14724828Y48726086D01*
X14677082Y48568688D01*
X14660960Y48405000D01*
X14665000Y48363982D01*
X14665001Y13041029D01*
X14660960Y13000000D01*
X14677082Y12836312D01*
X14724828Y12678914D01*
X14802364Y12533855D01*
X14802365Y12533854D01*
X14906710Y12406709D01*
X14938574Y12380559D01*
X15815563Y11503568D01*
X15841709Y11471709D01*
X15968854Y11367364D01*
X16113913Y11289828D01*
X16271311Y11242082D01*
X16393981Y11230000D01*
X16393982Y11230000D01*
X16435000Y11225960D01*
X16476018Y11230000D01*
X17247070Y11230000D01*
X17300363Y11150241D01*
X17500241Y10950363D01*
X17732759Y10795000D01*
X17500241Y10639637D01*
X17300363Y10439759D01*
X17143320Y10204727D01*
X17035147Y9943574D01*
X16980000Y9666335D01*
X16980000Y9383665D01*
X17035147Y9106426D01*
X17143320Y8845273D01*
X17300363Y8610241D01*
X17500241Y8410363D01*
X17735273Y8253320D01*
X17745865Y8248933D01*
X17559869Y8137385D01*
X17351481Y7948414D01*
X17183963Y7722420D01*
X17063754Y7468087D01*
X17023096Y7334039D01*
X17145085Y7112000D01*
X18288000Y7112000D01*
X18288000Y7132000D01*
X18542000Y7132000D01*
X18542000Y7112000D01*
X19684915Y7112000D01*
X19806904Y7334039D01*
X19766246Y7468087D01*
X19646037Y7722420D01*
X19478519Y7948414D01*
X19270131Y8137385D01*
X19084135Y8248933D01*
X19094727Y8253320D01*
X19329759Y8410363D01*
X19529637Y8610241D01*
X19686680Y8845273D01*
X19794853Y9106426D01*
X19850000Y9383665D01*
X19850000Y9666335D01*
X19794853Y9943574D01*
X19686680Y10204727D01*
X19529637Y10439759D01*
X19329759Y10639637D01*
X19097241Y10795000D01*
X19329759Y10950363D01*
X19529637Y11150241D01*
X19686680Y11385273D01*
X19794853Y11646426D01*
X19850000Y11923665D01*
X19850000Y12206335D01*
X19794853Y12483574D01*
X19789646Y12496144D01*
X19840363Y12420241D01*
X20040241Y12220363D01*
X20275273Y12063320D01*
X20536426Y11955147D01*
X20813665Y11900000D01*
X21096335Y11900000D01*
X21373574Y11955147D01*
X21634727Y12063320D01*
X21869759Y12220363D01*
X22069637Y12420241D01*
X22189748Y12600000D01*
X32323372Y12600000D01*
X32275147Y12483574D01*
X32220000Y12206335D01*
X32220000Y11923665D01*
X32275147Y11646426D01*
X32383320Y11385273D01*
X32540363Y11150241D01*
X32740241Y10950363D01*
X32972759Y10795000D01*
X32740241Y10639637D01*
X32540363Y10439759D01*
X32383320Y10204727D01*
X32275147Y9943574D01*
X32220000Y9666335D01*
X32220000Y9383665D01*
X32275147Y9106426D01*
X32383320Y8845273D01*
X32540363Y8610241D01*
X32740241Y8410363D01*
X32972759Y8255000D01*
X32740241Y8099637D01*
X32540363Y7899759D01*
X32383320Y7664727D01*
X32275147Y7403574D01*
X32220000Y7126335D01*
X32220000Y6843665D01*
X32275147Y6566426D01*
X32383320Y6305273D01*
X32540363Y6070241D01*
X32738961Y5871643D01*
X32730518Y5870812D01*
X32610820Y5834502D01*
X32500506Y5775537D01*
X32403815Y5696185D01*
X32324463Y5599494D01*
X32265498Y5489180D01*
X32229188Y5369482D01*
X32216928Y5245000D01*
X32216928Y3645000D01*
X32229188Y3520518D01*
X32265498Y3400820D01*
X32324463Y3290506D01*
X32403815Y3193815D01*
X32500506Y3114463D01*
X32610820Y3055498D01*
X32730518Y3019188D01*
X32855000Y3006928D01*
X34455000Y3006928D01*
X34579482Y3019188D01*
X34699180Y3055498D01*
X34809494Y3114463D01*
X34906185Y3193815D01*
X34985537Y3290506D01*
X35044502Y3400820D01*
X35080812Y3520518D01*
X35093072Y3645000D01*
X35093072Y5226260D01*
X55665000Y5226260D01*
X55665000Y4933740D01*
X55722068Y4646842D01*
X55834010Y4376589D01*
X55996525Y4133368D01*
X56203368Y3926525D01*
X56377760Y3810000D01*
X56203368Y3693475D01*
X55996525Y3486632D01*
X55834010Y3243411D01*
X55722068Y2973158D01*
X55665000Y2686260D01*
X55665000Y2393740D01*
X55722068Y2106842D01*
X55834010Y1836589D01*
X55996525Y1593368D01*
X56203368Y1386525D01*
X56446589Y1224010D01*
X56716842Y1112068D01*
X57003740Y1055000D01*
X57296260Y1055000D01*
X57583158Y1112068D01*
X57853411Y1224010D01*
X58096632Y1386525D01*
X58303475Y1593368D01*
X58465990Y1836589D01*
X58577932Y2106842D01*
X58635000Y2393740D01*
X58635000Y2686260D01*
X58577932Y2973158D01*
X58465990Y3243411D01*
X58303475Y3486632D01*
X58096632Y3693475D01*
X57922240Y3810000D01*
X58096632Y3926525D01*
X58303475Y4133368D01*
X58465990Y4376589D01*
X58577932Y4646842D01*
X58635000Y4933740D01*
X58635000Y5226260D01*
X75985000Y5226260D01*
X75985000Y4933740D01*
X76042068Y4646842D01*
X76154010Y4376589D01*
X76316525Y4133368D01*
X76523368Y3926525D01*
X76697760Y3810000D01*
X76523368Y3693475D01*
X76316525Y3486632D01*
X76154010Y3243411D01*
X76042068Y2973158D01*
X75985000Y2686260D01*
X75985000Y2393740D01*
X76042068Y2106842D01*
X76154010Y1836589D01*
X76316525Y1593368D01*
X76523368Y1386525D01*
X76766589Y1224010D01*
X77036842Y1112068D01*
X77323740Y1055000D01*
X77616260Y1055000D01*
X77903158Y1112068D01*
X78173411Y1224010D01*
X78416632Y1386525D01*
X78623475Y1593368D01*
X78785990Y1836589D01*
X78897932Y2106842D01*
X78955000Y2393740D01*
X78955000Y2686260D01*
X78897932Y2973158D01*
X78785990Y3243411D01*
X78623475Y3486632D01*
X78416632Y3693475D01*
X78242240Y3810000D01*
X78416632Y3926525D01*
X78623475Y4133368D01*
X78785990Y4376589D01*
X78897932Y4646842D01*
X78955000Y4933740D01*
X78955000Y5220128D01*
X92765000Y5220128D01*
X92765000Y4779872D01*
X92850890Y4348075D01*
X93019369Y3941331D01*
X93263962Y3575271D01*
X93575271Y3263962D01*
X93941331Y3019369D01*
X94348075Y2850890D01*
X94779872Y2765000D01*
X95220128Y2765000D01*
X95651925Y2850890D01*
X96058669Y3019369D01*
X96424729Y3263962D01*
X96736038Y3575271D01*
X96980631Y3941331D01*
X97149110Y4348075D01*
X97235000Y4779872D01*
X97235000Y5220128D01*
X97149110Y5651925D01*
X96980631Y6058669D01*
X96736038Y6424729D01*
X96424729Y6736038D01*
X96058669Y6980631D01*
X95651925Y7149110D01*
X95220128Y7235000D01*
X94779872Y7235000D01*
X94348075Y7149110D01*
X93941331Y6980631D01*
X93575271Y6736038D01*
X93263962Y6424729D01*
X93019369Y6058669D01*
X92850890Y5651925D01*
X92765000Y5220128D01*
X78955000Y5220128D01*
X78955000Y5226260D01*
X78897932Y5513158D01*
X78785990Y5783411D01*
X78623475Y6026632D01*
X78416632Y6233475D01*
X78173411Y6395990D01*
X77903158Y6507932D01*
X77616260Y6565000D01*
X77323740Y6565000D01*
X77036842Y6507932D01*
X76766589Y6395990D01*
X76523368Y6233475D01*
X76316525Y6026632D01*
X76154010Y5783411D01*
X76042068Y5513158D01*
X75985000Y5226260D01*
X58635000Y5226260D01*
X58577932Y5513158D01*
X58465990Y5783411D01*
X58303475Y6026632D01*
X58096632Y6233475D01*
X57853411Y6395990D01*
X57583158Y6507932D01*
X57296260Y6565000D01*
X57003740Y6565000D01*
X56716842Y6507932D01*
X56446589Y6395990D01*
X56203368Y6233475D01*
X55996525Y6026632D01*
X55834010Y5783411D01*
X55722068Y5513158D01*
X55665000Y5226260D01*
X35093072Y5226260D01*
X35093072Y5245000D01*
X35080812Y5369482D01*
X35044502Y5489180D01*
X34985537Y5599494D01*
X34906185Y5696185D01*
X34809494Y5775537D01*
X34699180Y5834502D01*
X34579482Y5870812D01*
X34571039Y5871643D01*
X34769637Y6070241D01*
X34926680Y6305273D01*
X35034853Y6566426D01*
X35090000Y6843665D01*
X35090000Y7126335D01*
X35034853Y7403574D01*
X34926680Y7664727D01*
X34769637Y7899759D01*
X34569759Y8099637D01*
X34337241Y8255000D01*
X34569759Y8410363D01*
X34769637Y8610241D01*
X34926680Y8845273D01*
X35034853Y9106426D01*
X35090000Y9383665D01*
X35090000Y9666335D01*
X35034853Y9943574D01*
X34926680Y10204727D01*
X34769637Y10439759D01*
X34569759Y10639637D01*
X34337241Y10795000D01*
X34569759Y10950363D01*
X34769637Y11150241D01*
X34926680Y11385273D01*
X35034853Y11646426D01*
X35090000Y11923665D01*
X35090000Y12206335D01*
X35034853Y12483574D01*
X34986628Y12600000D01*
X63001595Y12600000D01*
X63037700Y12596444D01*
X63073805Y12600000D01*
X63181785Y12610635D01*
X63320333Y12652663D01*
X63448020Y12720913D01*
X63559938Y12812762D01*
X63582959Y12840813D01*
X79544998Y28802851D01*
X79573037Y28825862D01*
X79596050Y28853903D01*
X79596053Y28853906D01*
X79664886Y28937779D01*
X79664887Y28937780D01*
X79733137Y29065467D01*
X79775165Y29204015D01*
X79785800Y29311995D01*
X79785800Y29312004D01*
X79789355Y29348099D01*
X79785800Y29384194D01*
X79785800Y50857795D01*
X79789356Y50893900D01*
X79775165Y51037985D01*
X79749376Y51123000D01*
X79733137Y51176533D01*
X79664887Y51304220D01*
X79573038Y51416138D01*
X79544993Y51439154D01*
X72337761Y58646385D01*
X72371185Y58673815D01*
X72450537Y58770506D01*
X72509502Y58880820D01*
X72545812Y59000518D01*
X72558072Y59125000D01*
X72558072Y61525000D01*
X72545812Y61649482D01*
X72509502Y61769180D01*
X72450537Y61879494D01*
X72371185Y61976185D01*
X72274494Y62055537D01*
X72164180Y62114502D01*
X72044482Y62150812D01*
X71920000Y62163072D01*
X70955918Y62163072D01*
X82882593Y74089746D01*
X82910638Y74112762D01*
X83002487Y74224680D01*
X83053972Y74321002D01*
X83293996Y74207429D01*
X83568184Y74138700D01*
X83850512Y74124783D01*
X84130130Y74166213D01*
X84396292Y74261397D01*
X84521514Y74328329D01*
X84593097Y74572298D01*
X83780000Y75385395D01*
X83765858Y75371252D01*
X83586253Y75550857D01*
X83600395Y75565000D01*
X83586253Y75579142D01*
X83765858Y75758747D01*
X83780000Y75744605D01*
X83794143Y75758747D01*
X83973748Y75579142D01*
X83959605Y75565000D01*
X84772702Y74751903D01*
X85016671Y74823486D01*
X85137571Y75078996D01*
X85206300Y75353184D01*
X85220217Y75635512D01*
X85178787Y75915130D01*
X85083603Y76181292D01*
X85016671Y76306514D01*
X84772704Y76378097D01*
X84888977Y76494370D01*
X84804863Y76578484D01*
X84894524Y76668145D01*
X84991377Y76813095D01*
X85058090Y76974155D01*
X85092100Y77145135D01*
X85092100Y77220128D01*
X92765000Y77220128D01*
X92765000Y76779872D01*
X92850890Y76348075D01*
X93019369Y75941331D01*
X93263962Y75575271D01*
X93575271Y75263962D01*
X93941331Y75019369D01*
X94348075Y74850890D01*
X94779872Y74765000D01*
X95220128Y74765000D01*
X95651925Y74850890D01*
X96058669Y75019369D01*
X96424729Y75263962D01*
X96736038Y75575271D01*
X96980631Y75941331D01*
X97149110Y76348075D01*
X97235000Y76779872D01*
X97235000Y77220128D01*
X97149110Y77651925D01*
X96980631Y78058669D01*
X96736038Y78424729D01*
X96424729Y78736038D01*
X96058669Y78980631D01*
X95651925Y79149110D01*
X95220128Y79235000D01*
X94779872Y79235000D01*
X94348075Y79149110D01*
X93941331Y78980631D01*
X93575271Y78736038D01*
X93263962Y78424729D01*
X93019369Y78058669D01*
X92850890Y77651925D01*
X92765000Y77220128D01*
X85092100Y77220128D01*
X85092100Y77319465D01*
X85058090Y77490445D01*
X84991377Y77651505D01*
X84894524Y77796455D01*
X84793423Y77897556D01*
X87248601Y80352733D01*
X87287205Y80368723D01*
X87432155Y80465576D01*
X87555424Y80588845D01*
X87652277Y80733795D01*
X87668268Y80772401D01*
X89969427Y83073559D01*
X90001291Y83099709D01*
X90105636Y83226854D01*
X90183172Y83371913D01*
X90183502Y83373000D01*
X99289001Y83373000D01*
X99289000Y660000D01*
X660000Y660000D01*
X660000Y5220128D01*
X2765000Y5220128D01*
X2765000Y4779872D01*
X2850890Y4348075D01*
X3019369Y3941331D01*
X3263962Y3575271D01*
X3575271Y3263962D01*
X3941331Y3019369D01*
X4348075Y2850890D01*
X4779872Y2765000D01*
X5220128Y2765000D01*
X5651925Y2850890D01*
X6058669Y3019369D01*
X6424729Y3263962D01*
X6736038Y3575271D01*
X6980631Y3941331D01*
X7149110Y4348075D01*
X7196502Y4586335D01*
X16980000Y4586335D01*
X16980000Y4303665D01*
X17035147Y4026426D01*
X17143320Y3765273D01*
X17300363Y3530241D01*
X17500241Y3330363D01*
X17735273Y3173320D01*
X17996426Y3065147D01*
X18273665Y3010000D01*
X18556335Y3010000D01*
X18833574Y3065147D01*
X19094727Y3173320D01*
X19329759Y3330363D01*
X19529637Y3530241D01*
X19686680Y3765273D01*
X19794853Y4026426D01*
X19850000Y4303665D01*
X19850000Y4586335D01*
X19794853Y4863574D01*
X19686680Y5124727D01*
X19529637Y5359759D01*
X19329759Y5559637D01*
X19094727Y5716680D01*
X19084135Y5721067D01*
X19270131Y5832615D01*
X19478519Y6021586D01*
X19646037Y6247580D01*
X19766246Y6501913D01*
X19806904Y6635961D01*
X19684915Y6858000D01*
X18542000Y6858000D01*
X18542000Y6838000D01*
X18288000Y6838000D01*
X18288000Y6858000D01*
X17145085Y6858000D01*
X17023096Y6635961D01*
X17063754Y6501913D01*
X17183963Y6247580D01*
X17351481Y6021586D01*
X17559869Y5832615D01*
X17745865Y5721067D01*
X17735273Y5716680D01*
X17500241Y5559637D01*
X17300363Y5359759D01*
X17143320Y5124727D01*
X17035147Y4863574D01*
X16980000Y4586335D01*
X7196502Y4586335D01*
X7235000Y4779872D01*
X7235000Y5220128D01*
X7149110Y5651925D01*
X6980631Y6058669D01*
X6736038Y6424729D01*
X6424729Y6736038D01*
X6058669Y6980631D01*
X5651925Y7149110D01*
X5220128Y7235000D01*
X4779872Y7235000D01*
X4348075Y7149110D01*
X3941331Y6980631D01*
X3575271Y6736038D01*
X3263962Y6424729D01*
X3019369Y6058669D01*
X2850890Y5651925D01*
X2765000Y5220128D01*
X660000Y5220128D01*
X660000Y77220128D01*
X2765000Y77220128D01*
X2765000Y76779872D01*
X2850890Y76348075D01*
X3019369Y75941331D01*
X3263962Y75575271D01*
X3575271Y75263962D01*
X3941331Y75019369D01*
X4348075Y74850890D01*
X4779872Y74765000D01*
X5220128Y74765000D01*
X5651925Y74850890D01*
X6058669Y75019369D01*
X6424729Y75263962D01*
X6736038Y75575271D01*
X6980631Y75941331D01*
X7035170Y76073000D01*
X20917000Y76073000D01*
X20917000Y75673000D01*
X20969350Y75395486D01*
X21074834Y75133517D01*
X21229399Y74897161D01*
X21427105Y74695500D01*
X21660354Y74536285D01*
X21920182Y74425633D01*
X22002961Y74408096D01*
X22225000Y74530085D01*
X22225000Y76073000D01*
X20917000Y76073000D01*
X7035170Y76073000D01*
X7149110Y76348075D01*
X7224483Y76727000D01*
X20917000Y76727000D01*
X20917000Y76327000D01*
X22225000Y76327000D01*
X22225000Y77869915D01*
X22479000Y77869915D01*
X22479000Y76327000D01*
X22499000Y76327000D01*
X22499000Y76073000D01*
X22479000Y76073000D01*
X22479000Y74530085D01*
X22701039Y74408096D01*
X22783818Y74425633D01*
X23043646Y74536285D01*
X23276895Y74695500D01*
X23474601Y74897161D01*
X23624735Y75126742D01*
X23693068Y74998900D01*
X23872392Y74780393D01*
X24090899Y74601068D01*
X24340192Y74467818D01*
X24610691Y74385764D01*
X24892000Y74358057D01*
X25173308Y74385764D01*
X25443807Y74467818D01*
X25693100Y74601068D01*
X25911607Y74780392D01*
X26090932Y74998899D01*
X26159265Y75126741D01*
X26309399Y74897161D01*
X26507105Y74695500D01*
X26740354Y74536285D01*
X27000182Y74425633D01*
X27082961Y74408096D01*
X27305000Y74530085D01*
X27305000Y76073000D01*
X27285000Y76073000D01*
X27285000Y76327000D01*
X27305000Y76327000D01*
X27305000Y77869915D01*
X27559000Y77869915D01*
X27559000Y76327000D01*
X27579000Y76327000D01*
X27579000Y76073000D01*
X27559000Y76073000D01*
X27559000Y74530085D01*
X27781039Y74408096D01*
X27863818Y74425633D01*
X28123646Y74536285D01*
X28356895Y74695500D01*
X28554601Y74897161D01*
X28704735Y75126742D01*
X28773068Y74998900D01*
X28952392Y74780393D01*
X29170899Y74601068D01*
X29420192Y74467818D01*
X29690691Y74385764D01*
X29972000Y74358057D01*
X30253308Y74385764D01*
X30523807Y74467818D01*
X30773100Y74601068D01*
X30991607Y74780392D01*
X31170932Y74998899D01*
X31239265Y75126741D01*
X31389399Y74897161D01*
X31587105Y74695500D01*
X31820354Y74536285D01*
X32080182Y74425633D01*
X32162961Y74408096D01*
X32385000Y74530085D01*
X32385000Y76073000D01*
X32365000Y76073000D01*
X32365000Y76327000D01*
X32385000Y76327000D01*
X32385000Y77869915D01*
X32162961Y77991904D01*
X32080182Y77974367D01*
X31820354Y77863715D01*
X31587105Y77704500D01*
X31389399Y77502839D01*
X31239265Y77273259D01*
X31170932Y77401101D01*
X30991608Y77619608D01*
X30773101Y77798932D01*
X30523808Y77932182D01*
X30253309Y78014236D01*
X29972000Y78041943D01*
X29690692Y78014236D01*
X29420193Y77932182D01*
X29170900Y77798932D01*
X28952393Y77619608D01*
X28773068Y77401101D01*
X28704735Y77273259D01*
X28554601Y77502839D01*
X28356895Y77704500D01*
X28123646Y77863715D01*
X27863818Y77974367D01*
X27781039Y77991904D01*
X27559000Y77869915D01*
X27305000Y77869915D01*
X27082961Y77991904D01*
X27000182Y77974367D01*
X26740354Y77863715D01*
X26507105Y77704500D01*
X26309399Y77502839D01*
X26159265Y77273259D01*
X26090932Y77401101D01*
X25911608Y77619608D01*
X25693101Y77798932D01*
X25443808Y77932182D01*
X25173309Y78014236D01*
X24892000Y78041943D01*
X24610692Y78014236D01*
X24340193Y77932182D01*
X24090900Y77798932D01*
X23872393Y77619608D01*
X23693068Y77401101D01*
X23624735Y77273259D01*
X23474601Y77502839D01*
X23276895Y77704500D01*
X23043646Y77863715D01*
X22783818Y77974367D01*
X22701039Y77991904D01*
X22479000Y77869915D01*
X22225000Y77869915D01*
X22002961Y77991904D01*
X21920182Y77974367D01*
X21660354Y77863715D01*
X21427105Y77704500D01*
X21229399Y77502839D01*
X21074834Y77266483D01*
X20969350Y77004514D01*
X20917000Y76727000D01*
X7224483Y76727000D01*
X7235000Y76779872D01*
X7235000Y77220128D01*
X7149110Y77651925D01*
X6980631Y78058669D01*
X6736038Y78424729D01*
X6424729Y78736038D01*
X6058669Y78980631D01*
X5651925Y79149110D01*
X5220128Y79235000D01*
X4779872Y79235000D01*
X4348075Y79149110D01*
X3941331Y78980631D01*
X3575271Y78736038D01*
X3263962Y78424729D01*
X3019369Y78058669D01*
X2850890Y77651925D01*
X2765000Y77220128D01*
X660000Y77220128D01*
X660000Y83373000D01*
X45493001Y83373000D01*
X45493001Y82680348D01*
G04 #@! TA.AperFunction,Conductor*
D22*
G36*
X45493001Y82680348D02*
G01*
X39027000Y76214346D01*
X39027000Y76327002D01*
X38868252Y76327002D01*
X39027000Y76485750D01*
X39030072Y77400000D01*
X39017812Y77524482D01*
X38981502Y77644180D01*
X38922537Y77754494D01*
X38843185Y77851185D01*
X38746494Y77930537D01*
X38636180Y77989502D01*
X38516482Y78025812D01*
X38392000Y78038072D01*
X37877750Y78035000D01*
X37719000Y77876250D01*
X37719000Y76327000D01*
X37739000Y76327000D01*
X37739000Y76073000D01*
X37719000Y76073000D01*
X37719000Y76053000D01*
X37465000Y76053000D01*
X37465000Y76073000D01*
X37445000Y76073000D01*
X37445000Y76327000D01*
X37465000Y76327000D01*
X37465000Y77876250D01*
X37306250Y78035000D01*
X36792000Y78038072D01*
X36667518Y78025812D01*
X36547820Y77989502D01*
X36437506Y77930537D01*
X36340815Y77851185D01*
X36261463Y77754494D01*
X36202498Y77644180D01*
X36166188Y77524482D01*
X36164419Y77506518D01*
X36071608Y77619608D01*
X35853101Y77798932D01*
X35603808Y77932182D01*
X35333309Y78014236D01*
X35052000Y78041943D01*
X34770692Y78014236D01*
X34500193Y77932182D01*
X34250900Y77798932D01*
X34032393Y77619608D01*
X33853068Y77401101D01*
X33784735Y77273259D01*
X33634601Y77502839D01*
X33436895Y77704500D01*
X33203646Y77863715D01*
X32943818Y77974367D01*
X32861039Y77991904D01*
X32639000Y77869915D01*
X32639000Y76327000D01*
X32659000Y76327000D01*
X32659000Y76073000D01*
X32639000Y76073000D01*
X32639000Y74530085D01*
X32861039Y74408096D01*
X32943818Y74425633D01*
X33203646Y74536285D01*
X33436895Y74695500D01*
X33634601Y74897161D01*
X33784735Y75126742D01*
X33853068Y74998900D01*
X34032392Y74780393D01*
X34250899Y74601068D01*
X34500192Y74467818D01*
X34770691Y74385764D01*
X35052000Y74358057D01*
X35333308Y74385764D01*
X35603807Y74467818D01*
X35853100Y74601068D01*
X36071607Y74780392D01*
X36164419Y74893483D01*
X36166188Y74875518D01*
X36202498Y74755820D01*
X36261463Y74645506D01*
X36340815Y74548815D01*
X36437506Y74469463D01*
X36547820Y74410498D01*
X36667518Y74374188D01*
X36792000Y74361928D01*
X36916262Y74362670D01*
X36868410Y74247145D01*
X36834400Y74076165D01*
X36834400Y73929700D01*
X30002605Y73929700D01*
X29966500Y73933256D01*
X29822415Y73919065D01*
X29683866Y73877037D01*
X29598965Y73831656D01*
X29556180Y73808787D01*
X29444262Y73716938D01*
X29421246Y73688893D01*
X25812938Y70080584D01*
X25693101Y70178932D01*
X25443808Y70312182D01*
X25173309Y70394236D01*
X24892000Y70421943D01*
X24610692Y70394236D01*
X24340193Y70312182D01*
X24090900Y70178932D01*
X23872393Y69999608D01*
X23693068Y69781101D01*
X23622000Y69648142D01*
X23550932Y69781101D01*
X23371608Y69999608D01*
X23153101Y70178932D01*
X22903808Y70312182D01*
X22633309Y70394236D01*
X22352000Y70421943D01*
X22070692Y70394236D01*
X21800193Y70312182D01*
X21550900Y70178932D01*
X21332393Y69999608D01*
X21153068Y69781101D01*
X21019818Y69531808D01*
X20937764Y69261309D01*
X20917000Y69050492D01*
X20917000Y68109509D01*
X20937764Y67898692D01*
X21019818Y67628193D01*
X21153068Y67378900D01*
X21332392Y67160393D01*
X21550899Y66981068D01*
X21800192Y66847818D01*
X22070691Y66765764D01*
X22352000Y66738057D01*
X22633308Y66765764D01*
X22903807Y66847818D01*
X23153100Y66981068D01*
X23371607Y67160392D01*
X23550932Y67378899D01*
X23622000Y67511858D01*
X23693068Y67378900D01*
X23872392Y67160393D01*
X24090899Y66981068D01*
X24340192Y66847818D01*
X24610691Y66765764D01*
X24892000Y66738057D01*
X25173308Y66765764D01*
X25443807Y66847818D01*
X25693100Y66981068D01*
X25849902Y67109752D01*
X26374146Y66585507D01*
X26397162Y66557462D01*
X26509080Y66465613D01*
X26636766Y66397363D01*
X26775315Y66355335D01*
X26919400Y66341144D01*
X26955505Y66344700D01*
X29935895Y66344700D01*
X29972000Y66341144D01*
X30008105Y66344700D01*
X30116085Y66355335D01*
X30254633Y66397363D01*
X30382320Y66465613D01*
X30494238Y66557462D01*
X30586087Y66669380D01*
X30654337Y66797067D01*
X30696365Y66935615D01*
X30696826Y66940299D01*
X30773100Y66981068D01*
X30991607Y67160392D01*
X31170932Y67378899D01*
X31242000Y67511858D01*
X31313068Y67378900D01*
X31492392Y67160393D01*
X31710899Y66981068D01*
X31960192Y66847818D01*
X32230691Y66765764D01*
X32512000Y66738057D01*
X32793308Y66765764D01*
X33063807Y66847818D01*
X33313100Y66981068D01*
X33531607Y67160392D01*
X33710932Y67378899D01*
X33782000Y67511858D01*
X33853068Y67378900D01*
X34032392Y67160393D01*
X34250899Y66981068D01*
X34500192Y66847818D01*
X34770691Y66765764D01*
X35052000Y66738057D01*
X35333308Y66765764D01*
X35603807Y66847818D01*
X35739457Y66920324D01*
X34154133Y65335000D01*
X19041007Y65335000D01*
X18999999Y65339039D01*
X18958991Y65335000D01*
X18958981Y65335000D01*
X18836311Y65322918D01*
X18678913Y65275172D01*
X18533854Y65197636D01*
X18406709Y65093291D01*
X18380561Y65061429D01*
X14938579Y61619446D01*
X14906709Y61593291D01*
X14802365Y61466146D01*
X14802364Y61466145D01*
X14724828Y61321086D01*
X14677082Y61163688D01*
X14660960Y61000000D01*
X14665000Y60958981D01*
X14665001Y54326028D01*
X14660960Y54285000D01*
X14677082Y54121312D01*
X14724828Y53963914D01*
X14799783Y53823684D01*
X14802365Y53818854D01*
X14906710Y53691709D01*
X14938574Y53665559D01*
X17023714Y51580417D01*
X17005000Y51486335D01*
X17005000Y51203665D01*
X17023714Y51109583D01*
X14938579Y49024446D01*
X14906709Y48998291D01*
X14802365Y48871146D01*
X14802364Y48871145D01*
X14724828Y48726086D01*
X14677082Y48568688D01*
X14660960Y48405000D01*
X14665000Y48363982D01*
X14665001Y13041029D01*
X14660960Y13000000D01*
X14677082Y12836312D01*
X14724828Y12678914D01*
X14802364Y12533855D01*
X14802365Y12533854D01*
X14906710Y12406709D01*
X14938574Y12380559D01*
X15815563Y11503568D01*
X15841709Y11471709D01*
X15968854Y11367364D01*
X16113913Y11289828D01*
X16271311Y11242082D01*
X16393981Y11230000D01*
X16393982Y11230000D01*
X16435000Y11225960D01*
X16476018Y11230000D01*
X17247070Y11230000D01*
X17300363Y11150241D01*
X17500241Y10950363D01*
X17732759Y10795000D01*
X17500241Y10639637D01*
X17300363Y10439759D01*
X17143320Y10204727D01*
X17035147Y9943574D01*
X16980000Y9666335D01*
X16980000Y9383665D01*
X17035147Y9106426D01*
X17143320Y8845273D01*
X17300363Y8610241D01*
X17500241Y8410363D01*
X17735273Y8253320D01*
X17745865Y8248933D01*
X17559869Y8137385D01*
X17351481Y7948414D01*
X17183963Y7722420D01*
X17063754Y7468087D01*
X17023096Y7334039D01*
X17145085Y7112000D01*
X18288000Y7112000D01*
X18288000Y7132000D01*
X18542000Y7132000D01*
X18542000Y7112000D01*
X19684915Y7112000D01*
X19806904Y7334039D01*
X19766246Y7468087D01*
X19646037Y7722420D01*
X19478519Y7948414D01*
X19270131Y8137385D01*
X19084135Y8248933D01*
X19094727Y8253320D01*
X19329759Y8410363D01*
X19529637Y8610241D01*
X19686680Y8845273D01*
X19794853Y9106426D01*
X19850000Y9383665D01*
X19850000Y9666335D01*
X19794853Y9943574D01*
X19686680Y10204727D01*
X19529637Y10439759D01*
X19329759Y10639637D01*
X19097241Y10795000D01*
X19329759Y10950363D01*
X19529637Y11150241D01*
X19686680Y11385273D01*
X19794853Y11646426D01*
X19850000Y11923665D01*
X19850000Y12206335D01*
X19794853Y12483574D01*
X19789646Y12496144D01*
X19840363Y12420241D01*
X20040241Y12220363D01*
X20275273Y12063320D01*
X20536426Y11955147D01*
X20813665Y11900000D01*
X21096335Y11900000D01*
X21373574Y11955147D01*
X21634727Y12063320D01*
X21869759Y12220363D01*
X22069637Y12420241D01*
X22189748Y12600000D01*
X32323372Y12600000D01*
X32275147Y12483574D01*
X32220000Y12206335D01*
X32220000Y11923665D01*
X32275147Y11646426D01*
X32383320Y11385273D01*
X32540363Y11150241D01*
X32740241Y10950363D01*
X32972759Y10795000D01*
X32740241Y10639637D01*
X32540363Y10439759D01*
X32383320Y10204727D01*
X32275147Y9943574D01*
X32220000Y9666335D01*
X32220000Y9383665D01*
X32275147Y9106426D01*
X32383320Y8845273D01*
X32540363Y8610241D01*
X32740241Y8410363D01*
X32972759Y8255000D01*
X32740241Y8099637D01*
X32540363Y7899759D01*
X32383320Y7664727D01*
X32275147Y7403574D01*
X32220000Y7126335D01*
X32220000Y6843665D01*
X32275147Y6566426D01*
X32383320Y6305273D01*
X32540363Y6070241D01*
X32738961Y5871643D01*
X32730518Y5870812D01*
X32610820Y5834502D01*
X32500506Y5775537D01*
X32403815Y5696185D01*
X32324463Y5599494D01*
X32265498Y5489180D01*
X32229188Y5369482D01*
X32216928Y5245000D01*
X32216928Y3645000D01*
X32229188Y3520518D01*
X32265498Y3400820D01*
X32324463Y3290506D01*
X32403815Y3193815D01*
X32500506Y3114463D01*
X32610820Y3055498D01*
X32730518Y3019188D01*
X32855000Y3006928D01*
X34455000Y3006928D01*
X34579482Y3019188D01*
X34699180Y3055498D01*
X34809494Y3114463D01*
X34906185Y3193815D01*
X34985537Y3290506D01*
X35044502Y3400820D01*
X35080812Y3520518D01*
X35093072Y3645000D01*
X35093072Y5226260D01*
X55665000Y5226260D01*
X55665000Y4933740D01*
X55722068Y4646842D01*
X55834010Y4376589D01*
X55996525Y4133368D01*
X56203368Y3926525D01*
X56377760Y3810000D01*
X56203368Y3693475D01*
X55996525Y3486632D01*
X55834010Y3243411D01*
X55722068Y2973158D01*
X55665000Y2686260D01*
X55665000Y2393740D01*
X55722068Y2106842D01*
X55834010Y1836589D01*
X55996525Y1593368D01*
X56203368Y1386525D01*
X56446589Y1224010D01*
X56716842Y1112068D01*
X57003740Y1055000D01*
X57296260Y1055000D01*
X57583158Y1112068D01*
X57853411Y1224010D01*
X58096632Y1386525D01*
X58303475Y1593368D01*
X58465990Y1836589D01*
X58577932Y2106842D01*
X58635000Y2393740D01*
X58635000Y2686260D01*
X58577932Y2973158D01*
X58465990Y3243411D01*
X58303475Y3486632D01*
X58096632Y3693475D01*
X57922240Y3810000D01*
X58096632Y3926525D01*
X58303475Y4133368D01*
X58465990Y4376589D01*
X58577932Y4646842D01*
X58635000Y4933740D01*
X58635000Y5226260D01*
X75985000Y5226260D01*
X75985000Y4933740D01*
X76042068Y4646842D01*
X76154010Y4376589D01*
X76316525Y4133368D01*
X76523368Y3926525D01*
X76697760Y3810000D01*
X76523368Y3693475D01*
X76316525Y3486632D01*
X76154010Y3243411D01*
X76042068Y2973158D01*
X75985000Y2686260D01*
X75985000Y2393740D01*
X76042068Y2106842D01*
X76154010Y1836589D01*
X76316525Y1593368D01*
X76523368Y1386525D01*
X76766589Y1224010D01*
X77036842Y1112068D01*
X77323740Y1055000D01*
X77616260Y1055000D01*
X77903158Y1112068D01*
X78173411Y1224010D01*
X78416632Y1386525D01*
X78623475Y1593368D01*
X78785990Y1836589D01*
X78897932Y2106842D01*
X78955000Y2393740D01*
X78955000Y2686260D01*
X78897932Y2973158D01*
X78785990Y3243411D01*
X78623475Y3486632D01*
X78416632Y3693475D01*
X78242240Y3810000D01*
X78416632Y3926525D01*
X78623475Y4133368D01*
X78785990Y4376589D01*
X78897932Y4646842D01*
X78955000Y4933740D01*
X78955000Y5220128D01*
X92765000Y5220128D01*
X92765000Y4779872D01*
X92850890Y4348075D01*
X93019369Y3941331D01*
X93263962Y3575271D01*
X93575271Y3263962D01*
X93941331Y3019369D01*
X94348075Y2850890D01*
X94779872Y2765000D01*
X95220128Y2765000D01*
X95651925Y2850890D01*
X96058669Y3019369D01*
X96424729Y3263962D01*
X96736038Y3575271D01*
X96980631Y3941331D01*
X97149110Y4348075D01*
X97235000Y4779872D01*
X97235000Y5220128D01*
X97149110Y5651925D01*
X96980631Y6058669D01*
X96736038Y6424729D01*
X96424729Y6736038D01*
X96058669Y6980631D01*
X95651925Y7149110D01*
X95220128Y7235000D01*
X94779872Y7235000D01*
X94348075Y7149110D01*
X93941331Y6980631D01*
X93575271Y6736038D01*
X93263962Y6424729D01*
X93019369Y6058669D01*
X92850890Y5651925D01*
X92765000Y5220128D01*
X78955000Y5220128D01*
X78955000Y5226260D01*
X78897932Y5513158D01*
X78785990Y5783411D01*
X78623475Y6026632D01*
X78416632Y6233475D01*
X78173411Y6395990D01*
X77903158Y6507932D01*
X77616260Y6565000D01*
X77323740Y6565000D01*
X77036842Y6507932D01*
X76766589Y6395990D01*
X76523368Y6233475D01*
X76316525Y6026632D01*
X76154010Y5783411D01*
X76042068Y5513158D01*
X75985000Y5226260D01*
X58635000Y5226260D01*
X58577932Y5513158D01*
X58465990Y5783411D01*
X58303475Y6026632D01*
X58096632Y6233475D01*
X57853411Y6395990D01*
X57583158Y6507932D01*
X57296260Y6565000D01*
X57003740Y6565000D01*
X56716842Y6507932D01*
X56446589Y6395990D01*
X56203368Y6233475D01*
X55996525Y6026632D01*
X55834010Y5783411D01*
X55722068Y5513158D01*
X55665000Y5226260D01*
X35093072Y5226260D01*
X35093072Y5245000D01*
X35080812Y5369482D01*
X35044502Y5489180D01*
X34985537Y5599494D01*
X34906185Y5696185D01*
X34809494Y5775537D01*
X34699180Y5834502D01*
X34579482Y5870812D01*
X34571039Y5871643D01*
X34769637Y6070241D01*
X34926680Y6305273D01*
X35034853Y6566426D01*
X35090000Y6843665D01*
X35090000Y7126335D01*
X35034853Y7403574D01*
X34926680Y7664727D01*
X34769637Y7899759D01*
X34569759Y8099637D01*
X34337241Y8255000D01*
X34569759Y8410363D01*
X34769637Y8610241D01*
X34926680Y8845273D01*
X35034853Y9106426D01*
X35090000Y9383665D01*
X35090000Y9666335D01*
X35034853Y9943574D01*
X34926680Y10204727D01*
X34769637Y10439759D01*
X34569759Y10639637D01*
X34337241Y10795000D01*
X34569759Y10950363D01*
X34769637Y11150241D01*
X34926680Y11385273D01*
X35034853Y11646426D01*
X35090000Y11923665D01*
X35090000Y12206335D01*
X35034853Y12483574D01*
X34986628Y12600000D01*
X63001595Y12600000D01*
X63037700Y12596444D01*
X63073805Y12600000D01*
X63181785Y12610635D01*
X63320333Y12652663D01*
X63448020Y12720913D01*
X63559938Y12812762D01*
X63582959Y12840813D01*
X79544998Y28802851D01*
X79573037Y28825862D01*
X79596050Y28853903D01*
X79596053Y28853906D01*
X79664886Y28937779D01*
X79664887Y28937780D01*
X79733137Y29065467D01*
X79775165Y29204015D01*
X79785800Y29311995D01*
X79785800Y29312004D01*
X79789355Y29348099D01*
X79785800Y29384194D01*
X79785800Y50857795D01*
X79789356Y50893900D01*
X79775165Y51037985D01*
X79749376Y51123000D01*
X79733137Y51176533D01*
X79664887Y51304220D01*
X79573038Y51416138D01*
X79544993Y51439154D01*
X72337761Y58646385D01*
X72371185Y58673815D01*
X72450537Y58770506D01*
X72509502Y58880820D01*
X72545812Y59000518D01*
X72558072Y59125000D01*
X72558072Y61525000D01*
X72545812Y61649482D01*
X72509502Y61769180D01*
X72450537Y61879494D01*
X72371185Y61976185D01*
X72274494Y62055537D01*
X72164180Y62114502D01*
X72044482Y62150812D01*
X71920000Y62163072D01*
X70955918Y62163072D01*
X82882593Y74089746D01*
X82910638Y74112762D01*
X83002487Y74224680D01*
X83053972Y74321002D01*
X83293996Y74207429D01*
X83568184Y74138700D01*
X83850512Y74124783D01*
X84130130Y74166213D01*
X84396292Y74261397D01*
X84521514Y74328329D01*
X84593097Y74572298D01*
X83780000Y75385395D01*
X83765858Y75371252D01*
X83586253Y75550857D01*
X83600395Y75565000D01*
X83586253Y75579142D01*
X83765858Y75758747D01*
X83780000Y75744605D01*
X83794143Y75758747D01*
X83973748Y75579142D01*
X83959605Y75565000D01*
X84772702Y74751903D01*
X85016671Y74823486D01*
X85137571Y75078996D01*
X85206300Y75353184D01*
X85220217Y75635512D01*
X85178787Y75915130D01*
X85083603Y76181292D01*
X85016671Y76306514D01*
X84772704Y76378097D01*
X84888977Y76494370D01*
X84804863Y76578484D01*
X84894524Y76668145D01*
X84991377Y76813095D01*
X85058090Y76974155D01*
X85092100Y77145135D01*
X85092100Y77220128D01*
X92765000Y77220128D01*
X92765000Y76779872D01*
X92850890Y76348075D01*
X93019369Y75941331D01*
X93263962Y75575271D01*
X93575271Y75263962D01*
X93941331Y75019369D01*
X94348075Y74850890D01*
X94779872Y74765000D01*
X95220128Y74765000D01*
X95651925Y74850890D01*
X96058669Y75019369D01*
X96424729Y75263962D01*
X96736038Y75575271D01*
X96980631Y75941331D01*
X97149110Y76348075D01*
X97235000Y76779872D01*
X97235000Y77220128D01*
X97149110Y77651925D01*
X96980631Y78058669D01*
X96736038Y78424729D01*
X96424729Y78736038D01*
X96058669Y78980631D01*
X95651925Y79149110D01*
X95220128Y79235000D01*
X94779872Y79235000D01*
X94348075Y79149110D01*
X93941331Y78980631D01*
X93575271Y78736038D01*
X93263962Y78424729D01*
X93019369Y78058669D01*
X92850890Y77651925D01*
X92765000Y77220128D01*
X85092100Y77220128D01*
X85092100Y77319465D01*
X85058090Y77490445D01*
X84991377Y77651505D01*
X84894524Y77796455D01*
X84793423Y77897556D01*
X87248601Y80352733D01*
X87287205Y80368723D01*
X87432155Y80465576D01*
X87555424Y80588845D01*
X87652277Y80733795D01*
X87668268Y80772401D01*
X89969427Y83073559D01*
X90001291Y83099709D01*
X90105636Y83226854D01*
X90183172Y83371913D01*
X90183502Y83373000D01*
X99289001Y83373000D01*
X99289000Y660000D01*
X660000Y660000D01*
X660000Y5220128D01*
X2765000Y5220128D01*
X2765000Y4779872D01*
X2850890Y4348075D01*
X3019369Y3941331D01*
X3263962Y3575271D01*
X3575271Y3263962D01*
X3941331Y3019369D01*
X4348075Y2850890D01*
X4779872Y2765000D01*
X5220128Y2765000D01*
X5651925Y2850890D01*
X6058669Y3019369D01*
X6424729Y3263962D01*
X6736038Y3575271D01*
X6980631Y3941331D01*
X7149110Y4348075D01*
X7196502Y4586335D01*
X16980000Y4586335D01*
X16980000Y4303665D01*
X17035147Y4026426D01*
X17143320Y3765273D01*
X17300363Y3530241D01*
X17500241Y3330363D01*
X17735273Y3173320D01*
X17996426Y3065147D01*
X18273665Y3010000D01*
X18556335Y3010000D01*
X18833574Y3065147D01*
X19094727Y3173320D01*
X19329759Y3330363D01*
X19529637Y3530241D01*
X19686680Y3765273D01*
X19794853Y4026426D01*
X19850000Y4303665D01*
X19850000Y4586335D01*
X19794853Y4863574D01*
X19686680Y5124727D01*
X19529637Y5359759D01*
X19329759Y5559637D01*
X19094727Y5716680D01*
X19084135Y5721067D01*
X19270131Y5832615D01*
X19478519Y6021586D01*
X19646037Y6247580D01*
X19766246Y6501913D01*
X19806904Y6635961D01*
X19684915Y6858000D01*
X18542000Y6858000D01*
X18542000Y6838000D01*
X18288000Y6838000D01*
X18288000Y6858000D01*
X17145085Y6858000D01*
X17023096Y6635961D01*
X17063754Y6501913D01*
X17183963Y6247580D01*
X17351481Y6021586D01*
X17559869Y5832615D01*
X17745865Y5721067D01*
X17735273Y5716680D01*
X17500241Y5559637D01*
X17300363Y5359759D01*
X17143320Y5124727D01*
X17035147Y4863574D01*
X16980000Y4586335D01*
X7196502Y4586335D01*
X7235000Y4779872D01*
X7235000Y5220128D01*
X7149110Y5651925D01*
X6980631Y6058669D01*
X6736038Y6424729D01*
X6424729Y6736038D01*
X6058669Y6980631D01*
X5651925Y7149110D01*
X5220128Y7235000D01*
X4779872Y7235000D01*
X4348075Y7149110D01*
X3941331Y6980631D01*
X3575271Y6736038D01*
X3263962Y6424729D01*
X3019369Y6058669D01*
X2850890Y5651925D01*
X2765000Y5220128D01*
X660000Y5220128D01*
X660000Y77220128D01*
X2765000Y77220128D01*
X2765000Y76779872D01*
X2850890Y76348075D01*
X3019369Y75941331D01*
X3263962Y75575271D01*
X3575271Y75263962D01*
X3941331Y75019369D01*
X4348075Y74850890D01*
X4779872Y74765000D01*
X5220128Y74765000D01*
X5651925Y74850890D01*
X6058669Y75019369D01*
X6424729Y75263962D01*
X6736038Y75575271D01*
X6980631Y75941331D01*
X7035170Y76073000D01*
X20917000Y76073000D01*
X20917000Y75673000D01*
X20969350Y75395486D01*
X21074834Y75133517D01*
X21229399Y74897161D01*
X21427105Y74695500D01*
X21660354Y74536285D01*
X21920182Y74425633D01*
X22002961Y74408096D01*
X22225000Y74530085D01*
X22225000Y76073000D01*
X20917000Y76073000D01*
X7035170Y76073000D01*
X7149110Y76348075D01*
X7224483Y76727000D01*
X20917000Y76727000D01*
X20917000Y76327000D01*
X22225000Y76327000D01*
X22225000Y77869915D01*
X22479000Y77869915D01*
X22479000Y76327000D01*
X22499000Y76327000D01*
X22499000Y76073000D01*
X22479000Y76073000D01*
X22479000Y74530085D01*
X22701039Y74408096D01*
X22783818Y74425633D01*
X23043646Y74536285D01*
X23276895Y74695500D01*
X23474601Y74897161D01*
X23624735Y75126742D01*
X23693068Y74998900D01*
X23872392Y74780393D01*
X24090899Y74601068D01*
X24340192Y74467818D01*
X24610691Y74385764D01*
X24892000Y74358057D01*
X25173308Y74385764D01*
X25443807Y74467818D01*
X25693100Y74601068D01*
X25911607Y74780392D01*
X26090932Y74998899D01*
X26159265Y75126741D01*
X26309399Y74897161D01*
X26507105Y74695500D01*
X26740354Y74536285D01*
X27000182Y74425633D01*
X27082961Y74408096D01*
X27305000Y74530085D01*
X27305000Y76073000D01*
X27285000Y76073000D01*
X27285000Y76327000D01*
X27305000Y76327000D01*
X27305000Y77869915D01*
X27559000Y77869915D01*
X27559000Y76327000D01*
X27579000Y76327000D01*
X27579000Y76073000D01*
X27559000Y76073000D01*
X27559000Y74530085D01*
X27781039Y74408096D01*
X27863818Y74425633D01*
X28123646Y74536285D01*
X28356895Y74695500D01*
X28554601Y74897161D01*
X28704735Y75126742D01*
X28773068Y74998900D01*
X28952392Y74780393D01*
X29170899Y74601068D01*
X29420192Y74467818D01*
X29690691Y74385764D01*
X29972000Y74358057D01*
X30253308Y74385764D01*
X30523807Y74467818D01*
X30773100Y74601068D01*
X30991607Y74780392D01*
X31170932Y74998899D01*
X31239265Y75126741D01*
X31389399Y74897161D01*
X31587105Y74695500D01*
X31820354Y74536285D01*
X32080182Y74425633D01*
X32162961Y74408096D01*
X32385000Y74530085D01*
X32385000Y76073000D01*
X32365000Y76073000D01*
X32365000Y76327000D01*
X32385000Y76327000D01*
X32385000Y77869915D01*
X32162961Y77991904D01*
X32080182Y77974367D01*
X31820354Y77863715D01*
X31587105Y77704500D01*
X31389399Y77502839D01*
X31239265Y77273259D01*
X31170932Y77401101D01*
X30991608Y77619608D01*
X30773101Y77798932D01*
X30523808Y77932182D01*
X30253309Y78014236D01*
X29972000Y78041943D01*
X29690692Y78014236D01*
X29420193Y77932182D01*
X29170900Y77798932D01*
X28952393Y77619608D01*
X28773068Y77401101D01*
X28704735Y77273259D01*
X28554601Y77502839D01*
X28356895Y77704500D01*
X28123646Y77863715D01*
X27863818Y77974367D01*
X27781039Y77991904D01*
X27559000Y77869915D01*
X27305000Y77869915D01*
X27082961Y77991904D01*
X27000182Y77974367D01*
X26740354Y77863715D01*
X26507105Y77704500D01*
X26309399Y77502839D01*
X26159265Y77273259D01*
X26090932Y77401101D01*
X25911608Y77619608D01*
X25693101Y77798932D01*
X25443808Y77932182D01*
X25173309Y78014236D01*
X24892000Y78041943D01*
X24610692Y78014236D01*
X24340193Y77932182D01*
X24090900Y77798932D01*
X23872393Y77619608D01*
X23693068Y77401101D01*
X23624735Y77273259D01*
X23474601Y77502839D01*
X23276895Y77704500D01*
X23043646Y77863715D01*
X22783818Y77974367D01*
X22701039Y77991904D01*
X22479000Y77869915D01*
X22225000Y77869915D01*
X22002961Y77991904D01*
X21920182Y77974367D01*
X21660354Y77863715D01*
X21427105Y77704500D01*
X21229399Y77502839D01*
X21074834Y77266483D01*
X20969350Y77004514D01*
X20917000Y76727000D01*
X7224483Y76727000D01*
X7235000Y76779872D01*
X7235000Y77220128D01*
X7149110Y77651925D01*
X6980631Y78058669D01*
X6736038Y78424729D01*
X6424729Y78736038D01*
X6058669Y78980631D01*
X5651925Y79149110D01*
X5220128Y79235000D01*
X4779872Y79235000D01*
X4348075Y79149110D01*
X3941331Y78980631D01*
X3575271Y78736038D01*
X3263962Y78424729D01*
X3019369Y78058669D01*
X2850890Y77651925D01*
X2765000Y77220128D01*
X660000Y77220128D01*
X660000Y83373000D01*
X45493001Y83373000D01*
X45493001Y82680348D01*
G37*
G04 #@! TD.AperFunction*
D21*
X34725000Y47094131D02*
X34725000Y46656111D01*
X34540393Y46504608D01*
X34361068Y46286101D01*
X34290000Y46153142D01*
X34218932Y46286101D01*
X34039608Y46504608D01*
X33821101Y46683932D01*
X33571808Y46817182D01*
X33301309Y46899236D01*
X33020000Y46926943D01*
X32738692Y46899236D01*
X32468193Y46817182D01*
X32218900Y46683932D01*
X32000393Y46504608D01*
X31821068Y46286101D01*
X31750000Y46153142D01*
X31678932Y46286101D01*
X31499608Y46504608D01*
X31281101Y46683932D01*
X31031808Y46817182D01*
X30761309Y46899236D01*
X30480000Y46926943D01*
X30198692Y46899236D01*
X29928193Y46817182D01*
X29678900Y46683932D01*
X29460393Y46504608D01*
X29281068Y46286101D01*
X29210000Y46153142D01*
X29138932Y46286101D01*
X28959608Y46504608D01*
X28741101Y46683932D01*
X28491808Y46817182D01*
X28221309Y46899236D01*
X27940000Y46926943D01*
X27658692Y46899236D01*
X27388193Y46817182D01*
X27138900Y46683932D01*
X26920393Y46504608D01*
X26741068Y46286101D01*
X26670000Y46153142D01*
X26598932Y46286101D01*
X26419608Y46504608D01*
X26201101Y46683932D01*
X25951808Y46817182D01*
X25681309Y46899236D01*
X25400000Y46926943D01*
X25118692Y46899236D01*
X24848193Y46817182D01*
X24598900Y46683932D01*
X24380393Y46504608D01*
X24201068Y46286101D01*
X24130000Y46153142D01*
X24058932Y46286101D01*
X23879608Y46504608D01*
X23661101Y46683932D01*
X23411808Y46817182D01*
X23141309Y46899236D01*
X22860000Y46926943D01*
X22578692Y46899236D01*
X22308193Y46817182D01*
X22058900Y46683932D01*
X21840393Y46504608D01*
X21661068Y46286101D01*
X21527818Y46036808D01*
X21445764Y45766309D01*
X21425000Y45555492D01*
X21425000Y44614509D01*
X21445764Y44403692D01*
X21527818Y44133193D01*
X21661068Y43883900D01*
X21840392Y43665393D01*
X22058899Y43486068D01*
X22308192Y43352818D01*
X22578691Y43270764D01*
X22860000Y43243057D01*
X23141308Y43270764D01*
X23411807Y43352818D01*
X23661100Y43486068D01*
X23879607Y43665392D01*
X24058932Y43883899D01*
X24130000Y44016858D01*
X24201068Y43883900D01*
X24380392Y43665393D01*
X24598899Y43486068D01*
X24848192Y43352818D01*
X25118691Y43270764D01*
X25400000Y43243057D01*
X25681308Y43270764D01*
X25951807Y43352818D01*
X26201100Y43486068D01*
X26419607Y43665392D01*
X26598932Y43883899D01*
X26670000Y44016858D01*
X26741068Y43883900D01*
X26920392Y43665393D01*
X27138899Y43486068D01*
X27388192Y43352818D01*
X27658691Y43270764D01*
X27940000Y43243057D01*
X28221308Y43270764D01*
X28491807Y43352818D01*
X28741100Y43486068D01*
X28959607Y43665392D01*
X29138932Y43883899D01*
X29210000Y44016858D01*
X29281068Y43883900D01*
X29460392Y43665393D01*
X29678899Y43486068D01*
X29928192Y43352818D01*
X30198691Y43270764D01*
X30480000Y43243057D01*
X30761308Y43270764D01*
X31031807Y43352818D01*
X31281100Y43486068D01*
X31499607Y43665392D01*
X31678932Y43883899D01*
X31750000Y44016858D01*
X31821068Y43883900D01*
X32000392Y43665393D01*
X32218899Y43486068D01*
X32468192Y43352818D01*
X32738691Y43270764D01*
X33020000Y43243057D01*
X33301308Y43270764D01*
X33571807Y43352818D01*
X33821100Y43486068D01*
X34039607Y43665392D01*
X34218932Y43883899D01*
X34290000Y44016858D01*
X34361068Y43883900D01*
X34540392Y43665393D01*
X34725000Y43513888D01*
X34725001Y40981028D01*
X34720960Y40940000D01*
X34737082Y40776312D01*
X34784828Y40618914D01*
X34784829Y40618913D01*
X34862365Y40473854D01*
X34966710Y40346709D01*
X34998574Y40320559D01*
X37880563Y37438568D01*
X37906709Y37406709D01*
X37938568Y37380563D01*
X37938570Y37380561D01*
X38033854Y37302364D01*
X38178913Y37224828D01*
X38336311Y37177082D01*
X38500000Y37160960D01*
X38541018Y37165000D01*
X74654133Y37165000D01*
X76635000Y35184132D01*
X76635001Y31968072D01*
X76620000Y31968072D01*
X76495518Y31955812D01*
X76375820Y31919502D01*
X76265506Y31860537D01*
X76168815Y31781185D01*
X76089463Y31684494D01*
X76030498Y31574180D01*
X76008487Y31501620D01*
X75876632Y31633475D01*
X75633411Y31795990D01*
X75363158Y31907932D01*
X75076260Y31965000D01*
X74783740Y31965000D01*
X74496842Y31907932D01*
X74226589Y31795990D01*
X73983368Y31633475D01*
X73776525Y31426632D01*
X73660000Y31252240D01*
X73543475Y31426632D01*
X73336632Y31633475D01*
X73093411Y31795990D01*
X72823158Y31907932D01*
X72536260Y31965000D01*
X72243740Y31965000D01*
X71956842Y31907932D01*
X71686589Y31795990D01*
X71443368Y31633475D01*
X71236525Y31426632D01*
X71114805Y31244466D01*
X71045178Y31361355D01*
X70850269Y31577588D01*
X70616920Y31751641D01*
X70354099Y31876825D01*
X70206890Y31921476D01*
X69977000Y31800155D01*
X69977000Y30607000D01*
X69997000Y30607000D01*
X69997000Y30353000D01*
X69977000Y30353000D01*
X69977000Y29159845D01*
X70206890Y29038524D01*
X70354099Y29083175D01*
X70616920Y29208359D01*
X70850269Y29382412D01*
X71045178Y29598645D01*
X71114805Y29715534D01*
X71236525Y29533368D01*
X71443368Y29326525D01*
X71686589Y29164010D01*
X71956842Y29052068D01*
X72243740Y28995000D01*
X72536260Y28995000D01*
X72823158Y29052068D01*
X73093411Y29164010D01*
X73336632Y29326525D01*
X73543475Y29533368D01*
X73660000Y29707760D01*
X73776525Y29533368D01*
X73983368Y29326525D01*
X74226589Y29164010D01*
X74496842Y29052068D01*
X74783740Y28995000D01*
X75076260Y28995000D01*
X75363158Y29052068D01*
X75633411Y29164010D01*
X75876632Y29326525D01*
X76008487Y29458380D01*
X76030498Y29385820D01*
X76089463Y29275506D01*
X76168815Y29178815D01*
X76265506Y29099463D01*
X76375820Y29040498D01*
X76495518Y29004188D01*
X76620000Y28991928D01*
X77088981Y28991928D01*
X64707054Y16610000D01*
X34986628Y16610000D01*
X35034853Y16726426D01*
X35090000Y17003665D01*
X35090000Y17286335D01*
X35034853Y17563574D01*
X34926680Y17824727D01*
X34769637Y18059759D01*
X34569759Y18259637D01*
X34337241Y18415000D01*
X34569759Y18570363D01*
X34769637Y18770241D01*
X34926680Y19005273D01*
X35034853Y19266426D01*
X35090000Y19543665D01*
X35090000Y19826335D01*
X35034853Y20103574D01*
X34926680Y20364727D01*
X34769637Y20599759D01*
X34569759Y20799637D01*
X34337241Y20955000D01*
X34569759Y21110363D01*
X34769637Y21310241D01*
X34926680Y21545273D01*
X35034853Y21806426D01*
X35090000Y22083665D01*
X35090000Y22366335D01*
X35034853Y22643574D01*
X34926680Y22904727D01*
X34769637Y23139759D01*
X34569759Y23339637D01*
X34337241Y23495000D01*
X34569759Y23650363D01*
X34769637Y23850241D01*
X34926680Y24085273D01*
X35034853Y24346426D01*
X35090000Y24623665D01*
X35090000Y24906335D01*
X35034853Y25183574D01*
X34986628Y25300000D01*
X61916895Y25300000D01*
X61953000Y25296444D01*
X61989105Y25300000D01*
X62097085Y25310635D01*
X62235633Y25352663D01*
X62363320Y25420913D01*
X62475238Y25512762D01*
X62498259Y25540813D01*
X66323670Y29366223D01*
X66363368Y29326525D01*
X66606589Y29164010D01*
X66876842Y29052068D01*
X67163740Y28995000D01*
X67456260Y28995000D01*
X67743158Y29052068D01*
X68013411Y29164010D01*
X68256632Y29326525D01*
X68463475Y29533368D01*
X68585195Y29715534D01*
X68654822Y29598645D01*
X68849731Y29382412D01*
X69083080Y29208359D01*
X69345901Y29083175D01*
X69493110Y29038524D01*
X69723000Y29159845D01*
X69723000Y30353000D01*
X69703000Y30353000D01*
X69703000Y30607000D01*
X69723000Y30607000D01*
X69723000Y31800155D01*
X69493110Y31921476D01*
X69345901Y31876825D01*
X69083080Y31751641D01*
X68849731Y31577588D01*
X68654822Y31361355D01*
X68585195Y31244466D01*
X68463475Y31426632D01*
X68256632Y31633475D01*
X68013411Y31795990D01*
X67743158Y31907932D01*
X67456260Y31965000D01*
X67163740Y31965000D01*
X66876842Y31907932D01*
X66606589Y31795990D01*
X66363368Y31633475D01*
X66156525Y31426632D01*
X66040000Y31252240D01*
X65923475Y31426632D01*
X65716632Y31633475D01*
X65473411Y31795990D01*
X65203158Y31907932D01*
X64916260Y31965000D01*
X64623740Y31965000D01*
X64336842Y31907932D01*
X64066589Y31795990D01*
X63823368Y31633475D01*
X63616525Y31426632D01*
X63500000Y31252240D01*
X63383475Y31426632D01*
X63176632Y31633475D01*
X62933411Y31795990D01*
X62663158Y31907932D01*
X62376260Y31965000D01*
X62083740Y31965000D01*
X61796842Y31907932D01*
X61526589Y31795990D01*
X61283368Y31633475D01*
X61076525Y31426632D01*
X60960000Y31252240D01*
X60843475Y31426632D01*
X60636632Y31633475D01*
X60393411Y31795990D01*
X60123158Y31907932D01*
X59836260Y31965000D01*
X59543740Y31965000D01*
X59256842Y31907932D01*
X58986589Y31795990D01*
X58743368Y31633475D01*
X58703670Y31593777D01*
X56295059Y34002387D01*
X56272038Y34030438D01*
X56160120Y34122287D01*
X56032433Y34190537D01*
X55893885Y34232565D01*
X55785905Y34243200D01*
X55749800Y34246756D01*
X55713695Y34243200D01*
X20674605Y34243200D01*
X20638500Y34246756D01*
X20494415Y34232565D01*
X20355866Y34190537D01*
X20228180Y34122287D01*
X20116262Y34030438D01*
X20093246Y34002393D01*
X19460125Y33369271D01*
X19329759Y33499637D01*
X19094727Y33656680D01*
X18833574Y33764853D01*
X18556335Y33820000D01*
X18273665Y33820000D01*
X17996426Y33764853D01*
X17735273Y33656680D01*
X17500241Y33499637D01*
X17300363Y33299759D01*
X17143320Y33064727D01*
X17035147Y32803574D01*
X16980000Y32526335D01*
X16980000Y32243665D01*
X17035147Y31966426D01*
X17143320Y31705273D01*
X17300363Y31470241D01*
X17500241Y31270363D01*
X17732759Y31115000D01*
X17500241Y30959637D01*
X17300363Y30759759D01*
X17143320Y30524727D01*
X17035147Y30263574D01*
X16980000Y29986335D01*
X16980000Y29703665D01*
X17035147Y29426426D01*
X17143320Y29165273D01*
X17300363Y28930241D01*
X17500241Y28730363D01*
X17732759Y28575000D01*
X17500241Y28419637D01*
X17300363Y28219759D01*
X17143320Y27984727D01*
X17035147Y27723574D01*
X16980000Y27446335D01*
X16980000Y27163665D01*
X17035147Y26886426D01*
X17143320Y26625273D01*
X17300363Y26390241D01*
X17500241Y26190363D01*
X17732759Y26035000D01*
X17500241Y25879637D01*
X17300363Y25679759D01*
X17143320Y25444727D01*
X17035147Y25183574D01*
X16980000Y24906335D01*
X16980000Y24623665D01*
X17035147Y24346426D01*
X17143320Y24085273D01*
X17300363Y23850241D01*
X17500241Y23650363D01*
X17732759Y23495000D01*
X17500241Y23339637D01*
X17300363Y23139759D01*
X17143320Y22904727D01*
X17035147Y22643574D01*
X16980000Y22366335D01*
X16980000Y22083665D01*
X17035147Y21806426D01*
X17143320Y21545273D01*
X17300363Y21310241D01*
X17500241Y21110363D01*
X17732759Y20955000D01*
X17500241Y20799637D01*
X17300363Y20599759D01*
X17143320Y20364727D01*
X17035147Y20103574D01*
X16980000Y19826335D01*
X16980000Y19543665D01*
X17035147Y19266426D01*
X17143320Y19005273D01*
X17300363Y18770241D01*
X17500241Y18570363D01*
X17732759Y18415000D01*
X17500241Y18259637D01*
X17300363Y18059759D01*
X17143320Y17824727D01*
X17035147Y17563574D01*
X16980000Y17286335D01*
X16980000Y17003665D01*
X17035147Y16726426D01*
X17143320Y16465273D01*
X17300363Y16230241D01*
X17500241Y16030363D01*
X17732759Y15875000D01*
X17500241Y15719637D01*
X17300363Y15519759D01*
X17143320Y15284727D01*
X17035147Y15023574D01*
X16980000Y14746335D01*
X16980000Y14463665D01*
X17035147Y14186426D01*
X17143320Y13925273D01*
X17300363Y13690241D01*
X17500241Y13490363D01*
X17732759Y13335000D01*
X17500241Y13179637D01*
X17300363Y12979759D01*
X17247070Y12900000D01*
X16780868Y12900000D01*
X16335000Y13345868D01*
X16335000Y48059133D01*
X18204583Y49928714D01*
X18298665Y49910000D01*
X18581335Y49910000D01*
X18858574Y49965147D01*
X19119727Y50073320D01*
X19354759Y50230363D01*
X19554637Y50430241D01*
X19607930Y50510000D01*
X31309133Y50510000D01*
X34725000Y47094131D01*
G04 #@! TA.AperFunction,Conductor*
D22*
G36*
X34725000Y47094131D02*
G01*
X34725000Y46656111D01*
X34540393Y46504608D01*
X34361068Y46286101D01*
X34290000Y46153142D01*
X34218932Y46286101D01*
X34039608Y46504608D01*
X33821101Y46683932D01*
X33571808Y46817182D01*
X33301309Y46899236D01*
X33020000Y46926943D01*
X32738692Y46899236D01*
X32468193Y46817182D01*
X32218900Y46683932D01*
X32000393Y46504608D01*
X31821068Y46286101D01*
X31750000Y46153142D01*
X31678932Y46286101D01*
X31499608Y46504608D01*
X31281101Y46683932D01*
X31031808Y46817182D01*
X30761309Y46899236D01*
X30480000Y46926943D01*
X30198692Y46899236D01*
X29928193Y46817182D01*
X29678900Y46683932D01*
X29460393Y46504608D01*
X29281068Y46286101D01*
X29210000Y46153142D01*
X29138932Y46286101D01*
X28959608Y46504608D01*
X28741101Y46683932D01*
X28491808Y46817182D01*
X28221309Y46899236D01*
X27940000Y46926943D01*
X27658692Y46899236D01*
X27388193Y46817182D01*
X27138900Y46683932D01*
X26920393Y46504608D01*
X26741068Y46286101D01*
X26670000Y46153142D01*
X26598932Y46286101D01*
X26419608Y46504608D01*
X26201101Y46683932D01*
X25951808Y46817182D01*
X25681309Y46899236D01*
X25400000Y46926943D01*
X25118692Y46899236D01*
X24848193Y46817182D01*
X24598900Y46683932D01*
X24380393Y46504608D01*
X24201068Y46286101D01*
X24130000Y46153142D01*
X24058932Y46286101D01*
X23879608Y46504608D01*
X23661101Y46683932D01*
X23411808Y46817182D01*
X23141309Y46899236D01*
X22860000Y46926943D01*
X22578692Y46899236D01*
X22308193Y46817182D01*
X22058900Y46683932D01*
X21840393Y46504608D01*
X21661068Y46286101D01*
X21527818Y46036808D01*
X21445764Y45766309D01*
X21425000Y45555492D01*
X21425000Y44614509D01*
X21445764Y44403692D01*
X21527818Y44133193D01*
X21661068Y43883900D01*
X21840392Y43665393D01*
X22058899Y43486068D01*
X22308192Y43352818D01*
X22578691Y43270764D01*
X22860000Y43243057D01*
X23141308Y43270764D01*
X23411807Y43352818D01*
X23661100Y43486068D01*
X23879607Y43665392D01*
X24058932Y43883899D01*
X24130000Y44016858D01*
X24201068Y43883900D01*
X24380392Y43665393D01*
X24598899Y43486068D01*
X24848192Y43352818D01*
X25118691Y43270764D01*
X25400000Y43243057D01*
X25681308Y43270764D01*
X25951807Y43352818D01*
X26201100Y43486068D01*
X26419607Y43665392D01*
X26598932Y43883899D01*
X26670000Y44016858D01*
X26741068Y43883900D01*
X26920392Y43665393D01*
X27138899Y43486068D01*
X27388192Y43352818D01*
X27658691Y43270764D01*
X27940000Y43243057D01*
X28221308Y43270764D01*
X28491807Y43352818D01*
X28741100Y43486068D01*
X28959607Y43665392D01*
X29138932Y43883899D01*
X29210000Y44016858D01*
X29281068Y43883900D01*
X29460392Y43665393D01*
X29678899Y43486068D01*
X29928192Y43352818D01*
X30198691Y43270764D01*
X30480000Y43243057D01*
X30761308Y43270764D01*
X31031807Y43352818D01*
X31281100Y43486068D01*
X31499607Y43665392D01*
X31678932Y43883899D01*
X31750000Y44016858D01*
X31821068Y43883900D01*
X32000392Y43665393D01*
X32218899Y43486068D01*
X32468192Y43352818D01*
X32738691Y43270764D01*
X33020000Y43243057D01*
X33301308Y43270764D01*
X33571807Y43352818D01*
X33821100Y43486068D01*
X34039607Y43665392D01*
X34218932Y43883899D01*
X34290000Y44016858D01*
X34361068Y43883900D01*
X34540392Y43665393D01*
X34725000Y43513888D01*
X34725001Y40981028D01*
X34720960Y40940000D01*
X34737082Y40776312D01*
X34784828Y40618914D01*
X34784829Y40618913D01*
X34862365Y40473854D01*
X34966710Y40346709D01*
X34998574Y40320559D01*
X37880563Y37438568D01*
X37906709Y37406709D01*
X37938568Y37380563D01*
X37938570Y37380561D01*
X38033854Y37302364D01*
X38178913Y37224828D01*
X38336311Y37177082D01*
X38500000Y37160960D01*
X38541018Y37165000D01*
X74654133Y37165000D01*
X76635000Y35184132D01*
X76635001Y31968072D01*
X76620000Y31968072D01*
X76495518Y31955812D01*
X76375820Y31919502D01*
X76265506Y31860537D01*
X76168815Y31781185D01*
X76089463Y31684494D01*
X76030498Y31574180D01*
X76008487Y31501620D01*
X75876632Y31633475D01*
X75633411Y31795990D01*
X75363158Y31907932D01*
X75076260Y31965000D01*
X74783740Y31965000D01*
X74496842Y31907932D01*
X74226589Y31795990D01*
X73983368Y31633475D01*
X73776525Y31426632D01*
X73660000Y31252240D01*
X73543475Y31426632D01*
X73336632Y31633475D01*
X73093411Y31795990D01*
X72823158Y31907932D01*
X72536260Y31965000D01*
X72243740Y31965000D01*
X71956842Y31907932D01*
X71686589Y31795990D01*
X71443368Y31633475D01*
X71236525Y31426632D01*
X71114805Y31244466D01*
X71045178Y31361355D01*
X70850269Y31577588D01*
X70616920Y31751641D01*
X70354099Y31876825D01*
X70206890Y31921476D01*
X69977000Y31800155D01*
X69977000Y30607000D01*
X69997000Y30607000D01*
X69997000Y30353000D01*
X69977000Y30353000D01*
X69977000Y29159845D01*
X70206890Y29038524D01*
X70354099Y29083175D01*
X70616920Y29208359D01*
X70850269Y29382412D01*
X71045178Y29598645D01*
X71114805Y29715534D01*
X71236525Y29533368D01*
X71443368Y29326525D01*
X71686589Y29164010D01*
X71956842Y29052068D01*
X72243740Y28995000D01*
X72536260Y28995000D01*
X72823158Y29052068D01*
X73093411Y29164010D01*
X73336632Y29326525D01*
X73543475Y29533368D01*
X73660000Y29707760D01*
X73776525Y29533368D01*
X73983368Y29326525D01*
X74226589Y29164010D01*
X74496842Y29052068D01*
X74783740Y28995000D01*
X75076260Y28995000D01*
X75363158Y29052068D01*
X75633411Y29164010D01*
X75876632Y29326525D01*
X76008487Y29458380D01*
X76030498Y29385820D01*
X76089463Y29275506D01*
X76168815Y29178815D01*
X76265506Y29099463D01*
X76375820Y29040498D01*
X76495518Y29004188D01*
X76620000Y28991928D01*
X77088981Y28991928D01*
X64707054Y16610000D01*
X34986628Y16610000D01*
X35034853Y16726426D01*
X35090000Y17003665D01*
X35090000Y17286335D01*
X35034853Y17563574D01*
X34926680Y17824727D01*
X34769637Y18059759D01*
X34569759Y18259637D01*
X34337241Y18415000D01*
X34569759Y18570363D01*
X34769637Y18770241D01*
X34926680Y19005273D01*
X35034853Y19266426D01*
X35090000Y19543665D01*
X35090000Y19826335D01*
X35034853Y20103574D01*
X34926680Y20364727D01*
X34769637Y20599759D01*
X34569759Y20799637D01*
X34337241Y20955000D01*
X34569759Y21110363D01*
X34769637Y21310241D01*
X34926680Y21545273D01*
X35034853Y21806426D01*
X35090000Y22083665D01*
X35090000Y22366335D01*
X35034853Y22643574D01*
X34926680Y22904727D01*
X34769637Y23139759D01*
X34569759Y23339637D01*
X34337241Y23495000D01*
X34569759Y23650363D01*
X34769637Y23850241D01*
X34926680Y24085273D01*
X35034853Y24346426D01*
X35090000Y24623665D01*
X35090000Y24906335D01*
X35034853Y25183574D01*
X34986628Y25300000D01*
X61916895Y25300000D01*
X61953000Y25296444D01*
X61989105Y25300000D01*
X62097085Y25310635D01*
X62235633Y25352663D01*
X62363320Y25420913D01*
X62475238Y25512762D01*
X62498259Y25540813D01*
X66323670Y29366223D01*
X66363368Y29326525D01*
X66606589Y29164010D01*
X66876842Y29052068D01*
X67163740Y28995000D01*
X67456260Y28995000D01*
X67743158Y29052068D01*
X68013411Y29164010D01*
X68256632Y29326525D01*
X68463475Y29533368D01*
X68585195Y29715534D01*
X68654822Y29598645D01*
X68849731Y29382412D01*
X69083080Y29208359D01*
X69345901Y29083175D01*
X69493110Y29038524D01*
X69723000Y29159845D01*
X69723000Y30353000D01*
X69703000Y30353000D01*
X69703000Y30607000D01*
X69723000Y30607000D01*
X69723000Y31800155D01*
X69493110Y31921476D01*
X69345901Y31876825D01*
X69083080Y31751641D01*
X68849731Y31577588D01*
X68654822Y31361355D01*
X68585195Y31244466D01*
X68463475Y31426632D01*
X68256632Y31633475D01*
X68013411Y31795990D01*
X67743158Y31907932D01*
X67456260Y31965000D01*
X67163740Y31965000D01*
X66876842Y31907932D01*
X66606589Y31795990D01*
X66363368Y31633475D01*
X66156525Y31426632D01*
X66040000Y31252240D01*
X65923475Y31426632D01*
X65716632Y31633475D01*
X65473411Y31795990D01*
X65203158Y31907932D01*
X64916260Y31965000D01*
X64623740Y31965000D01*
X64336842Y31907932D01*
X64066589Y31795990D01*
X63823368Y31633475D01*
X63616525Y31426632D01*
X63500000Y31252240D01*
X63383475Y31426632D01*
X63176632Y31633475D01*
X62933411Y31795990D01*
X62663158Y31907932D01*
X62376260Y31965000D01*
X62083740Y31965000D01*
X61796842Y31907932D01*
X61526589Y31795990D01*
X61283368Y31633475D01*
X61076525Y31426632D01*
X60960000Y31252240D01*
X60843475Y31426632D01*
X60636632Y31633475D01*
X60393411Y31795990D01*
X60123158Y31907932D01*
X59836260Y31965000D01*
X59543740Y31965000D01*
X59256842Y31907932D01*
X58986589Y31795990D01*
X58743368Y31633475D01*
X58703670Y31593777D01*
X56295059Y34002387D01*
X56272038Y34030438D01*
X56160120Y34122287D01*
X56032433Y34190537D01*
X55893885Y34232565D01*
X55785905Y34243200D01*
X55749800Y34246756D01*
X55713695Y34243200D01*
X20674605Y34243200D01*
X20638500Y34246756D01*
X20494415Y34232565D01*
X20355866Y34190537D01*
X20228180Y34122287D01*
X20116262Y34030438D01*
X20093246Y34002393D01*
X19460125Y33369271D01*
X19329759Y33499637D01*
X19094727Y33656680D01*
X18833574Y33764853D01*
X18556335Y33820000D01*
X18273665Y33820000D01*
X17996426Y33764853D01*
X17735273Y33656680D01*
X17500241Y33499637D01*
X17300363Y33299759D01*
X17143320Y33064727D01*
X17035147Y32803574D01*
X16980000Y32526335D01*
X16980000Y32243665D01*
X17035147Y31966426D01*
X17143320Y31705273D01*
X17300363Y31470241D01*
X17500241Y31270363D01*
X17732759Y31115000D01*
X17500241Y30959637D01*
X17300363Y30759759D01*
X17143320Y30524727D01*
X17035147Y30263574D01*
X16980000Y29986335D01*
X16980000Y29703665D01*
X17035147Y29426426D01*
X17143320Y29165273D01*
X17300363Y28930241D01*
X17500241Y28730363D01*
X17732759Y28575000D01*
X17500241Y28419637D01*
X17300363Y28219759D01*
X17143320Y27984727D01*
X17035147Y27723574D01*
X16980000Y27446335D01*
X16980000Y27163665D01*
X17035147Y26886426D01*
X17143320Y26625273D01*
X17300363Y26390241D01*
X17500241Y26190363D01*
X17732759Y26035000D01*
X17500241Y25879637D01*
X17300363Y25679759D01*
X17143320Y25444727D01*
X17035147Y25183574D01*
X16980000Y24906335D01*
X16980000Y24623665D01*
X17035147Y24346426D01*
X17143320Y24085273D01*
X17300363Y23850241D01*
X17500241Y23650363D01*
X17732759Y23495000D01*
X17500241Y23339637D01*
X17300363Y23139759D01*
X17143320Y22904727D01*
X17035147Y22643574D01*
X16980000Y22366335D01*
X16980000Y22083665D01*
X17035147Y21806426D01*
X17143320Y21545273D01*
X17300363Y21310241D01*
X17500241Y21110363D01*
X17732759Y20955000D01*
X17500241Y20799637D01*
X17300363Y20599759D01*
X17143320Y20364727D01*
X17035147Y20103574D01*
X16980000Y19826335D01*
X16980000Y19543665D01*
X17035147Y19266426D01*
X17143320Y19005273D01*
X17300363Y18770241D01*
X17500241Y18570363D01*
X17732759Y18415000D01*
X17500241Y18259637D01*
X17300363Y18059759D01*
X17143320Y17824727D01*
X17035147Y17563574D01*
X16980000Y17286335D01*
X16980000Y17003665D01*
X17035147Y16726426D01*
X17143320Y16465273D01*
X17300363Y16230241D01*
X17500241Y16030363D01*
X17732759Y15875000D01*
X17500241Y15719637D01*
X17300363Y15519759D01*
X17143320Y15284727D01*
X17035147Y15023574D01*
X16980000Y14746335D01*
X16980000Y14463665D01*
X17035147Y14186426D01*
X17143320Y13925273D01*
X17300363Y13690241D01*
X17500241Y13490363D01*
X17732759Y13335000D01*
X17500241Y13179637D01*
X17300363Y12979759D01*
X17247070Y12900000D01*
X16780868Y12900000D01*
X16335000Y13345868D01*
X16335000Y48059133D01*
X18204583Y49928714D01*
X18298665Y49910000D01*
X18581335Y49910000D01*
X18858574Y49965147D01*
X19119727Y50073320D01*
X19354759Y50230363D01*
X19554637Y50430241D01*
X19607930Y50510000D01*
X31309133Y50510000D01*
X34725000Y47094131D01*
G37*
G04 #@! TD.AperFunction*
D21*
X45702764Y69261309D02*
X45682000Y69050492D01*
X45682000Y68109509D01*
X45702764Y67898692D01*
X45784818Y67628193D01*
X45918068Y67378900D01*
X46097392Y67160393D01*
X46315899Y66981068D01*
X46392174Y66940298D01*
X46392635Y66935615D01*
X46434663Y66797067D01*
X46502913Y66669380D01*
X46594762Y66557462D01*
X46706680Y66465613D01*
X46834367Y66397363D01*
X46972915Y66355335D01*
X47080895Y66344700D01*
X47117000Y66341144D01*
X47153105Y66344700D01*
X52861154Y66344700D01*
X57433816Y61772037D01*
X57400393Y61744608D01*
X57221068Y61526101D01*
X57152735Y61398259D01*
X57002601Y61627839D01*
X56804895Y61829500D01*
X56571646Y61988715D01*
X56311818Y62099367D01*
X56229039Y62116904D01*
X56047478Y62017154D01*
X56072290Y62077055D01*
X56106300Y62248035D01*
X56106300Y62422365D01*
X56072290Y62593345D01*
X56005577Y62754405D01*
X55908724Y62899355D01*
X55785455Y63022624D01*
X55640505Y63119477D01*
X55479445Y63186190D01*
X55308465Y63220200D01*
X55134135Y63220200D01*
X54963155Y63186190D01*
X54802095Y63119477D01*
X54657145Y63022624D01*
X54533876Y62899355D01*
X54437023Y62754405D01*
X54370310Y62593345D01*
X54353006Y62506352D01*
X54257508Y62410854D01*
X54229462Y62387837D01*
X54137613Y62275919D01*
X54069363Y62148232D01*
X54054540Y62099367D01*
X54027335Y62009685D01*
X54025001Y61985989D01*
X53891808Y62057182D01*
X53621309Y62139236D01*
X53340000Y62166943D01*
X53058692Y62139236D01*
X52788193Y62057182D01*
X52538900Y61923932D01*
X52320393Y61744608D01*
X52141068Y61526101D01*
X52070000Y61393142D01*
X51998932Y61526101D01*
X51819608Y61744608D01*
X51601101Y61923932D01*
X51351808Y62057182D01*
X51081309Y62139236D01*
X50800000Y62166943D01*
X50518692Y62139236D01*
X50248193Y62057182D01*
X49998900Y61923932D01*
X49830674Y61785873D01*
X47615259Y64001288D01*
X47592238Y64029338D01*
X47480320Y64121187D01*
X47352633Y64189437D01*
X47214085Y64231465D01*
X47106105Y64242100D01*
X47070000Y64245656D01*
X47033895Y64242100D01*
X37231053Y64242100D01*
X37157305Y64291377D01*
X36996245Y64358090D01*
X36825265Y64392100D01*
X36650935Y64392100D01*
X36479955Y64358090D01*
X36318895Y64291377D01*
X36173945Y64194524D01*
X36050676Y64071255D01*
X35953823Y63926305D01*
X35887110Y63765245D01*
X35853100Y63594265D01*
X35853100Y63419935D01*
X35887110Y63248955D01*
X35953823Y63087895D01*
X36050676Y62942945D01*
X36173945Y62819676D01*
X36318895Y62722823D01*
X36479955Y62656110D01*
X36650935Y62622100D01*
X36825265Y62622100D01*
X36996245Y62656110D01*
X37157305Y62722823D01*
X37231053Y62772100D01*
X46765554Y62772100D01*
X47559793Y61977861D01*
X47458900Y61923932D01*
X47240393Y61744608D01*
X47061068Y61526101D01*
X46990000Y61393142D01*
X46918932Y61526101D01*
X46739608Y61744608D01*
X46521101Y61923932D01*
X46271808Y62057182D01*
X46001309Y62139236D01*
X45720000Y62166943D01*
X45438692Y62139236D01*
X45168193Y62057182D01*
X44918900Y61923932D01*
X44700393Y61744608D01*
X44521068Y61526101D01*
X44450000Y61393142D01*
X44378932Y61526101D01*
X44199608Y61744608D01*
X43981101Y61923932D01*
X43731808Y62057182D01*
X43461309Y62139236D01*
X43180000Y62166943D01*
X42898692Y62139236D01*
X42628193Y62057182D01*
X42378900Y61923932D01*
X42160393Y61744608D01*
X41981068Y61526101D01*
X41910000Y61393142D01*
X41838932Y61526101D01*
X41659608Y61744608D01*
X41441101Y61923932D01*
X41191808Y62057182D01*
X40921309Y62139236D01*
X40640000Y62166943D01*
X40358692Y62139236D01*
X40088193Y62057182D01*
X39838900Y61923932D01*
X39620393Y61744608D01*
X39441068Y61526101D01*
X39370000Y61393142D01*
X39298932Y61526101D01*
X39119608Y61744608D01*
X38901101Y61923932D01*
X38651808Y62057182D01*
X38381309Y62139236D01*
X38100000Y62166943D01*
X37818692Y62139236D01*
X37548193Y62057182D01*
X37298900Y61923932D01*
X37080393Y61744608D01*
X36901068Y61526101D01*
X36830000Y61393142D01*
X36758932Y61526101D01*
X36579608Y61744608D01*
X36361101Y61923932D01*
X36111808Y62057182D01*
X35841309Y62139236D01*
X35560000Y62166943D01*
X35278692Y62139236D01*
X35008193Y62057182D01*
X34758900Y61923932D01*
X34540393Y61744608D01*
X34361068Y61526101D01*
X34290000Y61393142D01*
X34218932Y61526101D01*
X34039608Y61744608D01*
X33821101Y61923932D01*
X33571808Y62057182D01*
X33301309Y62139236D01*
X33020000Y62166943D01*
X32738692Y62139236D01*
X32468193Y62057182D01*
X32218900Y61923932D01*
X32000393Y61744608D01*
X31821068Y61526101D01*
X31750000Y61393142D01*
X31678932Y61526101D01*
X31499608Y61744608D01*
X31281101Y61923932D01*
X31031808Y62057182D01*
X30761309Y62139236D01*
X30480000Y62166943D01*
X30198692Y62139236D01*
X29928193Y62057182D01*
X29678900Y61923932D01*
X29460393Y61744608D01*
X29281068Y61526101D01*
X29210000Y61393142D01*
X29138932Y61526101D01*
X28959608Y61744608D01*
X28741101Y61923932D01*
X28491808Y62057182D01*
X28221309Y62139236D01*
X27940000Y62166943D01*
X27658692Y62139236D01*
X27388193Y62057182D01*
X27138900Y61923932D01*
X26920393Y61744608D01*
X26741068Y61526101D01*
X26670000Y61393142D01*
X26598932Y61526101D01*
X26419608Y61744608D01*
X26201101Y61923932D01*
X25951808Y62057182D01*
X25681309Y62139236D01*
X25400000Y62166943D01*
X25118692Y62139236D01*
X24848193Y62057182D01*
X24598900Y61923932D01*
X24380393Y61744608D01*
X24201068Y61526101D01*
X24130000Y61393142D01*
X24058932Y61526101D01*
X23879608Y61744608D01*
X23661101Y61923932D01*
X23411808Y62057182D01*
X23141309Y62139236D01*
X22860000Y62166943D01*
X22578692Y62139236D01*
X22308193Y62057182D01*
X22058900Y61923932D01*
X21840393Y61744608D01*
X21661068Y61526101D01*
X21527818Y61276808D01*
X21445764Y61006309D01*
X21425000Y60795492D01*
X21425000Y59854509D01*
X21445764Y59643692D01*
X21527818Y59373193D01*
X21661068Y59123900D01*
X21840392Y58905393D01*
X22058899Y58726068D01*
X22135174Y58685298D01*
X22135635Y58680615D01*
X22175514Y58549155D01*
X22177664Y58542067D01*
X22245914Y58414380D01*
X22337763Y58302462D01*
X22365808Y58279446D01*
X27068401Y53576852D01*
X27068400Y52500953D01*
X27019123Y52427205D01*
X26952410Y52266145D01*
X26935275Y52180000D01*
X19607930Y52180000D01*
X19554637Y52259759D01*
X19354759Y52459637D01*
X19154131Y52593692D01*
X19181514Y52608329D01*
X19253097Y52852298D01*
X18440000Y53665395D01*
X18425858Y53651252D01*
X18246253Y53830857D01*
X18260395Y53845000D01*
X18619605Y53845000D01*
X19432702Y53031903D01*
X19676671Y53103486D01*
X19797571Y53358996D01*
X19866300Y53633184D01*
X19880217Y53915512D01*
X19838787Y54195130D01*
X19743603Y54461292D01*
X19676671Y54586514D01*
X19432702Y54658097D01*
X18619605Y53845000D01*
X18260395Y53845000D01*
X17447298Y54658097D01*
X17203329Y54586514D01*
X17082429Y54331004D01*
X17013700Y54056816D01*
X17008784Y53957084D01*
X16335000Y54630867D01*
X16335000Y54837702D01*
X17626903Y54837702D01*
X18440000Y54024605D01*
X19253097Y54837702D01*
X19181514Y55081671D01*
X18926004Y55202571D01*
X18651816Y55271300D01*
X18369488Y55285217D01*
X18089870Y55243787D01*
X17823708Y55148603D01*
X17698486Y55081671D01*
X17626903Y54837702D01*
X16335000Y54837702D01*
X16335000Y60654133D01*
X19345868Y63665000D01*
X34458982Y63665000D01*
X34500000Y63660960D01*
X34541018Y63665000D01*
X34541019Y63665000D01*
X34663689Y63677082D01*
X34821087Y63724828D01*
X34966146Y63802364D01*
X35093291Y63906709D01*
X35119446Y63938579D01*
X37060394Y65879527D01*
X37117345Y65822576D01*
X37262295Y65725723D01*
X37423355Y65659010D01*
X37594335Y65625000D01*
X37768665Y65625000D01*
X37939645Y65659010D01*
X38100705Y65725723D01*
X38174453Y65775000D01*
X38895895Y65775000D01*
X38932000Y65771444D01*
X38968105Y65775000D01*
X39076085Y65785635D01*
X39214633Y65827663D01*
X39342320Y65895913D01*
X39454238Y65987762D01*
X39477259Y66015813D01*
X42806747Y69345300D01*
X45728242Y69345300D01*
X45702764Y69261309D01*
G04 #@! TA.AperFunction,Conductor*
D22*
G36*
X45702764Y69261309D02*
G01*
X45682000Y69050492D01*
X45682000Y68109509D01*
X45702764Y67898692D01*
X45784818Y67628193D01*
X45918068Y67378900D01*
X46097392Y67160393D01*
X46315899Y66981068D01*
X46392174Y66940298D01*
X46392635Y66935615D01*
X46434663Y66797067D01*
X46502913Y66669380D01*
X46594762Y66557462D01*
X46706680Y66465613D01*
X46834367Y66397363D01*
X46972915Y66355335D01*
X47080895Y66344700D01*
X47117000Y66341144D01*
X47153105Y66344700D01*
X52861154Y66344700D01*
X57433816Y61772037D01*
X57400393Y61744608D01*
X57221068Y61526101D01*
X57152735Y61398259D01*
X57002601Y61627839D01*
X56804895Y61829500D01*
X56571646Y61988715D01*
X56311818Y62099367D01*
X56229039Y62116904D01*
X56047478Y62017154D01*
X56072290Y62077055D01*
X56106300Y62248035D01*
X56106300Y62422365D01*
X56072290Y62593345D01*
X56005577Y62754405D01*
X55908724Y62899355D01*
X55785455Y63022624D01*
X55640505Y63119477D01*
X55479445Y63186190D01*
X55308465Y63220200D01*
X55134135Y63220200D01*
X54963155Y63186190D01*
X54802095Y63119477D01*
X54657145Y63022624D01*
X54533876Y62899355D01*
X54437023Y62754405D01*
X54370310Y62593345D01*
X54353006Y62506352D01*
X54257508Y62410854D01*
X54229462Y62387837D01*
X54137613Y62275919D01*
X54069363Y62148232D01*
X54054540Y62099367D01*
X54027335Y62009685D01*
X54025001Y61985989D01*
X53891808Y62057182D01*
X53621309Y62139236D01*
X53340000Y62166943D01*
X53058692Y62139236D01*
X52788193Y62057182D01*
X52538900Y61923932D01*
X52320393Y61744608D01*
X52141068Y61526101D01*
X52070000Y61393142D01*
X51998932Y61526101D01*
X51819608Y61744608D01*
X51601101Y61923932D01*
X51351808Y62057182D01*
X51081309Y62139236D01*
X50800000Y62166943D01*
X50518692Y62139236D01*
X50248193Y62057182D01*
X49998900Y61923932D01*
X49830674Y61785873D01*
X47615259Y64001288D01*
X47592238Y64029338D01*
X47480320Y64121187D01*
X47352633Y64189437D01*
X47214085Y64231465D01*
X47106105Y64242100D01*
X47070000Y64245656D01*
X47033895Y64242100D01*
X37231053Y64242100D01*
X37157305Y64291377D01*
X36996245Y64358090D01*
X36825265Y64392100D01*
X36650935Y64392100D01*
X36479955Y64358090D01*
X36318895Y64291377D01*
X36173945Y64194524D01*
X36050676Y64071255D01*
X35953823Y63926305D01*
X35887110Y63765245D01*
X35853100Y63594265D01*
X35853100Y63419935D01*
X35887110Y63248955D01*
X35953823Y63087895D01*
X36050676Y62942945D01*
X36173945Y62819676D01*
X36318895Y62722823D01*
X36479955Y62656110D01*
X36650935Y62622100D01*
X36825265Y62622100D01*
X36996245Y62656110D01*
X37157305Y62722823D01*
X37231053Y62772100D01*
X46765554Y62772100D01*
X47559793Y61977861D01*
X47458900Y61923932D01*
X47240393Y61744608D01*
X47061068Y61526101D01*
X46990000Y61393142D01*
X46918932Y61526101D01*
X46739608Y61744608D01*
X46521101Y61923932D01*
X46271808Y62057182D01*
X46001309Y62139236D01*
X45720000Y62166943D01*
X45438692Y62139236D01*
X45168193Y62057182D01*
X44918900Y61923932D01*
X44700393Y61744608D01*
X44521068Y61526101D01*
X44450000Y61393142D01*
X44378932Y61526101D01*
X44199608Y61744608D01*
X43981101Y61923932D01*
X43731808Y62057182D01*
X43461309Y62139236D01*
X43180000Y62166943D01*
X42898692Y62139236D01*
X42628193Y62057182D01*
X42378900Y61923932D01*
X42160393Y61744608D01*
X41981068Y61526101D01*
X41910000Y61393142D01*
X41838932Y61526101D01*
X41659608Y61744608D01*
X41441101Y61923932D01*
X41191808Y62057182D01*
X40921309Y62139236D01*
X40640000Y62166943D01*
X40358692Y62139236D01*
X40088193Y62057182D01*
X39838900Y61923932D01*
X39620393Y61744608D01*
X39441068Y61526101D01*
X39370000Y61393142D01*
X39298932Y61526101D01*
X39119608Y61744608D01*
X38901101Y61923932D01*
X38651808Y62057182D01*
X38381309Y62139236D01*
X38100000Y62166943D01*
X37818692Y62139236D01*
X37548193Y62057182D01*
X37298900Y61923932D01*
X37080393Y61744608D01*
X36901068Y61526101D01*
X36830000Y61393142D01*
X36758932Y61526101D01*
X36579608Y61744608D01*
X36361101Y61923932D01*
X36111808Y62057182D01*
X35841309Y62139236D01*
X35560000Y62166943D01*
X35278692Y62139236D01*
X35008193Y62057182D01*
X34758900Y61923932D01*
X34540393Y61744608D01*
X34361068Y61526101D01*
X34290000Y61393142D01*
X34218932Y61526101D01*
X34039608Y61744608D01*
X33821101Y61923932D01*
X33571808Y62057182D01*
X33301309Y62139236D01*
X33020000Y62166943D01*
X32738692Y62139236D01*
X32468193Y62057182D01*
X32218900Y61923932D01*
X32000393Y61744608D01*
X31821068Y61526101D01*
X31750000Y61393142D01*
X31678932Y61526101D01*
X31499608Y61744608D01*
X31281101Y61923932D01*
X31031808Y62057182D01*
X30761309Y62139236D01*
X30480000Y62166943D01*
X30198692Y62139236D01*
X29928193Y62057182D01*
X29678900Y61923932D01*
X29460393Y61744608D01*
X29281068Y61526101D01*
X29210000Y61393142D01*
X29138932Y61526101D01*
X28959608Y61744608D01*
X28741101Y61923932D01*
X28491808Y62057182D01*
X28221309Y62139236D01*
X27940000Y62166943D01*
X27658692Y62139236D01*
X27388193Y62057182D01*
X27138900Y61923932D01*
X26920393Y61744608D01*
X26741068Y61526101D01*
X26670000Y61393142D01*
X26598932Y61526101D01*
X26419608Y61744608D01*
X26201101Y61923932D01*
X25951808Y62057182D01*
X25681309Y62139236D01*
X25400000Y62166943D01*
X25118692Y62139236D01*
X24848193Y62057182D01*
X24598900Y61923932D01*
X24380393Y61744608D01*
X24201068Y61526101D01*
X24130000Y61393142D01*
X24058932Y61526101D01*
X23879608Y61744608D01*
X23661101Y61923932D01*
X23411808Y62057182D01*
X23141309Y62139236D01*
X22860000Y62166943D01*
X22578692Y62139236D01*
X22308193Y62057182D01*
X22058900Y61923932D01*
X21840393Y61744608D01*
X21661068Y61526101D01*
X21527818Y61276808D01*
X21445764Y61006309D01*
X21425000Y60795492D01*
X21425000Y59854509D01*
X21445764Y59643692D01*
X21527818Y59373193D01*
X21661068Y59123900D01*
X21840392Y58905393D01*
X22058899Y58726068D01*
X22135174Y58685298D01*
X22135635Y58680615D01*
X22175514Y58549155D01*
X22177664Y58542067D01*
X22245914Y58414380D01*
X22337763Y58302462D01*
X22365808Y58279446D01*
X27068401Y53576852D01*
X27068400Y52500953D01*
X27019123Y52427205D01*
X26952410Y52266145D01*
X26935275Y52180000D01*
X19607930Y52180000D01*
X19554637Y52259759D01*
X19354759Y52459637D01*
X19154131Y52593692D01*
X19181514Y52608329D01*
X19253097Y52852298D01*
X18440000Y53665395D01*
X18425858Y53651252D01*
X18246253Y53830857D01*
X18260395Y53845000D01*
X18619605Y53845000D01*
X19432702Y53031903D01*
X19676671Y53103486D01*
X19797571Y53358996D01*
X19866300Y53633184D01*
X19880217Y53915512D01*
X19838787Y54195130D01*
X19743603Y54461292D01*
X19676671Y54586514D01*
X19432702Y54658097D01*
X18619605Y53845000D01*
X18260395Y53845000D01*
X17447298Y54658097D01*
X17203329Y54586514D01*
X17082429Y54331004D01*
X17013700Y54056816D01*
X17008784Y53957084D01*
X16335000Y54630867D01*
X16335000Y54837702D01*
X17626903Y54837702D01*
X18440000Y54024605D01*
X19253097Y54837702D01*
X19181514Y55081671D01*
X18926004Y55202571D01*
X18651816Y55271300D01*
X18369488Y55285217D01*
X18089870Y55243787D01*
X17823708Y55148603D01*
X17698486Y55081671D01*
X17626903Y54837702D01*
X16335000Y54837702D01*
X16335000Y60654133D01*
X19345868Y63665000D01*
X34458982Y63665000D01*
X34500000Y63660960D01*
X34541018Y63665000D01*
X34541019Y63665000D01*
X34663689Y63677082D01*
X34821087Y63724828D01*
X34966146Y63802364D01*
X35093291Y63906709D01*
X35119446Y63938579D01*
X37060394Y65879527D01*
X37117345Y65822576D01*
X37262295Y65725723D01*
X37423355Y65659010D01*
X37594335Y65625000D01*
X37768665Y65625000D01*
X37939645Y65659010D01*
X38100705Y65725723D01*
X38174453Y65775000D01*
X38895895Y65775000D01*
X38932000Y65771444D01*
X38968105Y65775000D01*
X39076085Y65785635D01*
X39214633Y65827663D01*
X39342320Y65895913D01*
X39454238Y65987762D01*
X39477259Y66015813D01*
X42806747Y69345300D01*
X45728242Y69345300D01*
X45702764Y69261309D01*
G37*
G04 #@! TD.AperFunction*
D21*
X56007000Y60452000D02*
X56027000Y60452000D01*
X56027000Y60198000D01*
X56007000Y60198000D01*
X56007000Y60178000D01*
X55753000Y60178000D01*
X55753000Y60198000D01*
X55733000Y60198000D01*
X55733000Y60452000D01*
X55753000Y60452000D01*
X55753000Y60472000D01*
X56007000Y60472000D01*
X56007000Y60452000D01*
G04 #@! TA.AperFunction,Conductor*
D22*
G36*
X56007000Y60452000D02*
G01*
X56027000Y60452000D01*
X56027000Y60198000D01*
X56007000Y60198000D01*
X56007000Y60178000D01*
X55753000Y60178000D01*
X55753000Y60198000D01*
X55733000Y60198000D01*
X55733000Y60452000D01*
X55753000Y60452000D01*
X55753000Y60472000D01*
X56007000Y60472000D01*
X56007000Y60452000D01*
G37*
G04 #@! TD.AperFunction*
D21*
X64809429Y74146004D02*
X64740700Y73871816D01*
X64726783Y73589488D01*
X64768213Y73309870D01*
X64863397Y73043708D01*
X64930329Y72918486D01*
X65174298Y72846903D01*
X65987395Y73660000D01*
X65973253Y73674142D01*
X66152858Y73853747D01*
X66167000Y73839605D01*
X66181143Y73853747D01*
X66360748Y73674142D01*
X66346605Y73660000D01*
X66360748Y73645857D01*
X66181143Y73466252D01*
X66167000Y73480395D01*
X65353903Y72667298D01*
X65425486Y72423329D01*
X65454341Y72409676D01*
X65252241Y72274637D01*
X65052363Y72074759D01*
X64999070Y71995000D01*
X64978018Y71995000D01*
X64937000Y71999040D01*
X64895981Y71995000D01*
X64773311Y71982918D01*
X64615913Y71935172D01*
X64470854Y71857636D01*
X64343709Y71753291D01*
X64317561Y71721429D01*
X62908429Y70312297D01*
X62851217Y70329652D01*
X61619446Y71561422D01*
X61593291Y71593291D01*
X61503185Y71667239D01*
X64116447Y74280500D01*
X64873069Y74280500D01*
X64809429Y74146004D01*
G04 #@! TA.AperFunction,Conductor*
D22*
G36*
X64809429Y74146004D02*
G01*
X64740700Y73871816D01*
X64726783Y73589488D01*
X64768213Y73309870D01*
X64863397Y73043708D01*
X64930329Y72918486D01*
X65174298Y72846903D01*
X65987395Y73660000D01*
X65973253Y73674142D01*
X66152858Y73853747D01*
X66167000Y73839605D01*
X66181143Y73853747D01*
X66360748Y73674142D01*
X66346605Y73660000D01*
X66360748Y73645857D01*
X66181143Y73466252D01*
X66167000Y73480395D01*
X65353903Y72667298D01*
X65425486Y72423329D01*
X65454341Y72409676D01*
X65252241Y72274637D01*
X65052363Y72074759D01*
X64999070Y71995000D01*
X64978018Y71995000D01*
X64937000Y71999040D01*
X64895981Y71995000D01*
X64773311Y71982918D01*
X64615913Y71935172D01*
X64470854Y71857636D01*
X64343709Y71753291D01*
X64317561Y71721429D01*
X62908429Y70312297D01*
X62851217Y70329652D01*
X61619446Y71561422D01*
X61593291Y71593291D01*
X61503185Y71667239D01*
X64116447Y74280500D01*
X64873069Y74280500D01*
X64809429Y74146004D01*
G37*
G04 #@! TD.AperFunction*
D21*
X53113001Y82086548D02*
X50602408Y79575954D01*
X50574362Y79552937D01*
X50482513Y79441019D01*
X50414263Y79313332D01*
X50390501Y79235000D01*
X50372235Y79174785D01*
X50358044Y79030700D01*
X50361600Y78994595D01*
X50361600Y77850513D01*
X50208808Y77932182D01*
X49938309Y78014236D01*
X49657000Y78041943D01*
X49375692Y78014236D01*
X49105193Y77932182D01*
X48855900Y77798932D01*
X48637393Y77619608D01*
X48458068Y77401101D01*
X48389735Y77273259D01*
X48239601Y77502839D01*
X48041895Y77704500D01*
X47808646Y77863715D01*
X47548818Y77974367D01*
X47466039Y77991904D01*
X47244000Y77869915D01*
X47244000Y76327000D01*
X47264000Y76327000D01*
X47264000Y76073000D01*
X47244000Y76073000D01*
X47244000Y74530085D01*
X47466039Y74408096D01*
X47548818Y74425633D01*
X47808646Y74536285D01*
X48041895Y74695500D01*
X48239601Y74897161D01*
X48389735Y75126742D01*
X48458068Y74998900D01*
X48637392Y74780393D01*
X48855899Y74601068D01*
X49105192Y74467818D01*
X49375691Y74385764D01*
X49657000Y74358057D01*
X49938308Y74385764D01*
X50208807Y74467818D01*
X50361601Y74549488D01*
X50361601Y74434548D01*
X49484848Y73557794D01*
X49397855Y73540490D01*
X49236795Y73473777D01*
X49091845Y73376924D01*
X48968576Y73253655D01*
X48871723Y73108705D01*
X48805010Y72947645D01*
X48782146Y72832700D01*
X44401600Y72832700D01*
X44401600Y72837265D01*
X44367590Y73008245D01*
X44300877Y73169305D01*
X44204024Y73314255D01*
X44080755Y73437524D01*
X43935805Y73534377D01*
X43853322Y73568543D01*
X43896924Y73612145D01*
X43993777Y73757095D01*
X44060490Y73918155D01*
X44094500Y74089135D01*
X44094500Y74263465D01*
X44060490Y74434445D01*
X43993777Y74595505D01*
X43944500Y74669253D01*
X43944500Y75958754D01*
X44058746Y76073000D01*
X45682000Y76073000D01*
X45682000Y75673000D01*
X45734350Y75395486D01*
X45839834Y75133517D01*
X45994399Y74897161D01*
X46192105Y74695500D01*
X46425354Y74536285D01*
X46685182Y74425633D01*
X46767961Y74408096D01*
X46990000Y74530085D01*
X46990000Y76073000D01*
X45682000Y76073000D01*
X44058746Y76073000D01*
X44712746Y76727000D01*
X45682000Y76727000D01*
X45682000Y76327000D01*
X46990000Y76327000D01*
X46990000Y77869915D01*
X46767961Y77991904D01*
X46685182Y77974367D01*
X46425354Y77863715D01*
X46192105Y77704500D01*
X45994399Y77502839D01*
X45839834Y77266483D01*
X45734350Y77004514D01*
X45682000Y76727000D01*
X44712746Y76727000D01*
X51358747Y83373000D01*
X53113001Y83373000D01*
X53113001Y82086548D01*
G04 #@! TA.AperFunction,Conductor*
D22*
G36*
X53113001Y82086548D02*
G01*
X50602408Y79575954D01*
X50574362Y79552937D01*
X50482513Y79441019D01*
X50414263Y79313332D01*
X50390501Y79235000D01*
X50372235Y79174785D01*
X50358044Y79030700D01*
X50361600Y78994595D01*
X50361600Y77850513D01*
X50208808Y77932182D01*
X49938309Y78014236D01*
X49657000Y78041943D01*
X49375692Y78014236D01*
X49105193Y77932182D01*
X48855900Y77798932D01*
X48637393Y77619608D01*
X48458068Y77401101D01*
X48389735Y77273259D01*
X48239601Y77502839D01*
X48041895Y77704500D01*
X47808646Y77863715D01*
X47548818Y77974367D01*
X47466039Y77991904D01*
X47244000Y77869915D01*
X47244000Y76327000D01*
X47264000Y76327000D01*
X47264000Y76073000D01*
X47244000Y76073000D01*
X47244000Y74530085D01*
X47466039Y74408096D01*
X47548818Y74425633D01*
X47808646Y74536285D01*
X48041895Y74695500D01*
X48239601Y74897161D01*
X48389735Y75126742D01*
X48458068Y74998900D01*
X48637392Y74780393D01*
X48855899Y74601068D01*
X49105192Y74467818D01*
X49375691Y74385764D01*
X49657000Y74358057D01*
X49938308Y74385764D01*
X50208807Y74467818D01*
X50361601Y74549488D01*
X50361601Y74434548D01*
X49484848Y73557794D01*
X49397855Y73540490D01*
X49236795Y73473777D01*
X49091845Y73376924D01*
X48968576Y73253655D01*
X48871723Y73108705D01*
X48805010Y72947645D01*
X48782146Y72832700D01*
X44401600Y72832700D01*
X44401600Y72837265D01*
X44367590Y73008245D01*
X44300877Y73169305D01*
X44204024Y73314255D01*
X44080755Y73437524D01*
X43935805Y73534377D01*
X43853322Y73568543D01*
X43896924Y73612145D01*
X43993777Y73757095D01*
X44060490Y73918155D01*
X44094500Y74089135D01*
X44094500Y74263465D01*
X44060490Y74434445D01*
X43993777Y74595505D01*
X43944500Y74669253D01*
X43944500Y75958754D01*
X44058746Y76073000D01*
X45682000Y76073000D01*
X45682000Y75673000D01*
X45734350Y75395486D01*
X45839834Y75133517D01*
X45994399Y74897161D01*
X46192105Y74695500D01*
X46425354Y74536285D01*
X46685182Y74425633D01*
X46767961Y74408096D01*
X46990000Y74530085D01*
X46990000Y76073000D01*
X45682000Y76073000D01*
X44058746Y76073000D01*
X44712746Y76727000D01*
X45682000Y76727000D01*
X45682000Y76327000D01*
X46990000Y76327000D01*
X46990000Y77869915D01*
X46767961Y77991904D01*
X46685182Y77974367D01*
X46425354Y77863715D01*
X46192105Y77704500D01*
X45994399Y77502839D01*
X45839834Y77266483D01*
X45734350Y77004514D01*
X45682000Y76727000D01*
X44712746Y76727000D01*
X51358747Y83373000D01*
X53113001Y83373000D01*
X53113001Y82086548D01*
G37*
G04 #@! TD.AperFunction*
D21*
X41595748Y73674142D02*
X41581605Y73660000D01*
X41595748Y73645857D01*
X41416143Y73466252D01*
X41402000Y73480395D01*
X41387858Y73466252D01*
X41208253Y73645857D01*
X41222395Y73660000D01*
X41208253Y73674142D01*
X41387858Y73853747D01*
X41402000Y73839605D01*
X41416143Y73853747D01*
X41595748Y73674142D01*
G04 #@! TA.AperFunction,Conductor*
D22*
G36*
X41595748Y73674142D02*
G01*
X41581605Y73660000D01*
X41595748Y73645857D01*
X41416143Y73466252D01*
X41402000Y73480395D01*
X41387858Y73466252D01*
X41208253Y73645857D01*
X41222395Y73660000D01*
X41208253Y73674142D01*
X41387858Y73853747D01*
X41402000Y73839605D01*
X41416143Y73853747D01*
X41595748Y73674142D01*
G37*
G04 #@! TD.AperFunction*
M02*
